<?xml version="1.0" standalone="no"?>
<!DOCTYPE svg PUBLIC "-//W3C//DTD SVG 20010904//EN"
 "http://www.w3.org/TR/2001/REC-SVG-20010904/DTD/svg10.dtd">
<svg version="1.0" xmlns="http://www.w3.org/2000/svg"
 width="512.000000pt" height="512.000000pt" viewBox="0 0 512.000000 512.000000"
 preserveAspectRatio="xMidYMid meet">
<g transform="translate(0.000000,512.000000) scale(0.100000,-0.100000)"
fill="#FFFFFF" stroke="none">
<path d="M2417 5096 c-138 -58 -228 -161 -251 -288 -5 -28 -13 -39 -29 -43
-12 -3 -53 -12 -92 -21 -448 -99 -867 -355 -1198 -732 l-38 -43 -50 16 c-82
27 -207 18 -291 -22 -85 -40 -151 -106 -191 -191 -30 -63 -32 -74 -32 -177 0
-101 2 -115 29 -170 18 -35 54 -84 89 -118 l60 -59 -22 -73 c-56 -193 -81
-384 -81 -615 0 -231 25 -422 81 -615 l22 -73 -60 -59 c-35 -34 -71 -83 -89
-118 -27 -55 -29 -69 -29 -170 0 -103 2 -114 32 -177 40 -85 106 -151 191
-191 84 -40 209 -49 291 -22 l50 16 38 -43 c154 -176 332 -331 508 -442 190
-121 469 -239 675 -287 47 -10 95 -21 107 -24 16 -4 24 -15 29 -43 20 -112
108 -221 222 -275 62 -30 75 -32 172 -32 97 0 110 2 172 32 114 54 202 163
222 275 5 28 13 39 29 43 12 3 54 12 92 21 447 99 867 356 1198 732 l38 43 50
-16 c82 -27 207 -18 291 22 85 40 151 106 191 191 30 63 32 74 32 177 0 101
-2 115 -29 170 -18 35 -54 84 -89 118 l-60 59 22 73 c56 193 81 384 81 615 0
231 -25 422 -81 615 l-22 73 60 59 c35 34 71 83 89 118 27 55 29 69 29 170 0
103 -2 114 -32 177 -40 85 -106 151 -191 191 -84 40 -209 49 -292 22 l-51 -17
-42 49 c-316 366 -746 628 -1192 727 -38 9 -80 18 -92 21 -16 4 -24 15 -29 43
-20 112 -108 221 -222 275 -58 28 -79 32 -162 35 -82 2 -103 -1 -153 -22z
m238 -165 c114 -52 168 -193 116 -306 -38 -84 -117 -135 -211 -135 -131 0
-230 99 -230 230 0 131 99 230 230 230 32 0 72 -8 95 -19z m-461 -383 c48
-101 127 -172 229 -208 l52 -18 3 -161 2 -161 80 0 80 0 2 161 3 161 52 18
c102 36 181 107 228 206 l24 52 83 -19 c296 -69 597 -216 833 -410 86 -70 217
-198 268 -260 l38 -47 -25 -37 c-51 -75 -68 -141 -64 -246 l4 -96 -210 -114
c-116 -63 -215 -115 -221 -117 -6 -1 -37 34 -70 79 -109 149 -278 290 -452
378 -180 91 -356 131 -573 131 -217 0 -393 -40 -573 -131 -174 -88 -343 -229
-452 -378 -33 -45 -65 -80 -71 -79 -6 2 -105 54 -220 117 l-210 115 4 95 c4
105 -13 172 -64 246 l-25 37 38 47 c21 25 74 81 118 125 277 271 598 450 970
542 50 12 91 23 92 23 1 1 14 -23 27 -51z m-1459 -737 c84 -38 135 -117 135
-211 0 -131 -99 -230 -230 -230 -131 0 -230 99 -230 230 0 131 99 230 230 230
32 0 72 -8 95 -19z m3840 0 c84 -38 135 -117 135 -211 0 -63 -24 -122 -66
-164 -113 -113 -308 -77 -375 69 -38 82 -17 195 47 259 42 42 101 66 164 66
32 0 72 -8 95 -19z m-1795 -161 c437 -89 781 -432 870 -868 122 -600 -269
-1189 -870 -1312 -132 -27 -308 -27 -440 0 -437 89 -781 432 -870 868 -121
597 266 1186 864 1311 127 27 316 27 446 1z m-1602 -440 c161 -88 210 -119
205 -130 -29 -68 -74 -222 -87 -296 -21 -116 -21 -332 0 -448 13 -74 59 -229
87 -296 7 -14 -37 -40 -370 -219 l-64 -34 -27 25 c-71 67 -148 98 -257 107
l-80 6 -26 96 c-54 195 -64 274 -64 539 0 265 10 344 64 539 l26 96 80 6 c44
4 96 12 115 19 40 15 132 73 151 96 7 8 17 14 23 12 7 -2 107 -55 224 -118z
m3013 103 c19 -22 106 -77 149 -93 19 -7 71 -15 115 -19 l80 -6 26 -96 c54
-195 64 -274 64 -539 0 -265 -10 -344 -64 -539 l-26 -96 -80 -6 c-109 -9 -186
-40 -257 -107 l-27 -25 -64 34 c-333 179 -377 205 -370 219 3 8 21 58 39 111
46 133 64 250 64 409 0 159 -18 276 -64 409 -18 53 -36 103 -39 111 -5 11 44
43 206 131 116 65 217 117 223 118 6 1 18 -6 25 -16z m-2656 -1524 c184 -251
488 -439 799 -494 115 -20 337 -20 452 0 311 55 615 243 799 494 33 45 64 80
70 79 6 -2 105 -55 221 -118 l210 -114 -4 -96 c-4 -104 13 -171 64 -245 l25
-37 -38 -47 c-51 -62 -182 -190 -268 -260 -236 -194 -537 -341 -833 -410 l-83
-19 -24 52 c-47 99 -126 170 -228 206 l-52 18 -3 161 -2 161 -80 0 -80 0 -2
-161 -3 -161 -52 -18 c-102 -36 -181 -107 -228 -206 l-24 -52 -83 19 c-296 69
-597 216 -833 410 -86 70 -217 198 -268 260 l-38 47 25 37 c51 75 68 141 64
246 l-4 95 211 116 c115 64 215 116 220 117 6 1 38 -36 70 -80z m-800 -58
c180 -82 180 -340 0 -422 -82 -38 -195 -17 -259 47 -88 88 -88 240 0 328 64
64 177 85 259 47z m3840 0 c84 -38 135 -117 135 -211 0 -131 -99 -230 -230
-230 -131 0 -230 99 -230 230 0 131 99 230 230 230 32 0 72 -8 95 -19z m-1920
-1120 c84 -38 135 -117 135 -211 0 -131 -99 -230 -230 -230 -247 0 -320 338
-95 441 52 24 138 24 190 0z"/>
<path d="M2480 4720 l0 -80 80 0 80 0 0 80 0 80 -80 0 -80 0 0 -80z"/>
<path d="M560 3600 l0 -80 80 0 80 0 0 80 0 80 -80 0 -80 0 0 -80z"/>
<path d="M4400 3600 l0 -80 80 0 80 0 0 80 0 80 -80 0 -80 0 0 -80z"/>
<path d="M2417 3416 c-115 -48 -174 -104 -225 -213 -24 -52 -27 -71 -30 -186
-3 -100 0 -138 14 -180 19 -58 54 -119 91 -158 l24 -26 -24 -20 c-14 -10 -115
-73 -226 -139 l-200 -119 -1 -173 c0 -184 4 -205 52 -248 38 -36 104 -64 201
-87 86 -20 117 -22 467 -22 350 0 381 2 467 22 97 23 163 51 201 87 48 43 52
64 52 248 l-1 173 -200 119 c-111 66 -212 129 -226 139 l-24 20 24 26 c37 39
72 100 91 158 14 42 17 80 14 180 -3 120 -5 132 -35 195 -40 85 -106 151 -191
191 -58 28 -79 32 -162 35 -82 2 -103 -1 -153 -22z m238 -165 c95 -43 139
-123 139 -251 0 -96 -20 -154 -70 -204 -115 -115 -309 -76 -377 74 -29 63 -29
197 0 260 40 89 117 140 213 140 32 0 72 -8 95 -19z m53 -723 c20 -18 121 -85
225 -147 l187 -113 0 -95 0 -94 -42 -19 c-87 -38 -168 -45 -518 -45 -350 0
-431 7 -517 45 l-43 19 0 94 0 95 178 106 c97 58 199 125 225 149 l49 42 109
-1 109 -2 38 -34z"/>
<path d="M560 1520 l0 -80 80 0 80 0 0 80 0 80 -80 0 -80 0 0 -80z"/>
<path d="M4400 1520 l0 -80 80 0 80 0 0 80 0 80 -80 0 -80 0 0 -80z"/>
<path d="M2480 400 l0 -80 80 0 80 0 0 80 0 80 -80 0 -80 0 0 -80z"/>
</g>
</svg>
