<svg version="1.0" xmlns="http://www.w3.org/2000/svg" width="682.667" height="682.667" viewBox="0 0 512 512"><path d="M241.7 2.4c-13.8 5.8-22.8 16.1-25.1 28.8-.5 2.8-1.3 3.9-2.9 4.3-1.2.3-5.3 1.2-9.2 2.1-44.8 9.9-86.7 35.5-119.8 73.2l-3.8 4.3-5-1.6c-8.2-2.7-20.7-1.8-29.1 2.2-8.5 4-15.1 10.6-19.1 19.1-3 6.3-3.2 7.4-3.2 17.7 0 10.1.2 11.5 2.9 17 1.8 3.5 5.4 8.4 8.9 11.8l6 5.9-2.2 7.3C34.5 213.8 32 232.9 32 256s2.5 42.2 8.1 61.5l2.2 7.3-6 5.9c-3.5 3.4-7.1 8.3-8.9 11.8-2.7 5.5-2.9 6.9-2.9 17 0 10.3.2 11.4 3.2 17.7 4 8.5 10.6 15.1 19.1 19.1 8.4 4 20.9 4.9 29.1 2.2l5-1.6 3.8 4.3c15.4 17.6 33.2 33.1 50.8 44.2 19 12.1 46.9 23.9 67.5 28.7 4.7 1 9.5 2.1 10.7 2.4 1.6.4 2.4 1.5 2.9 4.3 2 11.2 10.8 22.1 22.2 27.5 6.2 3 7.5 3.2 17.2 3.2s11-.2 17.2-3.2c11.4-5.4 20.2-16.3 22.2-27.5.5-2.8 1.3-3.9 2.9-4.3 1.2-.3 5.4-1.2 9.2-2.1 44.7-9.9 86.7-35.6 119.8-73.2l3.8-4.3 5 1.6c8.2 2.7 20.7 1.8 29.1-2.2 8.5-4 15.1-10.6 19.1-19.1 3-6.3 3.2-7.4 3.2-17.7 0-10.1-.2-11.5-2.9-17-1.8-3.5-5.4-8.4-8.9-11.8l-6-5.9 2.2-7.3c5.6-19.3 8.1-38.4 8.1-61.5s-2.5-42.2-8.1-61.5l-2.2-7.3 6-5.9c3.5-3.4 7.1-8.3 8.9-11.8 2.7-5.5 2.9-6.9 2.9-17 0-10.3-.2-11.4-3.2-17.7-4-8.5-10.6-15.1-19.1-19.1-8.4-4-20.9-4.9-29.2-2.2l-5.1 1.7-4.2-4.9c-31.6-36.6-74.6-62.8-119.2-72.7-3.8-.9-8-1.8-9.2-2.1-1.6-.4-2.4-1.5-2.9-4.3-2-11.2-10.8-22.1-22.2-27.5C267.4.9 265.3.5 257 .2c-8.2-.2-10.3.1-15.3 2.2zm23.8 16.5c11.4 5.2 16.8 19.3 11.6 30.6C273.3 57.9 265.4 63 256 63c-13.1 0-23-9.9-23-23s9.9-23 23-23c3.2 0 7.2.8 9.5 1.9zm-46.1 38.3c4.8 10.1 12.7 17.2 22.9 20.8l5.2 1.8.3 16.1.2 16.1h16l.2-16.1.3-16.1 5.2-1.8c10.2-3.6 18.1-10.7 22.8-20.6l2.4-5.2 8.3 1.9c29.6 6.9 59.7 21.6 83.3 41 8.6 7 21.7 19.8 26.8 26l3.8 4.7-2.5 3.7c-5.1 7.5-6.8 14.1-6.4 24.6l.4 9.6-21 11.4c-11.6 6.3-21.5 11.5-22.1 11.7-.6.1-3.7-3.4-7-7.9-10.9-14.9-27.8-29-45.2-37.8-18-9.1-35.6-13.1-57.3-13.1-21.7 0-39.3 4-57.3 13.1-17.4 8.8-34.3 22.9-45.2 37.8-3.3 4.5-6.5 8-7.1 7.9-.6-.2-10.5-5.4-22-11.7l-21-11.5.4-9.5c.4-10.5-1.3-17.2-6.4-24.6l-2.5-3.7 3.8-4.7c2.1-2.5 7.4-8.1 11.8-12.5 27.7-27.1 59.8-45 97-54.2 5-1.2 9.1-2.3 9.2-2.3.1-.1 1.4 2.3 2.7 5.1zM73.5 130.9C81.9 134.7 87 142.6 87 152c0 13.1-9.9 23-23 23s-23-9.9-23-23 9.9-23 23-23c3.2 0 7.2.8 9.5 1.9zm384 0c8.4 3.8 13.5 11.7 13.5 21.1 0 6.3-2.4 12.2-6.6 16.4-11.3 11.3-30.8 7.7-37.5-6.9-3.8-8.2-1.7-19.5 4.7-25.9 4.2-4.2 10.1-6.6 16.4-6.6 3.2 0 7.2.8 9.5 1.9zM278 147c43.7 8.9 78.1 43.2 87 86.8 12.2 60-26.9 118.9-87 131.2-13.2 2.7-30.8 2.7-44 0-43.7-8.9-78.1-43.2-87-86.8-12.1-59.7 26.6-118.6 86.4-131.1 12.7-2.7 31.6-2.7 44.6-.1zm-160.2 44c16.1 8.8 21 11.9 20.5 13-2.9 6.8-7.4 22.2-8.7 29.6-2.1 11.6-2.1 33.2 0 44.8 1.3 7.4 5.9 22.9 8.7 29.6.7 1.4-3.7 4-37 21.9l-6.4 3.4-2.7-2.5c-7.1-6.7-14.8-9.8-25.7-10.7l-8-.6-2.6-9.6c-5.4-19.5-6.4-27.4-6.4-53.9s1-34.4 6.4-53.9l2.6-9.6 8-.6c4.4-.4 9.6-1.2 11.5-1.9 4-1.5 13.2-7.3 15.1-9.6.7-.8 1.7-1.4 2.3-1.2.7.2 10.7 5.5 22.4 11.8zm301.3-10.3c1.9 2.2 10.6 7.7 14.9 9.3 1.9.7 7.1 1.5 11.5 1.9l8 .6 2.6 9.6c5.4 19.5 6.4 27.4 6.4 53.9s-1 34.4-6.4 53.9l-2.6 9.6-8 .6c-10.9.9-18.6 4-25.7 10.7l-2.7 2.5-6.4-3.4c-33.3-17.9-37.7-20.5-37-21.9.3-.8 2.1-5.8 3.9-11.1 4.6-13.3 6.4-25 6.4-40.9 0-15.9-1.8-27.6-6.4-40.9-1.8-5.3-3.6-10.3-3.9-11.1-.5-1.1 4.4-4.3 20.6-13.1 11.6-6.5 21.7-11.7 22.3-11.8.6-.1 1.8.6 2.5 1.6zM153.5 333.1c18.4 25.1 48.8 43.9 79.9 49.4 11.5 2 33.7 2 45.2 0 31.1-5.5 61.5-24.3 79.9-49.4 3.3-4.5 6.4-8 7-7.9.6.2 10.5 5.5 22.1 11.8l21 11.4-.4 9.6c-.4 10.4 1.3 17.1 6.4 24.5l2.5 3.7-3.8 4.7c-5.1 6.2-18.2 19-26.8 26-23.6 19.4-53.7 34.1-83.3 41l-8.3 1.9-2.4-5.2c-4.7-9.9-12.6-17-22.8-20.6l-5.2-1.8-.3-16.1-.2-16.1h-16l-.2 16.1-.3 16.1-5.2 1.8c-10.2 3.6-18.1 10.7-22.8 20.6l-2.4 5.2-8.3-1.9c-29.6-6.9-59.7-21.6-83.3-41-8.6-7-21.7-19.8-26.8-26l-3.8-4.7 2.5-3.7c5.1-7.5 6.8-14.1 6.4-24.6l-.4-9.5 21.1-11.6c11.5-6.4 21.5-11.6 22-11.7.6-.1 3.8 3.6 7 8zm-80 5.8c18 8.2 18 34 0 42.2-8.2 3.8-19.5 1.7-25.9-4.7-8.8-8.8-8.8-24 0-32.8 6.4-6.4 17.7-8.5 25.9-4.7zm384 0c8.4 3.8 13.5 11.7 13.5 21.1 0 13.1-9.9 23-23 23s-23-9.9-23-23 9.9-23 23-23c3.2 0 7.2.8 9.5 1.9zm-192 112c8.4 3.8 13.5 11.7 13.5 21.1 0 13.1-9.9 23-23 23-24.7 0-32-33.8-9.5-44.1 5.2-2.4 13.8-2.4 19 0z"/><path d="M248 40v8h16V32h-16v8zM56 152v8h16v-16H56v8zM440 152v8h16v-16h-16v8zM241.7 170.4c-11.5 4.8-17.4 10.4-22.5 21.3-2.4 5.2-2.7 7.1-3 18.6-.3 10 0 13.8 1.4 18 1.9 5.8 5.4 11.9 9.1 15.8l2.4 2.6-2.4 2c-1.4 1-11.5 7.3-22.6 13.9l-20 11.9-.1 17.3c0 18.4.4 20.5 5.2 24.8 3.8 3.6 10.4 6.4 20.1 8.7 8.6 2 11.7 2.2 46.7 2.2s38.1-.2 46.7-2.2c9.7-2.3 16.3-5.1 20.1-8.7 4.8-4.3 5.2-6.4 5.2-24.8l-.1-17.3-20-11.9c-11.1-6.6-21.2-12.9-22.6-13.9l-2.4-2 2.4-2.6c3.7-3.9 7.2-10 9.1-15.8 1.4-4.2 1.7-8 1.4-18-.3-12-.5-13.2-3.5-19.5-4-8.5-10.6-15.1-19.1-19.1-5.8-2.8-7.9-3.2-16.2-3.5-8.2-.2-10.3.1-15.3 2.2zm23.8 16.5c9.5 4.3 13.9 12.3 13.9 25.1 0 9.6-2 15.4-7 20.4-11.5 11.5-30.9 7.6-37.7-7.4-2.9-6.3-2.9-19.7 0-26 4-8.9 11.7-14 21.3-14 3.2 0 7.2.8 9.5 1.9zm5.3 72.3c2 1.8 12.1 8.5 22.5 14.7l18.7 11.3v18.9l-4.2 1.9c-8.7 3.8-16.8 4.5-51.8 4.5s-43.1-.7-51.7-4.5l-4.3-1.9v-18.9l17.8-10.6c9.7-5.8 19.9-12.5 22.5-14.9l4.9-4.2 10.9.1 10.9.2 3.8 3.4zM56 360v8h16v-16H56v8zM440 360v8h16v-16h-16v8zM248 472v8h16v-16h-16v8z"/></svg>