<svg xmlns="http://www.w3.org/2000/svg" viewBox="0 0 48 48"><defs><style>.a{fill:#394146}</style></defs><path class="a" d="M5.9 20.68a1.13 1.13 0 0 1 .9-.52c.68-.09 1.35-.2 2-.33a.64.64 0 0 0 .38-.28c.41-.95.81-1.91 1.18-2.87a.54.54 0 0 0-.05-.43c-.42-.6-.86-1.19-1.28-1.78a.76.76 0 0 1 .07-1.18l4.15-4.15a.76.76 0 0 1 1.18-.09c.6.43 1.19.85 1.77 1.29a.43.43 0 0 0 .48.06c.94-.41 1.89-.78 2.83-1.19a.62.62 0 0 0 .29-.38c.14-.72.24-1.46.36-2.19a.74.74 0 0 1 .84-.73h5.9a.77.77 0 0 1 .88.76c.11.73.22 1.46.36 2.19a.51.51 0 0 0 .27.34c.95.41 1.91.81 2.87 1.19a.59.59 0 0 0 .43-.06c.61-.41 1.19-.85 1.78-1.28a.75.75 0 0 1 1.18.08l4.15 4.14a.77.77 0 0 1 .18 1.19c-.43.59-.87 1.17-1.28 1.77a.57.57 0 0 0-.07.44c.38 1 .78 1.91 1.2 2.86a.57.57 0 0 0 .37.29c.73.14 1.46.24 2.19.36a.75.75 0 0 1 .74.86v5.9a.77.77 0 0 1-.76.88c-.74.11-1.47.22-2.2.36a.51.51 0 0 0-.34.27c-.41.95-.81 1.91-1.19 2.87a.59.59 0 0 0 .06.43c.42.61.86 1.19 1.28 1.78a.76.76 0 0 1-.07 1.18l-4.15 4.15a.76.76 0 0 1-1.18.09c-.6-.43-1.18-.87-1.78-1.28a.56.56 0 0 0-.43-.07c-1 .38-1.92.78-2.87 1.19a.62.62 0 0 0-.29.38c-.13.7-.25 1.41-.34 2.12a.91.91 0 0 1-.59.81h-6.62a1.13 1.13 0 0 1-.52-.9c-.09-.68-.23-1.35-.32-2a.45.45 0 0 0-.32-.4c-.94-.37-1.88-.76-2.8-1.16a.47.47 0 0 0-.51.07c-.57.43-1.16.85-1.74 1.27a.77.77 0 0 1-1.21-.1l-4.1-4.1c-.44-.44-.46-.72-.09-1.24s.85-1.15 1.26-1.75a.51.51 0 0 0 .06-.43c-.38-1-.77-1.91-1.19-2.86a.57.57 0 0 0-.37-.29c-.71-.13-1.42-.25-2.13-.34a.89.89 0 0 1-.8-.59zm34.77.82c-.69-.11-1.37-.24-2.06-.32a1.1 1.1 0 0 1-1-.78c-.38-1-.81-2-1.23-3-.53-1.26-.52-1.06.26-2.14.3-.43.61-.85.88-1.22L34 10.48c-.56.41-1.16.83-1.74 1.27a.94.94 0 0 1-1 .12c-1.2-.51-2.41-1-3.62-1.49a1 1 0 0 1-.74-1c-.08-.7-.22-1.39-.33-2.1h-4.89c-.07 0-.2.14-.21.23-.12.64-.22 1.28-.31 1.92a1 1 0 0 1-.68.88c-1.22.49-2.43 1-3.62 1.5a1 1 0 0 1-1.15-.14c-.56-.44-1.15-.84-1.7-1.24L10.47 14c.42.57.84 1.18 1.29 1.77a.93.93 0 0 1 .12 1c-.46 1.06-.94 2.11-1.31 3.2a1.6 1.6 0 0 1-1.63 1.25 12.55 12.55 0 0 0-1.61.26v5c.7.11 1.39.24 2.09.33a1 1 0 0 1 .95.71c.42 1.07.83 2.15 1.33 3.19a1.52 1.52 0 0 1-.24 1.92 13.43 13.43 0 0 0-1 1.32L14 37.52c.56-.41 1.16-.82 1.74-1.27a.94.94 0 0 1 1.05-.12c1.2.51 2.41 1 3.62 1.49a1 1 0 0 1 .74 1c.08.7.22 1.39.33 2.1h4.81c.07 0 .2-.14.21-.23.12-.64.22-1.28.31-1.92a1 1 0 0 1 .68-.88c1.22-.48 2.42-1 3.62-1.5a1 1 0 0 1 1.15.14c.56.44 1.15.84 1.7 1.24L37.53 34c-.42-.58-.84-1.19-1.29-1.78a.93.93 0 0 1-.12-1c.45-1.06.94-2.11 1.31-3.2a1.6 1.6 0 0 1 1.63-1.25 12.55 12.55 0 0 0 1.61-.26z"/><path class="a" d="M36.33 24c-.24 5-2.48 8.78-7 11a12.09 12.09 0 0 1-13.66-2 12 12 0 0 1-3.9-8 12.27 12.27 0 0 1 1.44-6.95.74.74 0 0 1 .79-.47.66.66 0 0 1 .57.62 1.54 1.54 0 0 1-.2.66 10.91 10.91 0 0 0-1.12 3.51 10.86 10.86 0 0 0 8.84 12.33A10.88 10.88 0 0 0 27 13.52a10.66 10.66 0 0 0-7.63.66l-.36.16a.7.7 0 1 1-.57-1.28 15.35 15.35 0 0 1 1.79-.74A12 12 0 0 1 31 13.92a11.89 11.89 0 0 1 5.14 8.32c.1.58.13 1.17.19 1.76z"/><path class="a" d="M24.73 17.31V32a5.61 5.61 0 0 0 3.07-1.32 5.85 5.85 0 0 0 2-5.83v-.18c-.07-.52.14-.87.56-.94s.73.21.84.72a7.38 7.38 0 1 1-13-2.86c1.7-2.27 3.48-4.48 5.24-6.71a.71.71 0 0 1 1.24 0L27.81 19a.73.73 0 0 1 0 1.09.74.74 0 0 1-1.08-.23c-.56-.72-1.12-1.45-1.69-2.17zM23.29 32v-1.29a.84.84 0 0 0-.21-.51c-1-1-2-2-3-3.06a.73.73 0 0 1-.1-1.07.72.72 0 0 1 1.09.07l1.95 2 .32.29a18.93 18.93 0 0 1 0-2.14 2.27 2.27 0 0 0-.96-2.29 7.94 7.94 0 0 1-.83-.81c-.38-.39-.42-.82-.11-1.12s.72-.26 1.12.13c.17.16.33.33.5.5l.23.18v-5.54l-.15.17c-1.29 1.65-2.6 3.29-3.87 4.95a6 6 0 0 0 4 9.55z"/><path class="a" d="M28.92 26.76a4.51 4.51 0 0 1-1.18 2.45 4.78 4.78 0 0 1-.58.52.69.69 0 0 1-1-.05.67.67 0 0 1 .1-1 3.72 3.72 0 0 0 1-1.36c.11-.28.18-.58.28-.87a.67.67 0 0 1 .78-.46.73.73 0 0 1 .6.77zM15.84 15.07a.71.71 0 0 1 .7.69.77.77 0 0 1-.74.74.71.71 0 0 1-.7-.69.77.77 0 0 1 .74-.74zM29.87 21.89a.7.7 0 0 1-.7.69.74.74 0 0 1-.7-.74.72.72 0 0 1 .73-.67.7.7 0 0 1 .67.72z"/></svg>