<svg version="1.1" id="Capa_1" xmlns="http://www.w3.org/2000/svg" x="0" y="0" viewBox="0 0 48 48" style="enable-background:new 0 0 48 48" xml:space="preserve"><style>.st1{fill:#ccc}</style><switch><g><path class="st1" d="M43.19 30.84c-.05.26-.08.51-.14.77-.26 1.12-.96 1.83-2.03 2.17-1.08.35-1.08.34-1.08 1.46 0 1.56 0 3.11.01 4.67v.42c-.16-.11-.27-.18-.37-.26-2.38-1.76-4.75-3.52-7.12-5.29-.73-.53-1.52-.78-2.42-.78-3.91 0-7.81-.01-11.72-.05-.82-.01-1.64-.17-2.45-.26-.03-.04-.06-.08-.08-.13.08-.14.13-.33.25-.42.91-.7 1.82-1.4 2.76-2.07.2-.14.48-.24.73-.24 2.22-.03 4.43-.04 6.65-.04 1.77 0 3.55.03 5.32.02.69 0 1.29.2 1.84.6 1 .74 2 1.48 3.01 2.22.11.08.23.17.41.29V30.8h3.11V16.41c-.07-.01-.15-.03-.23-.03-1.17.01-2.35.04-3.52.02-.61-.01-.79.32-.89.86-.03.17-.01.36-.02.54-.02 2.23-.02 4.46-.07 6.68-.03 1.45-.8 2.52-2.01 2.84-.58.15-1.2.22-1.81.23-3.93.03-7.86.04-11.79.04-.91 0-1.71.27-2.44.81-2.1 1.57-4.21 3.13-6.31 4.69-.37.28-.76.53-1.23.85v-.44c0-1.69.01-3.38 0-5.07 0-.62-.17-.82-.78-.98C7.24 27.03 6.4 26 6.4 24.4c-.02-4.79-.02-9.58 0-14.38.01-1.97 1.31-3.2 3.28-3.2h22.17c1.96 0 3.23 1.25 3.29 3.21.02.78 0 1.56.01 2.33.01.64.24.86.88.86 1.23 0 2.47-.02 3.7-.01 1.08.01 2.06.3 2.76 1.2.36.45.55.98.62 1.55.02.14.05.28.07.42.01 4.82.01 9.64.01 14.46zm-30.36-3.3c.2-.15.33-.24.45-.33l2.91-2.16c.56-.41 1.17-.62 1.87-.62 4.46 0 8.91-.01 13.37-.01.42 0 .49-.07.52-.48.01-.1 0-.19 0-.29.01-4.18.02-8.36.02-12.54 0-1.02-.09-1.11-1.13-1.11H10.79c-.17 0-.34 0-.5.02-.52.05-.7.23-.74.74-.01.12-.01.24-.01.36 0 4.07.01 8.15.02 12.22 0 .37.05.73.08 1.13h3.18c.01 1 .01 1.99.01 3.07z"/><path class="st1" d="M21.51 15.59c.97 0 1.76.79 1.76 1.75s-.8 1.77-1.76 1.77-1.76-.8-1.76-1.77.79-1.75 1.76-1.75zM13.78 17.33c0-.98.78-1.75 1.76-1.75.97 0 1.76.8 1.76 1.76-.01.95-.82 1.76-1.77 1.76-.97 0-1.76-.79-1.75-1.77zM27.51 15.59c.98 0 1.75.79 1.74 1.77 0 .97-.81 1.76-1.77 1.75-.96-.01-1.76-.83-1.75-1.78.01-.97.8-1.75 1.78-1.74z"/></g></switch></svg>