<svg version="1.1" id="Capa_1" xmlns="http://www.w3.org/2000/svg" x="0" y="0" viewBox="0 0 48 48" style="enable-background:new 0 0 48 48" xml:space="preserve"><style>.st13{fill:gray}</style><switch><g><path class="st13" d="M40.27 43.27c-.61-.2-1.07-.61-1.51-1.06-1.39-1.4-2.79-2.79-4.19-4.19-.1-.1-.18-.22-.28-.34-1.15.69-2.33 1.18-3.6 1.44-2.39.49-4.7.24-6.94-.73-.28-.12-.6-.19-.9-.19-4.6-.01-9.21 0-13.81-.01-2.22 0-4-1.44-4.44-3.57-.08-.37-.1-.75-.1-1.13V7.88c0-2.32 1.32-4.08 3.45-4.58.38-.09.78-.12 1.16-.12 5.74-.01 11.48-.01 17.23 0 2.68 0 4.6 1.91 4.61 4.58.01 2.98 0 5.95 0 8.93v.47c3.66 1 6.34 3.17 7.79 6.66 1.46 3.49 1.1 6.91-.78 10.21.63.63 1.26 1.25 1.89 1.88.11.11.23.22.33.34.23.26.23.58.02.81-.23.25-.57.27-.84.02-.35-.32-.67-.66-1-.99-.35-.35-.68-.72-.94-.99-.71.72-1.37 1.4-2.04 2.08 1.48 1.48 3.07 3.08 4.68 4.67.37.37.85.35 1.23 0 .28-.26.55-.52.8-.8.35-.38.35-.85-.01-1.23-.32-.34-.67-.66-.99-1-.29-.3-.31-.65-.06-.9.26-.25.58-.23.9.08.35.34.69.68 1.02 1.03.76.81.79 1.98.03 2.8-.55.6-1.09 1.25-1.93 1.47-.26-.03-.52-.03-.78-.03zM29.78 16.96V7.82c0-2.1-1.39-3.47-3.5-3.47H9.21c-2.15 0-3.53 1.37-3.53 3.52v25.65c0 .32.02.66.09.97.36 1.54 1.64 2.53 3.29 2.53 3.99.01 7.98 0 11.97 0 .1 0 .2-.01.36-.02-.33-.3-.64-.54-.9-.82-.24-.27-.51-.34-.86-.34-3.47.01-6.93-.03-10.4.02-1.35.02-2.4-.89-2.4-2.37.03-6.24.01-12.48.01-18.72 0-.14 0-.29.03-.43.07-.31.28-.46.6-.44.3.02.48.19.53.48.02.17.02.34.02.51v18.6c0 .87.31 1.18 1.18 1.18h9.54c.12 0 .24-.01.41-.02-1.6-2.31-2.26-4.82-2.04-7.58h-5.5c-.13 0-.27.01-.39-.02-.28-.07-.46-.25-.47-.55-.01-.32.16-.52.46-.59.12-.03.26-.02.39-.02 1.78 0 3.56 0 5.34-.01.13 0 .35-.07.37-.15.2-.6.36-1.22.54-1.86H11.65c-.13 0-.26 0-.39-.01-.3-.04-.48-.22-.51-.51-.03-.31.12-.53.43-.61.15-.04.31-.04.47-.04 2.16 0 4.32 0 6.47-.01.14 0 .34-.03.41-.12.43-.6.84-1.22 1.28-1.87h-8.17c-.14 0-.29 0-.43-.03-.31-.07-.48-.27-.46-.59.01-.31.2-.5.51-.54.14-.02.29-.01.43-.01 2.98 0 5.96 0 8.95.01.3 0 .54-.08.78-.26 1.67-1.3 3.55-2.08 5.66-2.3.33-.03.33-.19.33-.44V10c0-.76.01-1.51 0-2.27-.01-.66-.37-1-1.03-1.01-.8-.01-1.6 0-2.39 0-.09 0-.17.02-.25.03-.37 1.55-1.35 2.33-2.92 2.33-2.13 0-4.26.01-6.4-.01-1.32-.01-2.34-.85-2.65-2.13-.02-.07-.05-.14-.08-.22H9.28C8.35 6.7 8.04 7 8.04 7.94v4.11c0 .4-.24.66-.57.66-.32.01-.59-.24-.59-.6-.02-1.56-.05-3.11.01-4.66.05-1.12.96-1.91 2.09-1.92 1.06-.01 2.12 0 3.18 0 .51 0 .7.2.72.71.03 1.04.64 1.65 1.68 1.65 2.11.01 4.21 0 6.32 0 1.05 0 1.65-.59 1.7-1.63.03-.56.21-.73.78-.73.95 0 1.91.04 2.86-.01 1.29-.07 2.41.84 2.38 2.38-.05 2.83-.01 5.66-.01 8.5v.47c.42.02.78.05 1.19.09zM18.26 28.11c-.01 5.55 4.5 10.06 10.06 10.08 5.58.02 10.13-4.5 10.13-10.06.01-5.54-4.52-10.07-10.07-10.08-5.58-.01-10.11 4.49-10.12 10.06z"/><path class="st13" d="M17.78 16.33c2.05 0 4.1-.01 6.16.01.21 0 .45.06.6.19.12.1.19.38.14.52-.07.18-.27.32-.45.43-.1.06-.25.02-.39.02H11.4c-.4-.02-.65-.24-.66-.58-.01-.36.25-.59.67-.59h6.37zM18.41 14.31h-5.37c-.12 0-.24.01-.35-.01-.3-.04-.47-.22-.51-.51-.03-.29.11-.51.39-.6.15-.05.31-.05.46-.05h10.82c.13 0 .26-.01.39.02.3.07.49.27.47.59-.01.33-.2.53-.54.56-.12.01-.23.01-.35.01-1.81-.01-3.61-.01-5.41-.01zM17.74 6.7h-2.7c-.45 0-.72-.23-.71-.6.01-.35.27-.58.7-.58h5.4c.46 0 .71.22.71.6-.01.38-.26.58-.73.58-.89.01-1.78 0-2.67 0zM13.39 29.09c.64 0 1.28-.01 1.92 0 .43 0 .68.24.67.59-.01.33-.26.58-.66.58-1.3.01-2.61.01-3.91 0-.4 0-.65-.24-.65-.58-.01-.35.25-.58.67-.59.65-.01 1.31 0 1.96 0zM19.91 28.11c.01-4.66 3.8-8.42 8.48-8.41 4.64.01 8.43 3.81 8.42 8.44-.01 4.65-3.82 8.43-8.49 8.41-4.66-.02-8.42-3.8-8.41-8.44zm1.18.01c0 4 3.24 7.25 7.25 7.25s7.27-3.24 7.29-7.23c.01-4-3.26-7.28-7.28-7.27-4.01.01-7.26 3.25-7.26 7.25z"/><path class="st13" d="M32.55 32.3c-.18.16-.34.38-.55.46-.29.11-.54-.06-.66-.35-.21-.51-.4-1.02-.58-1.54-.08-.22-.19-.29-.43-.29-1.32.01-2.64.01-3.96 0-.26 0-.37.09-.45.32-.17.48-.35.95-.54 1.42-.16.39-.47.55-.8.42-.31-.13-.45-.44-.3-.82 1.1-2.9 2.21-5.79 3.32-8.69.13-.35.38-.56.77-.56.38.01.62.22.76.57 1.09 2.87 2.18 5.75 3.26 8.62.04.11.06.22.09.34.03.04.05.07.07.1zm-6.03-2.91h3.68c-.61-1.61-1.2-3.18-1.83-4.84-.64 1.66-1.24 3.23-1.85 4.84z"/></g></switch></svg>