<svg version="1.1" id="Capa_1" xmlns="http://www.w3.org/2000/svg" x="0" y="0" viewBox="0 0 48 48" style="enable-background:new 0 0 48 48" xml:space="preserve"><style></style><switch><g><path d="M41.94 37.42c-.6-1.85-1.44-3.56-2.53-5.08-1.14-1.58-2.51-3-4.07-4.21-.88-.67-2-1.13-3.05-1.65.48-.38 1.03-.68 1.44-1.11.96-1 1.74-2.11 2.3-3.26.64-1.26 1.07-2.57 1.27-3.88.11-.73.19-1.46.19-2.2V16c-.01-1.41-.23-2.83-.64-4.09-.43-1.33-1.04-2.55-1.81-3.63-.41-.58-.86-1.13-1.37-1.66-.49-.5-1.03-.96-1.59-1.39-1.02-.78-2.21-1.42-3.54-1.91-1.28-.47-2.66-.73-4.08-.79-1.39-.11-2.82.1-4.18.5-1.28.35-2.55.92-3.67 1.66-1.17.78-2.17 1.67-2.97 2.65-.46.55-.89 1.13-1.25 1.75-.37.62-.68 1.28-.94 1.93-.51 1.21-.82 2.56-.93 4.03-.11 1.37.02 2.82.36 4.22a13.592 13.592 0 0 0 4.1 6.8c.21.18.44.26.65.43-.63.32-1.34.49-1.93.88a18.8 18.8 0 0 0-4.2 3.74c-.62.76-1.2 1.55-1.69 2.38-.51.86-.94 1.74-1.31 2.66-.72 1.75-1.15 3.65-1.3 5.63-.05.6.03 1.14.09 1.61.03.24.07.49.08.72l.07 1.38h3.61l1.51-.24-.08-1.52c-.04-.79-.09-1.6 0-2.37.17-1.2.5-2.38.94-3.48.47-1.08 1.07-2.12 1.77-3.05.72-.91 1.56-1.75 2.48-2.47.93-.71 1.96-1.31 3.04-1.78 1.11-.45 2.29-.78 3.46-.95 1.22-.12 2.47-.12 3.65 0 1.21.17 2.39.5 3.48.94 1.1.49 2.13 1.08 3.05 1.77.94.74 1.77 1.58 2.48 2.47.72.95 1.32 1.99 1.78 3.04.47 1.16.8 2.36.96 3.52.07.6.12 1.2.12 1.79 0 .15-.02.29-.03.44l-.11 1.88h3.83l1.39-.28.07-1.37c.03-.23.05-.45.05-.68-.05-1.94-.36-3.94-.95-5.74zm-26.21-22.5c.11-.72.3-1.43.57-2.12.29-.64.64-1.26 1.06-1.83.45-.56.95-1.08 1.51-1.52.54-.41 1.12-.76 1.74-1.04.69-.29 1.4-.5 2.1-.62.84-.09 1.68-.09 2.52 0 .7.12 1.41.33 2.1.61.62.29 1.2.64 1.76 1.05.55.45 1.06.96 1.5 1.52.42.56.77 1.19 1.06 1.83.27.69.46 1.39.57 2.11a10.506 10.506 0 0 1 0 2.23c-.12.76-.32 1.49-.61 2.19-.28.61-.63 1.2-1.02 1.74a9.5 9.5 0 0 1-1.52 1.52c-.6.46-1.26.84-1.94 1.13a8.409 8.409 0 0 1-6.31 0c-.69-.29-1.34-.67-1.93-1.12-.58-.46-1.09-.97-1.53-1.53-.4-.54-.74-1.13-1.02-1.74-.29-.71-.5-1.46-.61-2.21-.08-.74-.08-1.46 0-2.2z" style="fill:#999"/></g></switch></svg>