<svg version="1.1" id="Capa_1" xmlns="http://www.w3.org/2000/svg" x="0" y="0" viewBox="0 0 48 48" style="enable-background:new 0 0 48 48" xml:space="preserve"><style></style><switch><g><path d="M16.13 20.31c-3.62 0-6.56 2.93-6.56 6.55 0 3.62 2.93 6.56 6.56 6.56 3.62 0 6.55-2.93 6.55-6.56 0-3.62-2.93-6.55-6.55-6.55zm0 11.25a4.7 4.7 0 0 1 0-9.4 4.7 4.7 0 0 1 0 9.4z"/><path d="m27.31 23.48.91-1.97-1.29-2.24-2.1-.2c-.22-.25-.46-.49-.7-.72l-.2-2.17-2.24-1.29-1.91.87c-.32-.1-.64-.2-.97-.27l-1.26-1.77h-2.59l-1.22 1.72c-.33.07-.66.15-.98.25l-1.98-.9-2.24 1.29-.2 2.1c-.25.22-.49.46-.71.7l-2.17.2-1.3 2.24.87 1.91c-.1.32-.19.64-.27.97l-1.77 1.26v2.59l1.71 1.22c.07.33.15.66.25.98l-.9 1.98 1.3 2.24 2.1.2c.22.25.46.49.7.71l.21 2.17 2.24 1.3 1.91-.87c.32.1.64.2.97.27l1.26 1.77h2.59l1.22-1.71c.33-.07.66-.15.98-.25l1.97.9 2.24-1.3.2-2.1c.25-.22.49-.46.72-.7l2.17-.21 1.29-2.24-.88-1.91c.1-.32.2-.64.27-.97l1.77-1.26v-2.59l-1.72-1.22c-.07-.34-.15-.66-.25-.98zM16.13 35.23c-4.62 0-8.37-3.75-8.37-8.37 0-4.62 3.75-8.37 8.37-8.37 4.62 0 8.37 3.75 8.37 8.37 0 4.62-3.75 8.37-8.37 8.37zM36.21 14.31a4.479 4.479 0 1 0 0 8.96c2.48 0 4.48-2 4.48-4.48.01-2.48-2-4.48-4.48-4.48zm0 7.69C34.44 22 33 20.56 33 18.79s1.44-3.21 3.21-3.21 3.21 1.44 3.21 3.21S37.99 22 36.21 22z"/><path d="M45.2 19.74v-1.77l-1.17-.83c-.05-.23-.11-.45-.17-.67l.62-1.35-.88-1.53-1.44-.14c-.15-.17-.31-.33-.48-.49l-.14-1.48L40 10.6l-1.31.6c-.22-.07-.44-.13-.66-.18l-.86-1.22H35.4l-.83 1.17c-.23.05-.45.11-.67.17l-1.35-.62-1.53.89-.14 1.43c-.17.15-.33.31-.49.48l-1.48.14-.88 1.54.6 1.31c-.07.22-.13.44-.19.66l-1.21.86v1.77l1.17.83c.05.23.1.45.17.67l-.62 1.35.89 1.53 1.43.14c.15.17.31.33.48.49l.14 1.48 1.53.89 1.31-.6c.22.07.44.13.67.19l.86 1.21h1.77l.83-1.17c.23-.05.45-.1.67-.17l1.35.62 1.53-.89.14-1.44c.17-.15.33-.31.49-.48l1.48-.14.89-1.53-.6-1.31c.07-.22.14-.44.19-.67l1.2-.86zm-8.99 4.77c-3.16 0-5.72-2.56-5.72-5.72 0-3.16 2.56-5.72 5.72-5.72 3.16 0 5.72 2.56 5.72 5.72.01 3.16-2.56 5.72-5.72 5.72z"/></g></switch></svg>