<svg version="1.1" id="Capa_1" xmlns="http://www.w3.org/2000/svg" x="0" y="0" viewBox="0 0 48 48" style="enable-background:new 0 0 48 48" xml:space="preserve"><style>.st13{fill:gray}</style><switch><g><path class="st13" d="M42.1 22.96h3.58c-2.15 2.82-4.25 5.57-6.37 8.35-2.12-2.77-4.21-5.52-6.37-8.34h3.5c.18-4.87-3.57-10.85-9.98-12.17-7.21-1.48-14.05 3.16-15.23 10.36-.63 3.83.31 7.31 2.83 10.28 2.52 2.97 5.79 4.43 9.69 4.55v5.52c-7.41.22-15.94-5.07-17.93-14.64-1.98-9.52 4.06-19.09 13.5-21.4 3.66-.9 7.27-.72 10.81.59 3.54 1.31 6.4 3.52 8.59 6.59 2.18 3.08 3.28 6.52 3.38 10.31zM39.34 42.79c-2.16.04-4.01-1.74-4.04-3.9-.04-2.24 1.7-4.07 3.91-4.12a4.021 4.021 0 0 1 4.11 3.93c.05 2.23-1.72 4.04-3.98 4.09z"/></g></switch></svg>