<svg version="1.1" id="Capa_1" xmlns="http://www.w3.org/2000/svg" x="0" y="0" viewBox="0 0 48 48" style="enable-background:new 0 0 48 48" xml:space="preserve"><style></style><switch><g><path d="M24.03 12.42c-3.96 0-7.53 1.59-10.14 4.19a14.19 14.19 0 0 0-4.18 10.12c0 3.96 1.59 7.52 4.18 10.12 2.6 2.59 6.17 4.15 10.14 4.15 3.95 0 7.52-1.56 10.13-4.15 2.58-2.6 4.15-6.17 4.15-10.12 0-3.99-1.57-7.54-4.15-10.12-2.61-2.6-6.18-4.19-10.13-4.19zm0 22.63c-.4 0-.72-.2-1.01-.49-.27-.25-.4-.58-.4-.97v-5.42h-5.48c-.32 0-.72-.13-.95-.42-.29-.27-.42-.59-.42-1.01 0-.39.14-.77.42-1 .23-.26.62-.39.95-.39h5.48v-5.49c0-.32.13-.71.4-.94.22-.26.61-.38 1.01-.38.42 0 .74.12 1 .38.29.23.42.61.42.94v5.49h5.42c.35 0 .71.12.96.39.27.24.49.62.49 1 0 .43-.22.75-.49 1.01-.25.29-.61.42-.96.42h-5.42v5.42c0 .39-.13.72-.42.97-.26.29-.58.49-1 .49zm0 8.82c-4.71 0-8.99-1.91-12.1-5.03-3.13-3.08-5.04-7.37-5.04-12.11 0-4.7 1.92-8.99 5.04-12.11 3.11-3.11 7.39-5.03 12.1-5.03 4.74 0 9.02 1.92 12.1 5.03 3.12 3.11 5.03 7.4 5.03 12.11 0 4.74-1.92 9.02-5.03 12.11-3.08 3.13-7.36 5.03-12.1 5.03z" style="fill-rule:evenodd;clip-rule:evenodd;fill:gray"/></g></switch></svg>