<svg version="1.1" id="Capa_1" xmlns="http://www.w3.org/2000/svg" x="0" y="0" viewBox="0 0 48 48" style="enable-background:new 0 0 48 48" xml:space="preserve"><style>.st13{fill:gray}</style><switch><g><path class="st13" d="M31.16 23.25c.12-.41.21-.78.33-1.14.02-.07.13-.14.22-.17.96-.39 1.93-.78 2.9-1.16.18-.07.25-.15.25-.35-.01-.57-.01-1.15 0-1.72 0-.2-.05-.3-.25-.38-.96-.37-1.91-.76-2.87-1.14a.4.4 0 0 1-.28-.32c-.29-1.23-.77-2.39-1.43-3.47a.435.435 0 0 1-.02-.37c.4-.97.82-1.93 1.24-2.89.07-.17.06-.27-.07-.4-.43-.41-.85-.83-1.26-1.26-.12-.13-.22-.13-.38-.07-.96.42-1.93.83-2.89 1.24-.15.07-.26.06-.4-.02a11.3 11.3 0 0 0-3.47-1.44.42.42 0 0 1-.34-.3c-.38-.96-.76-1.91-1.14-2.87-.07-.18-.15-.25-.35-.25-.58.01-1.17.01-1.75 0-.19 0-.27.06-.34.23-.37.96-.76 1.91-1.14 2.87a.47.47 0 0 1-.36.32c-1.23.29-2.39.77-3.47 1.44a.47.47 0 0 1-.35.01c-.98-.41-1.95-.82-2.92-1.25-.16-.07-.26-.04-.38.08-.4.43-.82.85-1.25 1.26-.12.12-.14.21-.07.37.42.96.83 1.93 1.25 2.89.06.15.07.26-.02.4-.66 1.05-1.14 2.18-1.42 3.39-.05.23-.17.35-.39.43-.94.36-1.88.75-2.82 1.12-.17.07-.23.15-.23.34.01.57.01 1.15 0 1.72-.01.21.06.3.25.38.95.37 1.9.75 2.85 1.13.18.07.28.16.33.35.29 1.24.77 2.39 1.44 3.47.05.09.06.25.02.35-.41.98-.82 1.95-1.25 2.92-.07.16-.06.26.07.38.43.41.85.83 1.26 1.26.13.14.24.14.4.07.95-.42 1.91-.82 2.86-1.23.15-.06.26-.08.4.02 1.07.68 2.23 1.15 3.47 1.44a.4.4 0 0 1 .32.28c.37.95.76 1.9 1.13 2.85.08.2.17.28.39.27.58-.02 1.17-.01 1.75-.01h.31v1.23c-.09 0-.19.01-.28.01-.88 0-1.77 0-2.65.01-.19 0-.26-.07-.33-.24-.41-1.04-.82-2.07-1.25-3.1a.585.585 0 0 0-.29-.27c-.92-.27-1.81-.64-2.64-1.11-.15-.09-.27-.08-.43-.01-1.02.45-2.04.88-3.06 1.32-.16.07-.25.06-.38-.07-.81-.82-1.62-1.63-2.44-2.44-.14-.13-.14-.24-.07-.4.44-1.01.87-2.03 1.31-3.04.07-.17.07-.3-.02-.46-.47-.83-.84-1.7-1.08-2.62-.05-.17-.14-.25-.3-.31-1.03-.4-2.06-.82-3.08-1.21-.19-.07-.24-.17-.24-.36.01-1.14.01-2.28 0-3.42 0-.17.06-.25.22-.32 1.04-.41 2.08-.83 3.12-1.26.11-.04.22-.16.25-.27.28-.93.65-1.82 1.11-2.67.06-.11.06-.28.02-.4-.43-1.03-.86-2.05-1.31-3.07-.08-.17-.07-.27.07-.4.81-.79 1.61-1.59 2.4-2.4.14-.14.25-.18.44-.09 1.01.45 2.03.87 3.04 1.31.16.07.28.06.43-.02.83-.47 1.7-.84 2.62-1.09a.41.41 0 0 0 .32-.29c.4-1.04.83-2.06 1.23-3.1.07-.18.16-.22.34-.22 1.13.01 2.26.01 3.39 0 .21 0 .3.07.38.26.4 1.03.81 2.05 1.23 3.07.05.11.18.24.29.27.92.27 1.81.64 2.64 1.11.15.09.28.09.43.02 1.02-.44 2.05-.87 3.06-1.32.16-.07.25-.05.38.07.81.82 1.63 1.64 2.46 2.46.12.12.12.21.06.36-.45 1.03-.89 2.06-1.33 3.09-.06.15-.06.26.02.41.47.84.85 1.72 1.1 2.65.05.17.14.25.3.31 1.03.41 2.06.83 3.1 1.24.16.06.22.14.22.32-.01 1.15-.01 2.3 0 3.45 0 .19-.07.27-.24.33-1.04.41-2.07.82-3.1 1.24-.11.04-.18.18-.28.26-.06.05-.13.13-.2.14-.34-.02-.71-.03-1.11-.03z"/><path class="st13" d="M44.7 44.17H22.53V27.1c0-1.57 1.05-2.62 2.63-2.62h16.99c1.26 0 2.26.8 2.5 1.99.03.16.04.33.04.49v16.96c.01.07.01.14.01.25zm-1.22-1.23V27.13c0-.94-.48-1.41-1.41-1.41H25.11c-.84 0-1.33.49-1.33 1.32v15.9h19.7zM20.11 15.24c2.38.02 4.29 1.97 4.27 4.36-.02 2.36-1.98 4.27-4.35 4.26a4.315 4.315 0 0 1-4.27-4.34c.03-2.39 1.97-4.3 4.35-4.28zm.02 7.38c1.72-.04 3.05-1.43 3.01-3.13-.04-1.73-1.43-3.05-3.16-3.02-1.7.04-3.03 1.45-2.99 3.16a3.07 3.07 0 0 0 3.14 2.99zM17.27 26.99a.62.62 0 0 1-.64-.61c0-.33.27-.61.6-.62.35-.01.63.26.63.6 0 .35-.26.62-.59.63zM26.29 16.7c0-.33.28-.6.61-.6.34 0 .62.29.61.64-.01.33-.28.6-.61.6a.62.62 0 0 1-.61-.64zM13.26 22.99a.617.617 0 0 1-.63-.61c0-.33.26-.6.6-.61.35-.01.63.27.63.61.01.33-.27.61-.6.61zM17.86 12.73c0 .34-.29.62-.63.61a.626.626 0 0 1-.6-.62c0-.33.3-.62.64-.61.32.01.59.29.59.62zM23.52 12.71c.01.34-.27.63-.61.63-.33 0-.6-.27-.61-.6-.01-.34.25-.62.58-.63.34-.02.63.26.64.6zM13.25 17.34c-.33 0-.62-.27-.62-.59-.01-.34.28-.64.61-.64.33 0 .61.27.62.6.02.33-.27.62-.61.63zM25.27 14.94a.62.62 0 0 1-.59-.63.6.6 0 0 1 .65-.59c.33.02.59.31.58.64-.02.34-.3.59-.64.58zM27.47 18.94c.34 0 .62.29.61.63a.61.61 0 0 1-.62.59c-.34 0-.62-.29-.61-.63.01-.33.29-.6.62-.59zM20.68 12.19c-.02.34-.29.59-.63.58a.623.623 0 0 1-.6-.64c.02-.33.3-.59.63-.59.35.01.62.31.6.65zM15.46 24.78c0 .34-.28.61-.61.61-.33 0-.61-.28-.61-.61 0-.35.28-.63.63-.62.32.01.59.29.59.62zM20.68 26.95c-.01.34-.29.62-.63.61a.617.617 0 0 1-.59-.62c0-.34.3-.62.64-.61.33.01.59.29.58.62zM12.67 20.16a.621.621 0 0 1-.61-.62c0-.34.29-.62.64-.61.33.01.6.3.59.63a.6.6 0 0 1-.62.6zM14.86 13.71c.34 0 .6.27.61.61 0 .34-.29.63-.63.62a.606.606 0 0 1-.59-.63c-.01-.33.27-.6.61-.6zM27.51 22.38c0 .35-.28.62-.63.62a.61.61 0 1 1 .03-1.22c.35 0 .6.26.6.6z"/><path class="st13" d="m33.45 30.81.9.84c-1.42 1.37-2.83 2.73-4.26 4.12l-2.44-2.5c.28-.3.54-.59.8-.88.56.54 1.12 1.06 1.69 1.61l3.31-3.19zM30.13 39.55l3.33-3.21c.29.28.58.56.88.86-1.42 1.37-2.82 2.73-4.18 4.03-.87-.82-1.73-1.62-2.56-2.41.31-.32.58-.61.83-.87.56.53 1.12 1.06 1.7 1.6zM32.39 29.4c-.35 0-.62-.28-.62-.62 0-.33.28-.6.61-.6.34 0 .62.28.62.63 0 .32-.27.59-.61.59zM24.99 29.4a.61.61 0 0 1-.6-.61c0-.35.28-.62.63-.62.33 0 .6.28.6.61-.01.35-.28.62-.63.62zM27.47 28.17a.61.61 0 1 1-.01 1.22c-.34 0-.61-.27-.61-.6 0-.34.28-.62.62-.62zM29.92 29.4c-.33 0-.61-.27-.62-.6-.01-.34.27-.63.61-.63.34 0 .62.28.62.63.01.33-.27.6-.61.6zM34.85 28.18a.61.61 0 1 1 .01 1.22c-.35 0-.62-.28-.62-.62 0-.33.27-.6.61-.6zM37.28 29.4a.625.625 0 0 1-.58-.66c.02-.33.31-.58.65-.56.34.02.6.32.58.66-.03.33-.31.58-.65.56zM39.78 29.4c-.35 0-.62-.28-.62-.62 0-.33.28-.6.61-.6.34 0 .61.27.62.6.01.34-.27.62-.61.62zM42.25 29.4a.62.62 0 0 1-.63-.59.62.62 0 0 1 .61-.64c.34-.01.62.25.62.59.01.35-.26.64-.6.64z"/></g></switch></svg>