<svg version="1.1" id="Capa_1" xmlns="http://www.w3.org/2000/svg" x="0" y="0" viewBox="0 0 48 48" style="enable-background:new 0 0 48 48" xml:space="preserve"><style>.st0{fill:#999}</style><switch><g><path class="st0" d="M45.26 17.8c-.13-.38-.29-.78-.53-1.11-.37-.51-.68-.82-1.19-1.19-.33-.24-.71-.39-1.09-.52-.11-.04-.22-.07-.33-.08-.3-.05-.61-.1-.91-.11H37c-.15-.7-.34-1.4-.59-2.08-.47-1.28-1.06-2.54-1.84-3.66-.75-1.08-1.6-2.09-2.62-2.93-.56-.46-1.15-.9-1.77-1.28-.62-.37-1.28-.66-1.95-.93-.51-.21-1.05-.37-1.59-.49-.45-.1-.91-.16-1.36-.21-.28-.04-.56-.06-.85-.07-.14-.01-.29-.01-.43-.01-.75 0-1.5.09-2.23.22-.55.09-1.09.23-1.61.42-1.21.43-2.36 1-3.39 1.79-.58.44-1.14.89-1.66 1.42-.52.53-.98 1.12-1.43 1.72-.81 1.1-1.41 2.31-1.92 3.58-.33.81-.55 1.66-.73 2.51H6.72c-.41.02-.84.07-1.23.22-.6.22-.97.45-1.47.84-.31.25-.55.58-.78.9-.07.1-.13.2-.18.31-.12.26-.25.54-.33.82-.19.66-.16 1.34-.16 2.02v20.63c.02.4.07.84.22 1.23.1.24.21.51.35.76.14.24.33.47.5.68.25.32.59.57.92.8.09.06.19.12.29.16.26.12.54.25.82.33.57.17 1.13.16 1.71.16H41.2c.3 0 .59-.05.88-.1.12-.02.24-.05.35-.08.37-.12.77-.28 1.09-.52.51-.37.84-.69 1.21-1.2.24-.33.39-.71.52-1.09.16-.45.19-.94.19-1.42V19.04c0-.41-.05-.84-.18-1.24zm-27.89-6.95c.53-.65 1.11-1.24 1.76-1.77.58-.43 1.21-.79 1.87-1.09.64-.25 1.3-.43 1.98-.54.34-.04.69-.07 1.03-.07.35 0 .69.03 1.03.07.68.11 1.34.29 1.98.54.66.3 1.28.67 1.87 1.09.65.53 1.24 1.12 1.76 1.77.59.8 1.09 1.66 1.49 2.56.18.45.34.91.47 1.37h-17.2c.14-.47.29-.92.47-1.37.41-.9.9-1.76 1.49-2.56zM37.74 40.4H6.91c-.02 0-.04-.01-.06-.02 0-.01 0-.01-.01-.02 0-.16-.01-.32-.01-.48v-18.3c0-.83-.01-1.65 0-2.48 0-.02.01-.04.02-.06h.01c.28-.01.56-.01.84-.01h33.43c.02 0 .04.01.06.02 0 .01 0 .01.01.02 0 .16.01.32.01.48v18.3c0 .83.01 1.65 0 2.48 0 .02-.01.04-.02.06-.02.01-.04.01-.06.02h-.85c-.86-.01-1.7-.01-2.54-.01z"/><path class="st0" d="M24.01 26.31c-1.6 0-2.9 1.3-2.9 2.9 0 .94.45 1.76 1.14 2.29-.1.3-.16.63-.16.99 0 1.35.82 2.44 1.82 2.44 1.01 0 1.82-1.09 1.82-2.44 0-.3-.05-.58-.13-.85a2.902 2.902 0 0 0-1.59-5.33z"/></g></switch></svg>