<svg version="1.1" id="Capa_1" xmlns="http://www.w3.org/2000/svg" x="0" y="0" viewBox="0 0 48 48" style="enable-background:new 0 0 48 48" xml:space="preserve"><style></style><switch><g><path d="M24 8.8c-4.34 0-8.25 1.74-11.1 4.58-2.84 2.84-4.53 6.72-4.53 11.09 0 4.33 1.7 8.24 4.53 11.08 2.85 2.84 6.75 4.55 11.1 4.55 4.33 0 8.24-1.71 11.09-4.55 2.85-2.84 4.55-6.75 4.55-11.08 0-4.37-1.7-8.25-4.55-11.09A15.638 15.638 0 0 0 24 8.8zm-5.12 22.46c-.21 0-.39-.03-.59-.11-.19-.03-.32-.14-.51-.32-.31-.24-.46-.7-.46-1.1 0-.39.14-.78.46-1.02l4.13-4.17-4.33-4.29c-.25-.29-.44-.67-.44-1.04 0-.42.18-.78.44-1.13.39-.29.75-.46 1.16-.46.37 0 .75.17 1.04.46l4.31 4.3 4.32-4.33c.25-.29.68-.43 1.07-.43.35 0 .79.14 1.1.43.29.35.46.7.46 1.1 0 .39-.17.78-.46 1.07l-4.34 4.33 4.17 4.17c.28.27.46.67.46 1.07 0 .39-.18.85-.46 1.11-.14.17-.32.27-.47.32-.22.06-.43.1-.64.1-.18 0-.43-.04-.57-.1-.22-.05-.4-.14-.5-.32l-4.15-4.13-4.13 4.09c-.1.18-.29.29-.53.32-.14.05-.37.08-.54.08zM24 43.24c-5.16 0-9.85-2.09-13.25-5.51-3.38-3.37-5.52-8.07-5.52-13.25 0-5.16 2.14-9.85 5.52-13.26 3.4-3.4 8.09-5.51 13.25-5.51 5.19 0 9.88 2.1 13.25 5.51 3.42 3.41 5.52 8.11 5.52 13.26 0 5.19-2.1 9.88-5.52 13.25A18.556 18.556 0 0 1 24 43.24z" style="fill-rule:evenodd;clip-rule:evenodd;fill:gray"/></g></switch></svg>