<svg version="1.1" id="Capa_1" xmlns="http://www.w3.org/2000/svg" x="0" y="0" viewBox="0 0 48 48" style="enable-background:new 0 0 48 48" xml:space="preserve"><style>.st1{fill:#ccc}</style><switch><g><path class="st1" d="M44.47 26.03c-.37-.46-9.24-11.22-20.46-11.22-11.16 0-20.02 9.12-20.39 9.51l-.8.83-.08.09.96.83c.37.32 9.21 7.78 20.31 7.78 9.73 0 17.72-4.52 19.72-5.76.27-.17.43-.27.48-.3l1.09-.73-.83-1.03zm-28.99 3.89c-4.14-1.45-7.41-3.56-9.07-4.76-.05-.04-.1-.07-.15-.11 1.58-1.42 4.95-4.16 9.27-6a9.617 9.617 0 0 0-.72 3.65c0 3.62 1.98 6.75 4.89 8.34-1.49-.26-2.9-.65-4.22-1.12zm2.71-7.21c0-3.3 2.61-5.97 5.82-5.97 3.22 0 5.82 2.67 5.82 5.97s-2.61 5.97-5.82 5.97c-3.21 0-5.82-2.67-5.82-5.97zm21.83 4.72c-2.52 1.25-6.49 2.89-11.15 3.63l-.8.12c.63-.32 1.22-.71 1.76-1.17a9.507 9.507 0 0 0 3.39-7.3c0-.28-.01-.55-.04-.82a9.52 9.52 0 0 0-.52-2.39c4.24 2.19 7.55 5.38 9.08 7.01-.45.26-1.03.58-1.72.92z"/><path class="st1" d="M24.01 19.53c-1.72 0-3.11 1.43-3.11 3.19s1.39 3.19 3.11 3.19 3.11-1.43 3.11-3.19c0-1.77-1.39-3.19-3.11-3.19z"/></g></switch></svg>