<svg version="1.1" id="Capa_1" xmlns="http://www.w3.org/2000/svg" x="0" y="0" viewBox="0 0 48 48" style="enable-background:new 0 0 48 48" xml:space="preserve"><style>.st1{fill:#ccc}</style><switch><g><path class="st1" d="M8.09 39.67V7.84h18.16c.07.09.14.18.21.26l5.67 5.67c.15.15.21.3.21.51-.01 2.15 0 4.31 0 6.46v.36c.1.03.17.04.24.06 2.14.56 3.6 2.5 3.46 4.71-.04.7-.26 1.4-.51 2.07-.53 1.42-1.01 2.85-1.18 4.36-.06.58-.1 1.17-.15 1.78h5.7v5.59H8.09zM9.98 9.71v28.07h13.04v-3.72h5.65c-.16-1.1-.23-2.18-.48-3.22-.28-1.15-.69-2.27-1.1-3.39-.82-2.23-.05-4.19 1.31-5.34.6-.51 1.3-.84 2.06-1.01v-5.82h-5.59V9.71H9.98zm22.36 24.35.03-.25c.11-.96.18-1.92.33-2.87.21-1.39.74-2.69 1.23-3.99.23-.61.35-1.22.22-1.88-.29-1.44-1.76-2.41-3.26-2.13-1.46.26-2.5 1.7-2.22 3.13.12.58.33 1.15.54 1.71.61 1.58 1.02 3.21 1.16 4.9.04.46.07.92.11 1.39.63-.01 1.24-.01 1.86-.01zm-7.44 1.89v1.83h13.14v-1.83H24.9zm1.86-24.84v2.3h2.3c-.76-.77-1.53-1.53-2.3-2.3z"/><path class="st1" d="M11.83 33.12c.01-1.54 1.28-2.8 2.83-2.78 1.53.01 2.77 1.28 2.77 2.81a2.804 2.804 0 0 1-2.83 2.78 2.791 2.791 0 0 1-2.77-2.81zm2.78.95c.5.01.93-.41.94-.91.01-.5-.4-.94-.9-.95a.941.941 0 0 0-.96.93c0 .5.42.92.92.93zM23 22.9v1.83H11.84V22.9H23zM19.27 19.17V21h-7.42v-1.83h7.42z"/></g></switch></svg>