<svg version="1.1" id="Capa_1" xmlns="http://www.w3.org/2000/svg" x="0" y="0" viewBox="0 0 48 48" style="enable-background:new 0 0 48 48" xml:space="preserve"><style>.st13{fill:gray}</style><switch><g><path class="st13" d="M22.95 25.36c2.45-2.46 4.8-4.82 7.14-7.16 2.51-2.52 5.02-5.04 7.54-7.55 1.03-1.03 1.97-1.01 3.02.02.69.68 1.38 1.38 2.07 2.07 1.08 1.09 1.09 2.05 0 3.13-5.83 5.83-11.67 11.66-17.5 17.49-.32.32-.62.65-.95.95-.79.71-1.81.74-2.56 0-3.33-3.3-6.65-6.62-9.95-9.95-.7-.71-.7-1.77-.01-2.5a59.3 59.3 0 0 1 2.63-2.63c.82-.77 1.82-.7 2.67.15 1.94 1.96 3.88 3.93 5.9 5.98z"/><path class="st13" d="M21.57 8.42c3.08 0 6.17-.04 9.25.02.9.02 1.83.22 2.7.48.76.23.83.79.28 1.39-.29.31-.57.62-.9.89-.19.15-.46.3-.69.3-3.24-.04-6.48-.12-9.72-.15-3.4-.03-6.8-.01-10.2 0-2.51.01-4 1.48-4 3.98-.01 6.25-.01 12.5 0 18.75 0 2.09 1.54 3.69 3.62 3.7 6.38.02 12.76.02 19.14 0 2.12-.01 3.66-1.61 3.67-3.74.01-1.71.03-3.43-.01-5.14-.02-.67.18-1.16.68-1.59.34-.29.61-.67.97-.92.22-.16.6-.26.84-.18.2.06.44.42.44.65 0 2.82.13 5.65-.12 8.45-.27 3.07-3.26 5.42-6.52 5.43-4.83.02-9.65 0-14.48 0-1.56 0-3.11.02-4.67 0-3.63-.06-6.52-2.95-6.53-6.58-.02-6.3-.02-12.6 0-18.91.01-3.39 2.14-6.12 5.25-6.69 1.05-.19 2.15-.14 3.23-.15 2.6-.01 5.19 0 7.77.01 0-.01 0 0 0 0z"/></g></switch></svg>