<svg version="1.1" id="Capa_1" xmlns="http://www.w3.org/2000/svg" x="0" y="0" viewBox="0 0 48 48" style="enable-background:new 0 0 48 48" xml:space="preserve"><style></style><switch><g><path d="M13.89 5.24h3.13V3.52c0-.37.23-.71.69-.71.37 0 .71.34.71.71v1.71h3V3.52c0-.37.35-.71.71-.71.35 0 .69.34.69.71v1.71h3.15V3.52c0-.37.23-.71.68-.71.34 0 .68.34.68.71v1.71h3.03V3.52c0-.37.34-.71.69-.71.36 0 .71.34.71.71v1.71h3.11c1.17 0 2.19.6 3.02 1.28.69.83 1.17 1.85 1.17 3.02V44.5c0 .46-.26.69-.72.69H10.3c-.35 0-.69-.22-.69-.69V9.54c0-1.17.46-2.19 1.28-3.02.8-.68 1.85-1.28 3-1.28zm15.42 32.18c.35 0 .69.37.69.72 0 .34-.34.69-.71.69h-11.7c-.34 0-.68-.35-.68-.69 0-.35.34-.72.68-.72h11.72zm-10.24-6.6 1.8 1.79 8.06-4.45 5.11-5.07c.45-.45 1.05-.45 1.5 0 .35.35.35.92 0 1.4l-5.32 5.19-.23.22-15.17 8.36c-.11 0-.33.11-.45.11h-.12c-.14 0-.25-.11-.36-.11-.35-.23-.24-.23-.46-.46 0-.11-.11-.25-.11-.48 0-.23.11-.34.11-.45l8.33-15.17.25-.35 5.18-5.2c.37-.35 1.06-.35 1.41 0 .45.33.45 1.05 0 1.39l-5.1 5.22-4.43 8.06zM30.91 19.6c.22-.34.71-.34.93 0 .35.24.35.7 0 .94l-4.65 4.74c-.33.22-.67.22-1.02 0-.23-.35-.23-.8 0-1.03l4.74-4.65zm.82-12.84V8.5c0 .34-.35.71-.71.71-.35 0-.69-.38-.69-.71V6.76H27.3V8.5c0 .34-.34.71-.68.71-.46 0-.68-.38-.68-.71V6.76H22.8V8.5c0 .34-.33.71-.69.71-.36 0-.71-.38-.71-.71V6.76h-3V8.5c0 .34-.33.71-.71.71-.46 0-.69-.38-.69-.71V6.76h-3.13c-.8 0-1.48.23-1.96.82-.56.46-.91 1.14-.91 1.96v34.27h26.64V9.54c0-.82-.24-1.5-.83-1.96-.46-.6-1.15-.82-1.96-.82h-3.12z" style="fill-rule:evenodd;clip-rule:evenodd;fill:gray"/></g></switch></svg>