<svg version="1.1" id="Capa_1" xmlns="http://www.w3.org/2000/svg" x="0" y="0" viewBox="0 0 48 48" style="enable-background:new 0 0 48 48" xml:space="preserve"><style></style><switch><g><path d="M13.35 4.67h3.2V2.92c0-.38.23-.73.7-.73.38 0 .72.34.72.73v1.75h3.06V2.92c0-.38.36-.73.72-.73s.7.34.7.73v1.75h3.22V2.92c0-.38.23-.73.7-.73.35 0 .69.34.69.73v1.75h3.1V2.92c0-.38.35-.73.7-.73.37 0 .73.34.73.73v1.75h3.18c1.19 0 2.24.62 3.09 1.31.7.85 1.2 1.89 1.2 3.09v35.74c0 .47-.27.7-.74.7H9.68c-.36 0-.7-.23-.7-.7V9.07c0-1.2.47-2.24 1.31-3.09.81-.7 1.89-1.31 3.06-1.31zm15.77 32.9c.35 0 .7.38.7.74 0 .34-.35.7-.73.7H17.14c-.35 0-.7-.36-.7-.7 0-.36.34-.74.7-.74h11.98zm-10.46-6.74 1.84 1.83 8.24-4.55 5.22-5.19c.46-.46 1.07-.46 1.54 0 .36.36.36.94 0 1.43l-5.44 5.3-.24.23-15.51 8.55c-.12 0-.34.11-.46.11h-.13c-.14 0-.26-.11-.37-.11-.35-.23-.24-.23-.47-.48 0-.11-.11-.25-.11-.49 0-.23.11-.35.11-.46l8.52-15.51.25-.36 5.3-5.32c.38-.36 1.09-.36 1.44 0 .46.34.46 1.07 0 1.42l-5.22 5.34-4.51 8.26zm12.1-11.47a.57.57 0 0 1 .95 0c.36.24.36.71 0 .96l-4.76 4.85c-.34.23-.68.23-1.04 0-.23-.36-.23-.82 0-1.06l4.85-4.75zm.84-13.14V8c0 .34-.36.73-.73.73-.35 0-.7-.38-.7-.73V6.22h-3.1V8c0 .34-.34.73-.69.73-.47 0-.7-.38-.7-.73V6.22h-3.22V8c0 .34-.34.73-.7.73-.36 0-.72-.38-.72-.73V6.22h-3.06V8c0 .34-.34.73-.72.73-.47 0-.7-.38-.7-.73V6.22h-3.2c-.81 0-1.51.23-2.01.84-.58.47-.94 1.17-.94 2.01v35.04h27.24V9.07c0-.84-.24-1.54-.85-2.01-.47-.61-1.17-.84-2.01-.84H31.6z" style="fill-rule:evenodd;clip-rule:evenodd;fill:#bdbcbc"/></g></switch></svg>