<svg version="1.1" id="Capa_1" xmlns="http://www.w3.org/2000/svg" x="0" y="0" viewBox="0 0 48 48" style="enable-background:new 0 0 48 48" xml:space="preserve"><style>.st1{fill:#ccc}</style><switch><g><path class="st1" d="M43.95 33.18h-3.82c-.34 0-.62.28-.62.62v5.44H9.56V33.8c0-.34-.28-.62-.62-.62H5.11c-.34 0-.62.28-.62.62v9.89c0 .34.28.62.62.62h38.83c.34 0 .62-.28.62-.62V33.8a.608.608 0 0 0-.61-.62zM18.54 8.1h11.99c.4 0 .72-.32.72-.72V4.12c0-.4-.32-.72-.72-.72H18.54c-.4 0-.72.32-.72.72v3.26c-.01.4.32.72.72.72z"/><path class="st1" d="m16.34 26.22 6.94 8.14c.55.65 1.94.65 2.49 0l6.94-8.14 6.94-8.14c.55-.65-.14-1.46-1.25-1.46h-7.28V9.89c0-.34-.28-.62-.62-.62H18.33c-.34 0-.62.28-.62.62v6.72h-7.07c-1.11 0-1.8.81-1.25 1.46l6.95 8.15z"/></g></switch></svg>