<svg version="1.1" id="Capa_1" xmlns="http://www.w3.org/2000/svg" x="0" y="0" viewBox="0 0 48 48" style="enable-background:new 0 0 48 48" xml:space="preserve"><style>.st13{fill:gray}</style><switch><g><path class="st13" d="M24.11 39.62h-4.53c-1.96 0-3.92.01-5.88.01-.31 0-.62-.01-.91-.09-.6-.16-1.01-.73-1.05-1.37v-.25c0-10.19 0-20.39-.01-30.58 0-.94.54-1.82 1.82-1.82 7.38.03 14.75.01 22.13.01 1.25 0 1.93.67 1.93 1.92 0 5.1 0 10.2.01 15.31 0 .37-.1.62-.37.88-1.71 1.67-3.41 3.35-5.1 5.04-.1.1-.19.21-.31.34-1.77-1.14-3.67-1.44-5.66-.85a6.238 6.238 0 0 0-3.48 2.53c-1.67 2.4-1.75 6.32 1.41 8.92zm3.4-15.04h5.54c.87 0 1.56-.57 1.69-1.41.04-.29.03-.59.02-.89-.01-.94-.71-1.67-1.65-1.68-3.74-.01-7.48-.01-11.22 0-.61 0-1.08.3-1.4.83-.26.43-.23.9-.22 1.37.01 1.08.7 1.77 1.77 1.77 1.82.01 3.64.01 5.47.01zm-.03-5.97h5.54c.89 0 1.55-.52 1.71-1.38.05-.29.03-.59.03-.88-.01-.98-.72-1.71-1.7-1.71-3.72-.01-7.43-.01-11.15 0-.89 0-1.59.69-1.64 1.58-.01.2 0 .4 0 .6 0 1.1.69 1.79 1.78 1.79h5.43zm.03-6.25h5.5c.91 0 1.54-.5 1.72-1.37.06-.29.03-.59.03-.88-.01-1-.72-1.72-1.72-1.72H21.92c-.9 0-1.61.7-1.65 1.6-.01.2 0 .4 0 .6 0 1.07.7 1.77 1.77 1.77h5.47zm-11.18 8.45c-1.08 0-1.93.83-1.95 1.91-.02 1.05.86 1.92 1.94 1.92 1.06 0 1.9-.83 1.91-1.9.02-1.07-.82-1.93-1.9-1.93zm-.03-8.58c1.08.01 1.92-.82 1.93-1.91.01-1.05-.84-1.92-1.89-1.94-1.06-.01-1.94.85-1.96 1.91-.02 1.06.84 1.93 1.92 1.94zm.04 2.25a1.92 1.92 0 0 0-1.96 1.91c-.01 1.04.89 1.94 1.95 1.94 1.04 0 1.89-.87 1.91-1.93.01-1.07-.83-1.92-1.9-1.92z"/><path class="st13" d="M27.82 31.32c.85-.01 1.53.35 2.11.93.29.28.56.58.86.85.76.71 1.68.7 2.42-.04l7.41-7.41c.85-.85 1.85-1.15 3.01-.79 1.8.56 2.49 2.99 1.25 4.41-.25.28-.51.56-.77.83-3.32 3.33-6.65 6.65-9.97 9.97-.46.46-.98.8-1.64.92-.96.18-1.79-.08-2.47-.74-1.37-1.33-2.72-2.67-4.06-4.02-1.06-1.06-1.25-2.33-.52-3.57.52-.88 1.33-1.32 2.37-1.34z"/></g></switch></svg>