<svg version="1.1" id="Capa_1" xmlns="http://www.w3.org/2000/svg" x="0" y="0" viewBox="0 0 48 48" style="enable-background:new 0 0 48 48" xml:space="preserve"><style>.st13{fill:gray}</style><switch><g><path class="st13" d="M35.21 27.44c3.95.02 7.18 3.28 7.19 7.25 0 4.05-3.25 7.31-7.28 7.29-3.97-.02-7.19-3.28-7.19-7.24-.01-4.05 3.26-7.31 7.28-7.3zm-.9 8.39c-.49-.62-.77-1.18-1.21-1.46-.38-.24-.95-.17-1.44-.23.04.49-.1 1.1.14 1.45.47.68 1.16 1.2 1.74 1.8.63.66 1.19.55 1.78-.05 1.14-1.16 2.35-2.26 3.41-3.49.3-.34.21-1.02.29-1.54-.52.08-1.2-.02-1.54.27-1.03.91-1.95 1.97-3.17 3.25z"/><path class="st13" d="M35.95 26h-1.58v-1.56c0-4.68-.03-9.36.02-14.04.01-1.17-.37-1.55-1.53-1.54-5.69.04-11.38.04-17.07 0-1.14-.01-1.57.34-1.57 1.52.04 7.86.04 15.73 0 23.59-.01 1.21.47 1.52 1.58 1.5 3.17-.05 6.34.02 9.51-.04 1.11-.02 1.52.36 1.35 1.54-3.99 0-7.95.05-11.9-.03-1.35-.02-2.06-1.05-2.07-2.66-.01-5.01 0-10.02 0-15.02 0-3.04-.01-6.08.01-9.13.01-1.99.83-2.82 2.81-2.82 5.88-.01 11.75-.01 17.63 0 1.73 0 2.77.79 2.78 2.29.06 5.43.03 10.85.03 16.4z"/><path class="st13" d="M22.22 16.66c0 1.03-.03 2.05.01 3.08.03.82-.25 1.2-1.12 1.17-1.21-.05-2.42-.05-3.63 0-.89.04-1.11-.37-1.09-1.18.04-2.1.05-4.2 0-6.3-.02-.96.39-1.21 1.25-1.17 1.11.05 2.24.06 3.35 0 1.02-.06 1.3.39 1.25 1.32-.06 1.03-.02 2.05-.02 3.08zM24.37 23.47c2.24 0 4.47-.03 6.71.02.37.01.74.34 1.11.53-.36.19-.71.55-1.07.56-4.52.04-9.04.04-13.56 0-.37 0-.74-.34-1.11-.53.36-.19.71-.55 1.07-.56 2.29-.04 4.57-.02 6.85-.02zM30.48 27.62c-.69.23-1.37.65-2.06.66-3.58.07-7.16.05-10.73.01-.41 0-.82-.34-1.24-.53.4-.2.8-.57 1.21-.57 4.23-.04 8.45-.03 12.68-.03.04.16.09.31.14.46zM27.37 31.35c-.39.24-.78.67-1.18.68-2.93.06-5.87.05-8.8.01-.32 0-.64-.36-.96-.56.31-.2.63-.57.94-.58 3.26-.04 6.51-.03 9.77-.03.08.17.16.32.23.48zM28.3 17.19c-.97 0-1.95.05-2.92-.03-.34-.03-.66-.35-.99-.54.3-.21.6-.6.91-.61 1.99-.06 3.99-.05 5.98 0 .31.01.61.39.92.6-.33.19-.64.51-.98.54-.97.08-1.94.04-2.92.04zM28.16 13.41c-1.03 0-2.05.03-3.08-.03-.23-.01-.45-.34-.67-.53.22-.19.44-.55.66-.55 2.14-.04 4.29-.04 6.44 0 .23 0 .44.35.67.54-.22.19-.43.52-.66.53-1.12.07-2.24.04-3.36.04zM28.45 19.76c.98 0 1.96-.04 2.93.03.28.02.53.35.8.54-.27.19-.54.53-.82.54-2.05.05-4.1.05-6.15 0-.27-.01-.53-.36-.79-.56.27-.18.54-.5.82-.52 1.07-.07 2.14-.03 3.21-.03z"/></g></switch></svg>