<svg version="1.1" id="Capa_1" xmlns="http://www.w3.org/2000/svg" x="0" y="0" viewBox="0 0 48 48" style="enable-background:new 0 0 48 48" xml:space="preserve"><style>.st1{fill:#ccc}</style><switch><g><path class="st1" d="M44.45 17.27c-.1.44-.17.89-.3 1.31-.64 2.09-1.99 3.57-3.98 4.47-.3.13-.38.28-.38.58.01 4.14.01 8.28.01 12.42 0 1.17-.41 1.58-1.59 1.58H5.11c-1.15 0-1.56-.41-1.56-1.56V15.95c0-1.14.42-1.55 1.57-1.55 8.37 0 16.74 0 25.11.01.32 0 .48-.08.6-.4 1.11-2.91 4.18-4.79 7.21-4.45 3.32.38 5.86 2.8 6.33 6.02.01.09.05.17.08.26v1.43zm-36.62-.44 13.91 13.91s.05-.03.08-.07c3.23-3.23 6.45-6.46 9.69-9.68.19-.19.15-.32.02-.5-.64-.96-1.06-2-1.14-3.15-.03-.4-.15-.52-.56-.52-7.2.01-14.4.01-21.6.01h-.4zm7.42 10.98-7.38 7.38h27.66l-7.45-7.45c-.05.08-.12.21-.23.31-1.73 1.73-3.46 3.46-5.19 5.2-.33.33-.71.57-1.17.44-.3-.08-.61-.28-.83-.5-1.84-1.79-3.65-3.61-5.41-5.38zm-1.95-1.73-7.31-7.31v14.61c2.48-2.46 4.94-4.93 7.31-7.3zm24.08-4.87c2.55.01 4.62-2.04 4.65-4.6.03-2.54-2.08-4.66-4.63-4.67-2.54-.01-4.62 2.06-4.63 4.61a4.597 4.597 0 0 0 4.61 4.66zm-3.86 1.27-3.5 3.5c2.43 2.44 4.89 4.9 7.32 7.33v-9.66c-1.42-.05-2.7-.44-3.82-1.17z"/><path class="st1" d="M36.72 16.02c-.8.28-1.39-.09-1.29-.77.03-.18.14-.38.26-.52.38-.43.79-.83 1.18-1.24.27-.29.6-.41.97-.26.37.14.5.46.5.83 0 1.67.01 3.35 0 5.02 0 .57-.31.91-.79.91-.49.01-.82-.34-.82-.92-.02-1-.01-2.01-.01-3.05z"/></g></switch></svg>