<svg xmlns="http://www.w3.org/2000/svg" viewBox="0 0 48 48"><defs><style>.a{fill:#394146;}</style></defs><path class="a" d="M20.1,6.43h7.82c0,.78,0,1.56,0,2.34,0,.19.08.25.25.29a10.1,10.1,0,0,1,1.1.36c.88.37,1.75.77,2.71,1.19l1.68-1.7,5.5,5.5-1.76,1.74.15.28a14.53,14.53,0,0,1,1.38,3.34c.07.28.2.35.48.34.71,0,1.43,0,2.17,0v7.8h-.36c-.61,0-1.23,0-1.85,0-.24,0-.37.05-.43.3a6.4,6.4,0,0,1-.33,1.05c-.37.88-.77,1.75-1.19,2.72l1.72,1.65-5.52,5.52-1.73-1.78A15.78,15.78,0,0,1,28.06,39c-.07,0-.14.17-.14.26,0,.43,0,.85,0,1.27v1H20.12c0-.13,0-.24,0-.35,0-.62,0-1.24,0-1.86a.36.36,0,0,0-.33-.44,6.61,6.61,0,0,1-1-.32c-.89-.37-1.76-.77-2.71-1.19l-1.68,1.72L8.86,33.62l1.78-1.73A16.84,16.84,0,0,1,9,28.06c0-.07-.17-.14-.26-.14-.78,0-1.56,0-2.34,0V20.1H8.77c.18,0,.25-.08.29-.25a10.1,10.1,0,0,1,.36-1.1c.37-.88.77-1.75,1.19-2.72L8.89,14.37l5.52-5.5,1.74,1.76A16.58,16.58,0,0,1,20,9c.07,0,.14-.17.14-.26C20.11,8,20.1,7.21,20.1,6.43ZM11.79,33.59l2.65,2.64,1.43-1.46.24.14a14,14,0,0,0,5.68,2.37c.31,0,.4.17.39.49,0,.57,0,1.15,0,1.73h3.68c0-.61,0-1.19,0-1.78,0-.29.09-.38.37-.43A14.35,14.35,0,0,0,32,34.89a2.11,2.11,0,0,1,.27-.16l1.39,1.47,2.62-2.61-1.45-1.43s0-.06,0-.08l.11-.17a14.19,14.19,0,0,0,2.39-5.74c.05-.27.15-.33.4-.32h1.8V22.17c-.63,0-1.24,0-1.84,0-.23,0-.31-.06-.35-.29a14,14,0,0,0-2-5.2l-.55-.86L36.2,14.4l-2.61-2.62-1.43,1.48-.25-.15a14,14,0,0,0-5.67-2.37c-.31-.06-.41-.17-.4-.49,0-.58,0-1.16,0-1.73H22.17c0,.59,0,1.15,0,1.7,0,.35-.11.47-.44.53a13.84,13.84,0,0,0-5.56,2.31l-.38.25-1.42-1.53-2.59,2.59,1.46,1.45c0,.07,0,.1,0,.12l-.13.2a14,14,0,0,0-2.35,5.65c-.06.31-.18.4-.49.38-.58,0-1.16,0-1.73,0v3.68c.59,0,1.15,0,1.71,0,.35,0,.46.11.52.44A13.78,13.78,0,0,0,13,31.8c.07.12.15.23.23.36Z"/><path class="a" d="M35.27,24A11.26,11.26,0,1,1,24,12.75,11.31,11.31,0,0,1,35.27,24Zm-5.35,7a9.11,9.11,0,0,0,2.66-10.31,9.19,9.19,0,0,0-17.69,2.15,8.87,8.87,0,0,0,3.2,8.1V29.11a5.81,5.81,0,0,1,1.66-4.22A15.89,15.89,0,0,1,21,23.83a4.13,4.13,0,1,1,6,0l.33.23a5.77,5.77,0,0,1,2.58,4.62C30,29.45,29.92,30.19,29.92,31Zm-2.05-.64h0c0-.51,0-1,0-1.54a3.85,3.85,0,0,0-7.7,0c0,1.1,0,2.2,0,3.29a.31.31,0,0,0,.23.33,9.16,9.16,0,0,0,7.26,0,.35.35,0,0,0,.25-.38C27.87,31.51,27.87,30.93,27.87,30.36ZM26.07,21A2.06,2.06,0,1,0,24,23.05,2.08,2.08,0,0,0,26.07,21Z"/></svg>