<svg xmlns="http://www.w3.org/2000/svg" viewBox="0 0 48 48"><defs><style>.a{fill:#394146;}</style></defs><path class="a" d="M28.63,29.76,37.39,21V37.39H10.61V10.61H27l-8.75,8.75h0a4.41,4.41,0,0,0-1,2l-1.55,5.78L14.35,32A1.32,1.32,0,0,0,16,33.65l4.9-1.32,5.79-1.55a4.38,4.38,0,0,0,2-1ZM40.28,18.11V14h0l-2.89,2.89h0L26.57,27.67h0a1.5,1.5,0,0,1-.64.38,1.54,1.54,0,0,1-.77,0,1.44,1.44,0,0,1-1-1,1.46,1.46,0,0,1,.38-1.42h0L40.28,9.8h0V7.72H38.2l-2.89,2.89h0l-12.9,12.9h0A1.44,1.44,0,0,1,21,23.9a1.47,1.47,0,0,1-1-1,1.51,1.51,0,0,1,0-.76,1.49,1.49,0,0,1,.39-.66h0L31.15,10.61,34,7.72H7.72V40.28H40.28V18.11ZM18.94,25.9a4.45,4.45,0,0,0,2.33.83,4.45,4.45,0,0,0,.83,2.33l-4.31,1.15Z"/></svg>