<svg version="1.1" id="Capa_1" xmlns="http://www.w3.org/2000/svg" x="0" y="0" viewBox="0 0 48 48" style="enable-background:new 0 0 48 48" xml:space="preserve"><style>.st6{fill:#b2b2b2}</style><path class="st6" d="M37.76 2.71H11.02c-4.37 0-7.92 3.55-7.92 7.92v26.74c0 4.37 3.55 7.92 7.92 7.92h26.74c4.37 0 7.92-3.55 7.92-7.92V10.63c0-4.37-3.55-7.92-7.92-7.92zm5.66 34.66c0 3.12-2.54 5.66-5.66 5.66H11.02c-3.12 0-5.66-2.54-5.66-5.66V10.63c0-3.12 2.54-5.66 5.66-5.66h26.74c3.12 0 5.66 2.54 5.66 5.66v26.74z"/><path class="st6" d="M37.43 12.42H21.17c-.62 0-1.13.51-1.13 1.13 0 .62.51 1.13 1.13 1.13h16.25c.62 0 1.13-.51 1.13-1.13.01-.62-.5-1.13-1.12-1.13zM37.43 22.7H21.17a1.129 1.129 0 1 0 0 2.26h16.25c.62 0 1.13-.51 1.13-1.13.01-.63-.5-1.13-1.12-1.13zM37.43 32.97H21.17c-.62 0-1.13.51-1.13 1.13 0 .62.51 1.13 1.13 1.13h16.25c.62 0 1.13-.51 1.13-1.13.01-.63-.5-1.13-1.12-1.13zM17.49 13.83c-.62 0-1.13.51-1.13 1.13v.52h-3.87v-2.96c0-.62-.51-1.13-1.13-1.13-.62 0-1.13.51-1.13 1.13v4.09c0 .62.51 1.13 1.13 1.13h6.13c.62 0 1.13-.51 1.13-1.13v-1.66c0-.61-.5-1.12-1.13-1.12zM17.49 19.63h-6.13c-.62 0-1.13.51-1.13 1.13v6.13c0 .62.51 1.13 1.13 1.13h6.13c.62 0 1.13-.51 1.13-1.13v-6.13c0-.62-.5-1.13-1.13-1.13zm-1.13 6.13h-3.87v-3.87h3.87v3.87zM17.49 29.9h-6.13c-.62 0-1.13.51-1.13 1.13v6.13c0 .62.51 1.13 1.13 1.13h6.13c.62 0 1.13-.51 1.13-1.13v-6.13c0-.62-.5-1.13-1.13-1.13zm-1.13 6.13h-3.87v-3.87h3.87v3.87z"/><path class="st6" d="M18.69 5.3c-.58-.24-1.24.04-1.48.61l-2.14 5.19L14 8.69c-.25-.57-.92-.83-1.49-.58s-.83.92-.58 1.49l2.15 4.84c.18.41.59.67 1.03.67h.01c.45-.01.86-.28 1.03-.7l3.15-7.64c.24-.57-.03-1.23-.61-1.47z"/></svg>