<svg version="1.1" id="Capa_1" xmlns="http://www.w3.org/2000/svg" x="0" y="0" viewBox="0 0 48 48" style="enable-background:new 0 0 48 48" xml:space="preserve"><style>.st1{fill:#ccc}</style><switch><g><path class="st1" d="M3.43 33.71h4.06c.36 0 .66.29.66.66v5.76h31.77v-5.76c0-.36.29-.66.66-.66h4.06c.36 0 .66.29.66.66v10.48c0 .36-.29.66-.66.66H3.43a.66.66 0 0 1-.66-.66V34.37c0-.36.29-.66.66-.66z"/><path class="st1" d="M17.66 30.85h12.72c.42 0 .77.34.77.77v3.46c0 .42-.34.77-.77.77H17.66a.77.77 0 0 1-.77-.77v-3.46c.01-.42.35-.77.77-.77zM15.33 11.64l7.37-8.63c.59-.69 2.05-.69 2.64 0l7.37 8.63 7.37 8.63c.59.69-.15 1.55-1.32 1.55h-7.72v7.13c0 .36-.29.66-.66.66H17.45a.66.66 0 0 1-.66-.66v-7.13h-7.5c-1.17 0-1.91-.86-1.32-1.55l7.36-8.63z"/></g></switch></svg>