<svg version="1.1" id="Capa_1" xmlns="http://www.w3.org/2000/svg" x="0" y="0" viewBox="0 0 48 48" style="enable-background:new 0 0 48 48" xml:space="preserve"><style></style><path d="M14.4 5.24h22.1c1.27 0 2.44.46 3.23 1.2.78.77 1.27 1.74 1.27 2.93v31.27c0 1.07-.49 2.16-1.27 2.91-.79.76-1.96 1.2-3.23 1.2H14.4c-1.24 0-2.29-.44-3.08-1.2a3.968 3.968 0 0 1-1.29-2.91v-3.35H7.86c-.44 0-.81-.21-.81-.64 0-.45.37-.67.81-.67h2.18V29.6H7.86c-.44 0-.81-.33-.81-.75 0-.32.37-.64.81-.64h2.18v-6.4H7.86c-.44 0-.81-.31-.81-.64 0-.45.37-.77.81-.77h2.18V14H7.86c-.44 0-.81-.32-.81-.64 0-.43.37-.75.81-.75h2.18V9.37c0-1.19.46-2.16 1.29-2.93.78-.74 1.83-1.2 3.07-1.2zm14.05 20.88v.25c.91.53 1.74.74 2.41 1.06 2.43.89 3.68 1.42 3.68 5.4 0 .46-.33.78-.68.78H17.18c-.45 0-.82-.33-.82-.78 0-4.2 1.27-4.52 3.68-5.4.72-.32 1.51-.53 2.55-1.06v-.11c-.71-.55-.93-1.31-1.05-2.19-.11 0-.11-.1-.23-.2-.12-.12-.12-.32-.12-.43v-.1c-.11-.1-.11-.21-.11-.31l-.11-.12c-.12-.46-.34-1.09.11-1.62-.11-.66-.11-1.32 0-1.98.11-.84.57-1.59 1.73-2.05.1-.21.34-.42.56-.54.46-.2.94-.31 1.5-.31.44 0 1.02.11 1.61.21 1.51.33 2.98 1.09 3.35 2.27.22.67.11 1.62 0 2.29.56.43.22 1.28.11 1.73v.12c-.11.11-.11.21-.11.31l-.12.1c0 .23 0 .32-.13.43l-.11.2c-.22.78-.46 1.52-1.02 2.05zm-1.49.68v-.98c0-.22.12-.43.33-.64.48-.22.59-.99.83-1.62 0-.12.11-.22.11-.32.11-.11.11-.21.11-.33l.11-.13v-.22l.13-.11s.1-.1.22-.1c-.35-.1-.57-.42-.46-.74 0 0 .34-1.64.11-2.3-.22-.64-1.27-1.16-2.3-1.37-.47-.12-.92-.12-1.27-.12-.33 0-.57 0-.68.12-.12.21-.24.41-.59.53-.7.21-1.03.52-1.14 1.09-.11.52.11 1.37.23 2.05.11.2 0 .41-.23.64 0 0 0 .1-.11.1.11.1.11.33.22.43v.13c0 .12.12.22.12.33.11.1.11.2.11.32l.1.2c.24.67.35 1.3.7 1.53.22.21.35.43.35.64v.88c0 .21-.13.42-.35.63-1.14.67-2.18.99-3.1 1.3-1.61.54-2.54.86-2.66 3.47h15.18c-.1-2.5-1.02-2.81-2.74-3.47-.82-.31-1.72-.63-2.89-1.3-.22-.11-.44-.33-.44-.64zm-14.63 9.18c.45 0 .82.22.82.67 0 .42-.37.64-.82.64h-.9v3.35c0 .75.34 1.41.9 1.94.56.54 1.28.74 2.07.74h22.1c.82 0 1.6-.2 2.16-.74.49-.53.83-1.19.83-1.94V9.37c0-.77-.34-1.41-.83-1.93-.57-.56-1.34-.89-2.16-.89H14.4c-.79 0-1.51.32-2.07.89-.55.52-.9 1.16-.9 1.93v3.24h.9c.45 0 .82.32.82.75 0 .32-.37.64-.82.64h-.9v6.39h.9c.45 0 .82.32.82.77 0 .33-.37.64-.82.64h-.9v6.4h.9c.45 0 .82.32.82.64 0 .42-.37.75-.82.75h-.9v6.38h.9z" style="fill-rule:evenodd;clip-rule:evenodd;fill:#394146"/></svg>