<svg version="1.1" id="Capa_1" xmlns="http://www.w3.org/2000/svg" x="0" y="0" viewBox="0 0 48 48" style="enable-background:new 0 0 48 48" xml:space="preserve"><style></style><path d="M34.39 5.83H20.68V4.08a2.11 2.11 0 0 0-4.22 0v1.77c-1.61.19-2.88 1.57-2.88 3.23v31.51c0 1.79 1.46 3.25 3.25 3.25h17.55c1.79 0 3.25-1.46 3.25-3.25V9.08a3.241 3.241 0 0 0-3.24-3.25zm-11.83 27.1c0 .19-.27.34-.61.34h-5c-.34 0-.61-.15-.61-.34v-3c0-.19.27-.34.61-.34h5c.34 0 .61.15.61.34v3zm4.8 0c0 .19-.15.34-.34.34h-2.8c-.19 0-.34-.15-.34-.34v-3c0-.19.15-.34.34-.34h2.8c.19 0 .34.15.34.34v3zm7.52 0c0 .19-.28.34-.62.34h-5.08c-.34 0-.62-.15-.62-.34v-3c0-.19.28-.34.62-.34h5.08c.34 0 .62.15.62.34v3zm0-6.52c0 1-.82 1.82-1.82 1.82h-14.9c-1 0-1.82-.82-1.82-1.82V10.48c0-1 .82-1.82 1.82-1.82h14.9c1 0 1.82.82 1.82 1.82v15.93z" style="fill:#878787"/></svg>