<svg version="1.1" id="Capa_1" xmlns="http://www.w3.org/2000/svg" x="0" y="0" viewBox="0 0 48 48" style="enable-background:new 0 0 48 48" xml:space="preserve"><style></style><switch><g><path d="M24 5.47c-10.15 0-18.38 8.23-18.38 18.39C5.62 34 13.85 42.24 24 42.24c10.15 0 18.38-8.23 18.38-18.38C42.38 13.7 34.15 5.47 24 5.47zm-2.27 2.21h4.45v13.49h-4.45V7.68zM24 38.51c-8.07 0-14.64-6.57-14.64-14.64 0-6.43 4.17-11.9 9.94-13.86V14c-3.69 1.76-6.24 5.53-6.24 9.88 0 6.03 4.91 10.94 10.94 10.94 6.04 0 10.94-4.91 10.94-10.94 0-4.35-2.55-8.12-6.24-9.88v-4c5.77 1.96 9.94 7.44 9.94 13.86 0 8.08-6.57 14.65-14.64 14.65z"/></g></switch></svg>