<svg version="1.1" id="Capa_1" xmlns="http://www.w3.org/2000/svg" x="0" y="0" viewBox="0 0 48 48" style="enable-background:new 0 0 48 48" xml:space="preserve"><style>.st3,.st5{fill-rule:evenodd;clip-rule:evenodd;fill:#ef0075}.st5{fill:#04ced1}</style><switch><g><g id="_1491389240432"><path class="st3" d="M14.28 18.37c.33 2.8-1.36 6.17 5.63 7.5 1.12.21 2.24.36 3.23.88-.63-.97-1.49-2.04-2.63-3.19 2.16 1.22 4.06 3.71 4.94 6.01-.6-4.87-7.88-12.39-12.53-13.68 0 0 1.99.83 2.56 4.86 0 0-.46-1.18-1.2-2.38z"/><linearGradient id="SVGID_1_" gradientUnits="userSpaceOnUse" x1="16037.468" y1="-17656.727" x2="16222.202" y2="-17295.859" gradientTransform="matrix(.0283 0 0 -.0283 -438.671 -472.602)"><stop offset="0" style="stop-color:#ef0075"/><stop offset="1" style="stop-color:#66002f"/></linearGradient><path d="M14.28 18.37c.33 2.8-1.36 6.17 5.63 7.5 1.12.21 2.24.36 3.23.88-1.69-1.91-5.06-1.63-6.6-6.21-.52-1.56-.9-3.13-3.45-4.56.49.3 1.92 1.46 2.39 4.77 0 0-.46-1.18-1.2-2.38z" style="fill-rule:evenodd;clip-rule:evenodd;fill:url(#SVGID_1_)"/><path class="st5" d="M2.32 15.72c7.46-.6 16.21-.98 20.23 4.8-.5-1.44-1.67-3.35-2.75-4.51 2.24 1.53 4.37 4.79 5.38 6.73-.95-3.01-2.25-5.04-3.23-6.27-.76-2.16-2.03-4.25-4.6-4.31-1.41-.03-2.77.68-3.4 1.96-3.75.12-7.99.75-11.63 1.6zm13.78-2.14c-.2 0-.36.16-.36.36 0 .2.16.36.36.36.2 0 .36-.16.36-.36 0-.2-.16-.36-.36-.36z"/><linearGradient id="SVGID_2_" gradientUnits="userSpaceOnUse" x1="16374.961" y1="-17369.967" x2="15490.702" y2="-17277.695" gradientTransform="matrix(.0283 0 0 -.0283 -438.671 -472.602)"><stop offset="0" style="stop-color:#117d7d"/><stop offset="1" style="stop-color:#04ced1"/></linearGradient><path d="M2.32 15.72c7.46-.6 16.21-.98 20.23 4.8-.5-1.44-1.67-3.35-2.75-4.51 2.24 1.53 4.37 4.79 5.38 6.73-1.28-3.19-3.59-7.02-7.46-8.23 1.1.93 1.51 1.51 1.99 2.31-3.87-2.53-11.85-2.2-17.39-1.1z" style="fill-rule:evenodd;clip-rule:evenodd;fill:url(#SVGID_2_)"/><path d="M24.51 18.11c2.63 2.09 5.21.76 8.46-.3 4.43-1.44 8.12-1.48 12.72 1.2-5.36.02-6.85 3.02-10.89 3.72 3.15.02 6.07-1.39 6.07-1.39s-4.76 3.51-10.42 2.09c4.92 1.95 7.98.44 7.98.44-3.83 2.68-12.18.76-13.55-3.8 1.26 1.14 4.78 2.56 7.81 1.4-3.22.22-6.88-1.07-8.18-3.36z" style="fill-rule:evenodd;clip-rule:evenodd;fill:#ecb705"/><linearGradient id="SVGID_3_" gradientUnits="userSpaceOnUse" x1="16268.905" y1="-17487.406" x2="16895.131" y2="-17517.055" gradientTransform="matrix(.0283 0 0 -.0283 -438.671 -472.602)"><stop offset="0" style="stop-color:#ee5700"/><stop offset="1" style="stop-color:#ecb705"/></linearGradient><path d="M34.79 22.74c3.15.02 6.07-1.39 6.07-1.39s-3.57 2.09-6.67 1.97c-3.09-.12-5.81-.87-5.81-.87s3.76.72 6.41.29zm-4.35.7c4.53 1.79 7.48.66 7.92.47-3.34 1.53-6.47.61-8.53-.14-2.08-.76-4.12-2.58-4.12-2.58 1.84 1.28 3.44 1.9 4.73 2.25z" style="fill-rule:evenodd;clip-rule:evenodd;fill:url(#SVGID_3_)"/><linearGradient id="SVGID_4_" gradientUnits="userSpaceOnUse" x1="16293.163" y1="-17287.356" x2="17102.775" y2="-17415.004" gradientTransform="matrix(.0283 0 0 -.0283 -438.671 -472.602)"><stop offset="0" style="stop-color:#ee5700"/><stop offset="1" style="stop-color:#ecb705"/></linearGradient><path d="M45.68 19.02c-3.58-.77-6.39-.65-11.88 1.39-.93.35 2.72-1.58 3.54-2.14-3.54.96-9.64 3.57-12.83-.15 2.63 2.09 5.21.76 8.46-.3 4.43-1.45 8.12-1.48 12.71 1.2z" style="fill-rule:evenodd;clip-rule:evenodd;fill:url(#SVGID_4_)"/><path class="st5" d="M23.13 22.69c3.09 4.75 3.64 9.13 2.06 12.49.74-3.42-.24-5.94-1.24-7.46 2.98 8.43-5.27 9.4-2.4 14.68 5.88-4.95 7.69-12.24 1.58-19.71z"/><linearGradient id="SVGID_5_" gradientUnits="userSpaceOnUse" x1="16299.071" y1="-18158.674" x2="16337.742" y2="-17700.305" gradientTransform="matrix(.0283 0 0 -.0283 -438.671 -472.602)"><stop offset="0" style="stop-color:#117d7d"/><stop offset="1" style="stop-color:#04ced1"/></linearGradient><path d="M23.95 27.71c2.98 8.43-5.27 9.4-2.4 14.68-.3-2.8 1.89-4.06 3.14-7.71 1.24-3.64-.74-6.97-.74-6.97z" style="fill-rule:evenodd;clip-rule:evenodd;fill:url(#SVGID_5_)"/><path class="st3" d="M23.97 22.49c4.07 4.7 6.1 12.1.4 18.8 3-2.19 4.91-5.81 4.72-10.21.34 1.74.49 3.87.38 5.64 2.54-6.64-2.06-11.75-5.5-14.23z"/><linearGradient id="SVGID_6_" gradientUnits="userSpaceOnUse" x1="16525.664" y1="-17963.555" x2="16155.614" y2="-17666.981" gradientTransform="matrix(.0283 0 0 -.0283 -438.671 -472.602)"><stop offset="0" style="stop-color:#ef0075"/><stop offset="1" style="stop-color:#66002f"/></linearGradient><path d="M23.97 22.49c4.07 4.7 6.1 12.1.4 18.8 3.95-3.41 4.93-8.95 3.81-12.57-1.11-3.63-4.21-6.23-4.21-6.23z" style="fill-rule:evenodd;clip-rule:evenodd;fill:url(#SVGID_6_)"/><linearGradient id="SVGID_7_" gradientUnits="userSpaceOnUse" x1="16773.484" y1="-17303.242" x2="16561.396" y2="-17078.461" gradientTransform="matrix(.0283 0 0 -.0283 -438.671 -472.602)"><stop offset="0" style="stop-color:#ef0075"/><stop offset="1" style="stop-color:#66002f"/></linearGradient><path d="M23.99 16.99c5.73 3 8.07-7.93 17.09-7.19-2.95 4.04-2.4 5.8-7.15 7.12 1.19-.82 2.28-2.07 2.93-3.99-3.9 3.84-8.89 7.5-12.87 4.06z" style="fill-rule:evenodd;clip-rule:evenodd;fill:url(#SVGID_7_)"/><path class="st3" d="M23.99 16.99c5.73 3 8.07-7.93 17.09-7.19-4.47 1.1-8.38 5.34-8.38 5.34s.46-.77.96-1.56c-.79.7-1.88 1.58-3.27 2.51-3.12 2.07-4.96 2-6.4.9z"/></g></g></switch></svg>