<svg version="1.1" id="Capa_1" xmlns="http://www.w3.org/2000/svg" x="0" y="0" viewBox="0 0 48 48" style="enable-background:new 0 0 48 48" xml:space="preserve"><style>.st1{fill:#ccc}</style><switch><g><path class="st1" d="M24.79 33.38c-1.32 0-2.48.01-3.64 0-2.41-.03-3.98-1.54-3.99-3.95-.03-5.02-.03-10.05 0-15.07.01-2.53 1.55-4.03 4.13-4.05 4.55-.02 9.1-.01 13.66-.01 2.04 0 4.08-.02 6.12 0 2.57.03 4.14 1.47 4.17 4.03.06 5.1.05 10.19 0 15.29-.02 2.21-1.63 3.73-3.85 3.75-3.17.03-6.34-.02-9.5.03-.48.01-1.06.25-1.41.57-1.32 1.2-2.53 2.51-3.84 3.73-.36.34-.89.49-1.34.73-.17-.51-.44-1.02-.47-1.54-.09-1.11-.04-2.24-.04-3.51zm7.59-13.26h.17c0-.91-.01-1.81 0-2.72.03-1.85.04-1.85-1.79-1.79-.07 0-.17-.03-.21.01-.25.22-.69.45-.68.68.01 2.5.12 5 .15 7.5.01.93.61.81 1.19.81.57-.01 1.22.15 1.19-.79-.05-1.23-.02-2.46-.02-3.7zm-1.18 7.97c.9.13 1.41-.08 1.41-1.18 0-1.09-.6-1.12-1.4-1.12-.82 0-1.5-.01-1.49 1.15 0 1.13.6 1.26 1.48 1.15zM8.3 16.62c-1.24 0-2.47.03-3.71-.01-1.09-.03-1.77-.67-1.82-1.63-.05-1.02.62-1.81 1.74-1.83 2.55-.05 5.09-.05 7.64 0 1.1.02 1.82.83 1.78 1.81-.04.94-.75 1.62-1.81 1.65-1.27.04-2.55.01-3.82.01zM9.31 23.57c-.94 0-1.89.03-2.83-.01-1.05-.04-1.73-.72-1.75-1.69-.02-.96.65-1.74 1.68-1.77 1.92-.05 3.84-.05 5.77 0 1.01.03 1.73.83 1.72 1.76-.01.94-.74 1.64-1.76 1.71H9.31zM10.51 30.53c-.62 0-1.24.03-1.85-.01-1.02-.07-1.72-.81-1.71-1.76.01-.95.72-1.68 1.75-1.71 1.16-.04 2.32-.04 3.48 0 1.01.03 1.73.81 1.71 1.75-.01.89-.71 1.64-1.65 1.72-.57.05-1.15.01-1.73.01z"/></g></switch></svg>