<svg version="1.1" id="Capa_1" xmlns="http://www.w3.org/2000/svg" x="0" y="0" viewBox="0 0 48 48" style="enable-background:new 0 0 48 48" xml:space="preserve"><style></style><path d="m34.24 10.94-4.22-4.22v4.22h4.22zm8.78 9.84.92-.82-4.32-4.33-.82.9 4.22 4.25zm-.79.9-4.33-4.33-13.73 13.81 4.25 4.21 13.81-13.69zm-4.28-5.99 1.67-1.66 6.04 5.93-1.74 1.69.02.02-.44.45-7.2 7.14v13.89H6.93V4.55h22.39l.08.05c.15 0 .28.06.37.17l1.24 1.24 5.29 4.92V17.24c.54-.52 1.06-1.08 1.6-1.62l.05.07zM25.22 36.63l-2.27-2.27-.23 2.5 2.5-.23zm-2.28-4.1 4.89 5.04-6.5.67.68-6.52.93.81zm12.08-2-6.6 6.56-5.96-5.93c4.2-4.19 8.39-8.39 12.57-12.63V12.2h-5.59c-.34 0-.67-.23-.67-.56V5.81H8.09v36.2h26.94V30.53z" style="fill-rule:evenodd;clip-rule:evenodd;fill:#b2b2b2"/></svg>