<svg version="1.1" id="Capa_1" xmlns="http://www.w3.org/2000/svg" x="0" y="0" viewBox="0 0 48 48" style="enable-background:new 0 0 48 48" xml:space="preserve"><style></style><path d="M14.09 7.21H18V6.12c0-.57.24-1.03.69-1.48.33-.32.88-.55 1.46-.55h9.06c.55 0 1.09.23 1.43.55.36.44.57.91.57 1.48v1.09h3.92c1.23 0 2.22.48 3.03 1.25.77.79 1.21 1.78 1.21 3.02v31.64c0 .36-.33.69-.66.69h-28.1c-.32 0-.66-.33-.66-.69V11.48c0-1.24.44-2.23 1.25-3.02.77-.77 1.8-1.25 2.89-1.25zm2.26 9.2c-.36 0-.69-.36-.69-.8 0-.33.33-.66.69-.66H32.9c.44 0 .77.33.77.66 0 .44-.33.8-.77.8H16.35zm0 7.16c-.36 0-.69-.25-.69-.68 0-.33.33-.66.69-.66H32.9c.44 0 .77.33.77.66 0 .43-.33.68-.77.68H16.35zm0 7.27c-.36 0-.69-.35-.69-.69 0-.33.33-.67.69-.67H32.9c.44 0 .77.34.77.67 0 .34-.33.69-.77.69H16.35zm8.25 6.8c-.33 0-.65-.33-.65-.77 0-.33.33-.66.65-.66h8.3c.44 0 .77.33.77.66 0 .45-.33.77-.77.77h-8.3zM19.46 7.21h10.41V6.12c0-.12-.12-.33-.22-.45-.11-.12-.22-.25-.44-.25h-9.06c-.22 0-.36.13-.58.25-.11.12-.11.33-.11.45v1.09zm15.66 1.47H14.09c-.65 0-1.43.2-1.9.79-.55.44-.89 1.22-.89 2.01v30.97h26.64V11.48c0-.79-.36-1.57-.79-2.01-.57-.58-1.26-.79-2.03-.79z" style="fill-rule:evenodd;clip-rule:evenodd;fill:#b2b2b2"/></svg>