<svg version="1.1" id="Capa_1" xmlns="http://www.w3.org/2000/svg" x="0" y="0" viewBox="0 0 48 48" style="enable-background:new 0 0 48 48" xml:space="preserve"><style>.st0{fill:#878787}</style><path class="st0" d="M28.59 17.84c0-2.53-2.05-4.57-4.57-4.57-2.53 0-4.57 2.05-4.57 4.57 0 2.53 2.05 4.57 4.57 4.57 2.53 0 4.57-2.05 4.57-4.57zM28.15 39.91a69.01 69.01 0 0 1-2.59 2.59c-.44.41-.96.63-1.52.63-.41 0-1.02-.12-1.62-.69-.62-.58-1.5-1.44-2.52-2.53-2.18.46-3.63 1.27-3.63 2.19 0 1.43 3.47 2.59 7.76 2.59 4.28 0 7.76-1.16 7.76-2.59-.01-.92-1.46-1.73-3.64-2.19z"/><path class="st0" d="M21.49 39.65c.09.09.18.19.27.27l.04.04.21.21.06.06.19.19.05.05c.15.15.3.29.43.43.02.02.04.03.05.05.05.05.09.09.14.13.02.02.04.04.07.06l.12.12c.02.02.04.04.06.05.05.05.11.1.16.15.06.05.11.1.17.14l.06.03c.04.02.08.05.12.07.02.01.05.02.07.03.03.01.07.03.1.04.02.01.05.01.07.01.03.01.07.01.1.01h.02c.03 0 .05-.01.08-.01.02 0 .05 0 .07-.01l.1-.03c.02-.01.04-.01.06-.02.04-.01.07-.04.11-.06.02-.01.03-.02.05-.03.05-.04.1-.07.15-.12.05-.05.11-.1.16-.16.01-.01.02-.02.04-.03.05-.05.1-.1.16-.15l.03-.03c.2-.19.43-.41.68-.66l.01-.01c.25-.25.52-.52.8-.81l.02-.02c4.06-4.18 11.57-13.06 11.57-21.5 0-8.06-6.62-14.6-14.09-14.6S9.93 10.09 9.93 18.15c0 8.44 7.51 17.32 11.56 21.5zm-5.05-21.81c0-4.19 3.4-7.58 7.58-7.58 4.19 0 7.58 3.4 7.58 7.58 0 4.19-3.4 7.58-7.58 7.58-4.19 0-7.58-3.4-7.58-7.58z"/></svg>