<svg version="1.1" id="Capa_1" xmlns="http://www.w3.org/2000/svg" x="0" y="0" viewBox="0 0 48 48" style="enable-background:new 0 0 48 48" xml:space="preserve"><style>.st13{fill:gray}</style><switch><g><path class="st13" d="M4.5 8.92c.12-.46.31-.88.7-1.19.36-.3.78-.44 1.24-.44H38.07c1.23 0 2.05.82 2.05 2.05 0 5.4 0 10.81-.01 16.21 0 .15.05.21.18.27 2.08.95 3.54 2.49 4.37 4.62.27.7.44 1.42.5 2.16 0 .02.03.05.04.07v1.37c-.06.37-.11.75-.2 1.12-.52 2.21-1.72 3.95-3.64 5.17-2.18 1.38-4.53 1.66-6.98.9-1.8-.56-3.22-1.66-4.28-3.21-.12-.17-.24-.21-.43-.21-2.67.01-5.34 0-8 0H6.41c-.5 0-.92-.17-1.29-.49-.34-.3-.51-.69-.63-1.11.01-9.09.01-18.19.01-27.29zM31.58 28.9c-1.93 2.22-2.33 5.87-.23 8.68 2 2.68 5.78 3.57 8.74 2.04 3.14-1.62 4.59-5.15 3.48-8.48-1.02-3.07-3.87-4.63-5.99-4.71v1.68c0 .1 0 .21-.02.31a.63.63 0 0 1-.66.5c-.3-.02-.58-.27-.58-.57-.01-.89-.01-1.78 0-2.68 0-.29.26-.55.55-.56.29-.01.57 0 .86.03.36.04.73.1 1.09.15V12.38H5.78v23.41c0 .51.24.75.74.75h22.52c.08 0 .15-.01.25-.01-.02-.08-.03-.12-.05-.17-.78-2.05-.76-4.1.05-6.14a7.896 7.896 0 0 1 1.8-2.7c.28-.27.63-.27.89-.02.43.42.86.85 1.28 1.27 1.06 1.06 2.12 2.12 3.17 3.18.11.11.21.16.38.14.75-.08 1.4.5 1.41 1.25.01.66-.56 1.35-1.41 1.27-.72-.07-1.25-.78-1.12-1.45a.375.375 0 0 0-.08-.25c-.28-.29-.57-.58-.86-.86l-2.39-2.39c-.26-.24-.52-.5-.78-.76zM5.79 11.09h33.05V9.24c0-.43-.26-.68-.7-.68H6.45c-.35 0-.65.22-.66.52-.01.67 0 1.33 0 2.01z"/><path class="st13" d="M24.2 22.56h-7.54c-.43 0-.7-.24-.7-.62-.01-.39.27-.65.7-.65h15.12c.42 0 .71.26.71.62 0 .39-.28.64-.71.64-2.53.01-5.05.01-7.58.01zM26.76 17.46h-5.02c-.43 0-.69-.24-.69-.63 0-.38.27-.64.69-.64h10.04c.4 0 .65.2.7.56.04.31-.16.61-.46.69-.12.03-.25.02-.37.02-1.63.01-3.26.01-4.89 0 0 .01 0 .01 0 0zM21.66 27.64h-5c-.44 0-.71-.24-.71-.64 0-.38.27-.63.7-.63h10.02c.42 0 .67.21.72.57.04.3-.16.6-.45.67-.09.02-.19.02-.28.02-1.67.01-3.33.01-5 .01zM11.5 17.22c.7-.71 1.38-1.39 2.07-2.07.37-.37.92-.25 1.08.23.08.23.03.45-.14.61-.86.86-1.72 1.73-2.58 2.58-.23.23-.58.26-.82.03-.47-.44-.93-.9-1.37-1.37-.24-.25-.18-.64.08-.87.25-.22.61-.21.86.03.26.26.53.54.82.83zM11.5 22.31c.7-.7 1.38-1.39 2.06-2.07.28-.28.66-.3.92-.04.25.25.28.62.03.87-.86.88-1.73 1.75-2.61 2.61-.24.24-.62.2-.91-.08-.38-.37-.75-.75-1.12-1.13-.08-.08-.15-.16-.21-.25a.624.624 0 0 1 .99-.74c.29.26.55.53.85.83zM11.5 27.38l2.05-2.05c.38-.38.94-.27 1.1.22.08.23.03.45-.14.61-.86.86-1.71 1.73-2.58 2.58-.26.25-.63.24-.89-.02-.42-.41-.84-.83-1.25-1.25-.26-.27-.26-.65-.01-.91.25-.25.64-.25.91.01s.53.53.81.81zM17.87 17.47h-1.26c-.37 0-.64-.26-.65-.61-.01-.37.25-.65.63-.66.86-.01 1.71-.01 2.57 0 .36 0 .62.3.62.64s-.29.62-.64.62c-.43.01-.85.01-1.27.01zM28.04 34.02v.6c-.01.38-.3.67-.65.67-.34 0-.62-.29-.63-.66-.01-.41-.01-.82 0-1.24.01-.37.29-.65.64-.66.35 0 .63.28.64.65.01.22 0 .43 0 .64zM24.86 34.03c0 .21.01.43 0 .64-.01.34-.29.61-.63.62-.32.01-.64-.27-.65-.6-.01-.43-.01-.87 0-1.3.01-.39.31-.66.66-.65.35.01.61.3.61.68.01.2.01.4.01.61zM8.96 34.05v.57c-.01.39-.29.67-.65.66-.35 0-.62-.3-.62-.69V33.4c0-.37.25-.65.59-.68.32-.03.62.22.67.57.03.26 0 .51.01.76-.01 0 0 0 0 0zM21.67 34.01c0 .22.01.44 0 .66-.01.32-.27.58-.59.61-.3.03-.63-.19-.65-.5-.03-.52-.03-1.04 0-1.56.02-.3.37-.52.66-.49.32.03.57.3.58.62v.66zM10.87 33.99v-.64a.63.63 0 0 1 .62-.62c.33-.01.64.26.65.59.01.45.02.9 0 1.35-.01.36-.31.63-.65.62-.34-.01-.6-.29-.61-.65-.02-.22-.01-.43-.01-.65zM18.49 34.01c0 .23.01.46 0 .68-.01.33-.27.58-.6.59-.3.02-.62-.21-.64-.52-.03-.5-.04-1-.01-1.5.02-.32.36-.57.67-.54.33.03.58.3.58.64v.65zM15.31 34.06v.6c0 .35-.29.63-.63.63s-.62-.27-.62-.61c0-.46-.01-.93 0-1.39.01-.27.19-.43.44-.52.24-.08.45-.01.63.16.17.15.19.36.19.57v.57c0-.01-.01-.01-.01-.01z"/></g></switch></svg>