<svg version="1.1" id="Capa_1" xmlns="http://www.w3.org/2000/svg" x="0" y="0" viewBox="0 0 48 48" style="enable-background:new 0 0 48 48" xml:space="preserve"><style></style><path d="M43.39 24.67c0-1.5-1.14-2.73-2.6-2.88a16.94 16.94 0 0 0-2.81-6.82c.47-.52.76-1.19.76-1.93 0-1.6-1.3-2.92-2.91-2.92-.75 0-1.43.29-1.95.78-1.99-1.42-4.31-2.4-6.8-2.83a2.903 2.903 0 0 0-2.88-2.59c-1.49 0-2.72 1.14-2.87 2.59-2.5.43-4.81 1.41-6.81 2.81-.52-.46-1.19-.76-1.94-.76-1.6 0-2.91 1.31-2.91 2.92 0 .74.29 1.42.76 1.93-1.41 2-2.38 4.31-2.81 6.82-1.46.16-2.6 1.38-2.6 2.88 0 1.48 1.14 2.71 2.6 2.86.43 2.5 1.41 4.82 2.81 6.8-.46.54-.76 1.21-.76 1.95 0 1.61 1.3 2.92 2.91 2.92.75 0 1.43-.29 1.95-.78 1.99 1.42 4.3 2.4 6.8 2.83.16 1.45 1.38 2.59 2.87 2.59 1.5 0 2.73-1.14 2.88-2.59a17.04 17.04 0 0 0 6.81-2.81c.52.47 1.19.76 1.94.76 1.6 0 2.91-1.31 2.91-2.92 0-.74-.29-1.43-.77-1.95 1.41-1.98 2.4-4.3 2.83-6.8 1.45-.15 2.59-1.38 2.59-2.86zm-7.56 8.71c-.59 0-1.14.17-1.6.48l-3.06-3.05a9.4 9.4 0 0 0 2.3-5.58h4.16c.22 1.05 1 1.88 2.01 2.19-.41 2.28-1.32 4.38-2.6 6.21-.37-.14-.78-.25-1.21-.25zm-16.61-2.29v-.12c0-.26.02-.52.05-.78.02-.1.04-.19.07-.28.04-.17.06-.34.11-.5.02-.1.07-.19.1-.29.06-.16.11-.31.18-.47.04-.09.09-.19.15-.28.08-.14.15-.29.23-.43.05-.09.12-.17.17-.26.1-.14.19-.28.3-.4.06-.08.13-.14.19-.21.12-.14.23-.28.36-.4.07-.05.15-.1.22-.16.14-.12.27-.24.41-.35.07-.03.16-.07.22-.1.02-.02.04-.04.06-.04.6.47 1.34.76 2.15.76.79 0 1.54-.29 2.14-.76.1.05.2.09.29.16 0 0 .02.02.03.02.22.16.41.31.6.48.01 0 .01.02.03.02.18.17.36.36.53.57.01 0 .01.02.01.02.17.21.33.42.46.64.01.02.02.02.02.03.14.21.26.45.36.67.01.02.01.03.01.03.11.24.2.48.28.73 0 .02.01.02.01.03.07.24.13.48.16.74 0 0 .01 0 .01.02.04.26.06.5.06.76 0 .03-.01.08-.01.12a8.065 8.065 0 0 1-9.96.03zm-5.05 2.78c-.46-.31-1.01-.48-1.6-.48-.43 0-.84.1-1.22.28a15.583 15.583 0 0 1-2.59-6.23 2.912 2.912 0 0 0 2-2.19h4.16c.12 2.07.92 4.02 2.3 5.58l-3.05 3.04zm-1.59-17.93c.59 0 1.14-.17 1.6-.48l3.06 3.06a9.185 9.185 0 0 0-2.3 5.57h-4.16a2.912 2.912 0 0 0-2-2.19c.41-2.28 1.3-4.4 2.59-6.23.36.16.78.27 1.21.27zm11.62.58c2.18 0 4.22.84 5.76 2.38 3.06 3.07 3.18 7.97.33 11.17-.04-.24-.09-.48-.15-.71-.01-.03-.02-.08-.03-.12-.07-.22-.15-.45-.22-.67a.467.467 0 0 1-.05-.1c-.1-.22-.2-.45-.31-.67-.01-.02-.02-.04-.03-.04-.25-.48-.56-.93-.9-1.33l-.01-.02c-.42-.48-.9-.9-1.42-1.24.44-.66.7-1.45.7-2.33 0-2.09-1.54-3.61-3.65-3.61-2.12 0-3.66 1.52-3.66 3.61 0 .88.27 1.67.71 2.33-1.21.78-2.16 1.98-2.69 3.31-.02.04-.03.05-.04.09-.1.22-.16.45-.23.67-.01.05-.02.09-.02.12-.06.24-.11.47-.15.71h-.01a8.093 8.093 0 0 1-2.05-5.4c0-2.17.84-4.23 2.38-5.76a8.023 8.023 0 0 1 5.74-2.39zm10.03-1.07c.46.31 1.01.48 1.6.48.44 0 .85-.1 1.22-.28 1.28 1.83 2.17 3.95 2.59 6.23a2.895 2.895 0 0 0-2 2.19h-4.16c-.13-2-.9-3.97-2.3-5.57l3.05-3.05zm-12.52 7.39c0-1.43 1.03-2.45 2.5-2.45s2.48 1.02 2.48 2.45c0 1.55-1.11 2.8-2.48 2.8-1.38 0-2.5-1.25-2.5-2.8zm20.51 1.83c0 .95-.78 1.73-1.74 1.73s-1.74-.78-1.74-1.73c0-.97.78-1.76 1.74-1.76.97 0 1.74.79 1.74 1.76zM35.83 11.3c.96 0 1.74.78 1.74 1.74s-.79 1.74-1.74 1.74a1.741 1.741 0 0 1 0-3.48zm-8.86-2.08c2.29.4 4.4 1.31 6.22 2.6-.16.36-.27.78-.27 1.21 0 .59.18 1.14.48 1.59l-3.05 3.07a9.147 9.147 0 0 0-5.57-2.31v-4.16c1.05-.2 1.89-.98 2.19-2zM24.2 6.64c.97 0 1.75.78 1.75 1.74s-.78 1.74-1.75 1.74a1.741 1.741 0 0 1 0-3.48zm-.58 4.59v4.16a9.12 9.12 0 0 0-5.56 2.31L15 14.63a2.833 2.833 0 0 0 .2-2.81c1.83-1.28 3.94-2.18 6.23-2.57.32.99 1.15 1.77 2.19 1.98zm-11.04.07a1.741 1.741 0 1 1-.003 3.478 1.741 1.741 0 0 1 .003-3.478zm-6.4 13.37c0-.97.78-1.76 1.74-1.76s1.74.79 1.74 1.76c0 .95-.79 1.73-1.74 1.73-.96-.01-1.74-.78-1.74-1.73zm6.4 13.36c-.97 0-1.74-.78-1.74-1.74 0-.95.78-1.74 1.74-1.74s1.74.79 1.74 1.74c0 .96-.78 1.74-1.74 1.74zm8.85 2.07a15.83 15.83 0 0 1-6.22-2.59c.17-.38.28-.79.28-1.23 0-.59-.18-1.14-.48-1.59l3.05-3.06c.09.07.16.12.24.19a9.217 9.217 0 0 0 5.33 2.1v4.16a2.95 2.95 0 0 0-2.2 2.02zm2.77 2.58a1.741 1.741 0 0 1 0-3.48c.97 0 1.75.78 1.75 1.74 0 .97-.78 1.74-1.75 1.74zm.59-4.59v-4.16c1.9-.12 3.78-.81 5.33-2.1.09-.07.16-.12.23-.19l3.05 3.06a2.866 2.866 0 0 0-.2 2.82 15.812 15.812 0 0 1-6.23 2.59c-.31-1.03-1.14-1.81-2.18-2.02zm11.04-.06c-.96 0-1.74-.78-1.74-1.74 0-.95.78-1.74 1.74-1.74s1.74.79 1.74 1.74c0 .96-.78 1.74-1.74 1.74z" style="fill:#1a171b"/></svg>