<svg version="1.1" id="Capa_1" xmlns="http://www.w3.org/2000/svg" x="0" y="0" viewBox="0 0 48 48" style="enable-background:new 0 0 48 48" xml:space="preserve"><style>.st13{fill:gray}</style><switch><g><path class="st13" d="M13.24 37.58c-.51-.11-1.01-.26-1.45-.56-1-.7-1.51-1.65-1.53-2.87-.01-.99-.01-1.99-.01-2.98 0-1.29.02-2.58.02-3.86 0-1.38-.01-2.75-.01-4.13 0-1.31.01-2.61.01-3.92 0-1.38-.01-2.75-.01-4.13 0-.63 0-1.26.03-1.89.07-1.27 1.01-2.47 2.21-2.88.29-.1.6-.15.9-.22h13.14v3.43H14.53c-.57 0-.83.26-.83.83 0 6.31 0 12.61-.01 18.92 0 .53.31.84.83.84 6.32-.01 12.63-.01 18.95-.01.57 0 .81-.23.81-.81 0-2.49 0-4.98-.01-7.48 0-.27.08-.46.28-.65 1.04-1.02 2.06-2.05 3.12-3.12.01.1.02.16.02.22 0 4.04.02 8.07-.01 12.11-.01 1.24-.91 2.5-2.33 2.98-.2.07-.41.11-.61.16-7.16.02-14.33.02-21.5.02z"/><path class="st13" d="M31.1 10.13c.56.12.95.48 1.33.87 1.56 1.57 3.11 3.16 4.71 4.69.73.7.71 1.94.01 2.62-1.67 1.62-3.31 3.29-4.95 4.94-.55.55-1.18.79-1.94.51-.71-.25-1.11-.85-1.11-1.6v-3.47c-.42.02-.81.03-1.19.07-1.39.15-2.72.5-3.98 1.11-1.66.8-3.12 1.89-4.22 3.37-.82 1.1-1.52 2.3-2.27 3.45-.11.17-.21.35-.33.53-.11-2.26.78-5.78 3.5-8.45 2.34-2.3 5.18-3.45 8.49-3.52v-3.36c0-.93.5-1.54 1.4-1.75.02-.01.04-.03.07-.04.16.03.32.03.48.03z"/></g></switch></svg>