<svg version="1.1" id="Capa_1" xmlns="http://www.w3.org/2000/svg" x="0" y="0" viewBox="0 0 48 48" style="enable-background:new 0 0 48 48" xml:space="preserve"><style>.st5{fill:#394146}</style><path class="st5" d="M8.64 6.56c-1.98 0-3.58 1.8-3.58 4.02v31.07c0 2.22 1.6 4.02 3.58 4.02h30.77c1.98 0 3.58-1.8 3.58-4.02V10.58c0-2.22-1.6-4.02-3.58-4.02h-1.25V9.1c0 1.7-1.23 3.08-2.74 3.08-1.51 0-2.74-1.38-2.74-3.08V6.56H15.37V9.1c0 1.7-1.23 3.08-2.74 3.08-1.51 0-2.74-1.38-2.74-3.08V6.56H8.64zm2.26 11.25h26.24c.79 0 1.43.65 1.43 1.45v20.12c0 .8-.64 1.45-1.43 1.45H10.9c-.79 0-1.43-.65-1.43-1.45V19.26c0-.8.64-1.45 1.43-1.45z"/><path class="st5" d="M11.32 2.94V9.1c0 .81.59 1.47 1.31 1.47.72 0 1.31-.66 1.31-1.47V2.94c0-.81-.59-1.47-1.31-1.47-.72 0-1.31.66-1.31 1.47zM34.1 2.94V9.1c0 .81.59 1.47 1.31 1.47.72 0 1.31-.66 1.31-1.47V2.94c0-.81-.59-1.47-1.31-1.47-.72 0-1.31.66-1.31 1.47zM11.98 20.32h6.94v7.98h-6.94zM20.72 20.32h6.94v7.98h-6.94zM11.98 30.12h6.94v7.98h-6.94zM20.72 30.12h6.94v7.98h-6.94zM29.78 20.32h6.94v7.98h-6.94zM29.78 30.12h6.94v7.98h-6.94z"/></svg>