<svg version="1.1" id="Capa_1" xmlns="http://www.w3.org/2000/svg" x="0" y="0" viewBox="0 0 48 48" style="enable-background:new 0 0 48 48" xml:space="preserve"><style>.st2{fill:#1a171b}</style><path class="st2" d="M44.27 19.6c-2.6-4.05-2.78-5.22-2.79-5.27-1.2-10.2-9.44-10.98-11.93-10.98-.23 0-.43 0-.58.02h-.21c-.91 0-7 .18-10.22 4.53-.4-.04-.75-.04-1.01-.04h-.58l-.21.02c-1.25 0-12.17.31-12.23 11.2l-.01.07c0 6.48 1.84 8.72 3.32 10.53.06.07.12.15.17.22-2.1 1.37-3.49 3.72-3.49 6.4 0 4.2 3.42 7.61 7.63 7.61 4.2 0 7.62-3.41 7.62-7.61 0-4.22-3.42-7.63-7.62-7.63-1.08 0-2.11.24-3.03.64-.11-.15-.22-.27-.33-.42-1.35-1.66-3.04-3.71-3.04-9.74v-.07c.04-9.51 9.17-9.98 11-9.98h.24c.15 0 .34-.02.56-.02 2.23 0 9.63.71 10.71 9.87.01.2.2 1.5 2.99 5.84 0 0 .14.24.09.42-.03.13-.14.26-.34.36-1.09.64-2.42 1.15-2.43 1.15-.27.11-.42.36-.39.64 0 .04.35 3.32.04 4.91-.11.58-1.65 1-3.67 1h-.35c-.01 0-.07-.02-.17-.02-1.2 0-1.64.66-1.64 1.24v3.79c0 .33.27.6.62.6.34 0 .61-.27.61-.6v-3.72c.07-.04.21-.07.41-.07h.53c1.68 0 4.54-.26 4.88-1.99.26-1.41.1-3.79.01-4.82.51-.2 1.38-.6 2.17-1.06.63-.37.85-.82.92-1.15.16-.73-.25-1.32-.27-1.37-2.6-4.05-2.78-5.22-2.79-5.27-.93-7.9-6.08-10.15-9.52-10.77 2.83-3.25 7.55-3.48 8.81-3.48h.24c.15 0 .34-.02.56-.02 2.23 0 9.63.71 10.71 9.85.01.22.2 1.51 2.99 5.86 0 0 .14.24.09.42-.03.13-.14.26-.34.36-1.09.64-2.42 1.15-2.42 1.15-.27.09-.43.36-.4.64 0 .04.36 3.32.05 4.91-.11.58-1.65 1-3.67 1h-.35s-.07-.02-.17-.02c-1.21 0-1.64.67-1.64 1.24v3.79c0 .33.28.6.62.6.34 0 .61-.27.61-.6v-3.74c.06-.02.21-.05.41-.05h.53c1.68 0 4.54-.26 4.88-2.01.27-1.4.1-3.78.01-4.8.51-.2 1.38-.6 2.17-1.06.63-.37.86-.84.92-1.17.14-.69-.26-1.29-.28-1.33zM18.5 36.3c0 3.52-2.86 6.39-6.39 6.39s-6.4-2.87-6.4-6.39c0-3.52 2.86-6.4 6.4-6.4 3.53-.01 6.39 2.88 6.39 6.4z"/><path class="st2" d="M8.78 36.9h2.72v2.74c0 .33.28.6.62.6s.61-.27.61-.6V36.9h2.72a.6.6 0 0 0 .62-.6.61.61 0 0 0-.62-.62h-2.72v-2.72c0-.35-.27-.62-.61-.62s-.62.27-.62.62v2.72H8.78c-.34 0-.61.27-.61.62s.27.6.61.6z"/></svg>