<svg version="1.1" id="Capa_1" xmlns="http://www.w3.org/2000/svg" x="0" y="0" viewBox="0 0 48 48" style="enable-background:new 0 0 48 48" xml:space="preserve"><style>.st13{fill:gray}</style><switch><g><path class="st13" d="M13.26 37.74c-.51-.11-1.01-.26-1.45-.56-1-.7-1.51-1.65-1.53-2.87-.01-.99-.01-1.99-.01-2.98 0-1.29.02-2.58.02-3.86 0-1.38-.01-2.75-.01-4.13 0-1.31.01-2.61.01-3.92 0-1.38-.01-2.75-.01-4.13 0-.63 0-1.26.03-1.89.07-1.27 1.01-2.47 2.21-2.88.29-.1.6-.15.9-.22h13.14v3.43H14.55c-.57 0-.83.26-.83.83 0 6.31 0 12.61-.01 18.92 0 .53.31.84.83.84 6.32-.01 12.63-.01 18.95-.01.57 0 .81-.23.81-.81 0-2.49 0-4.98-.01-7.48 0-.27.08-.46.28-.65 1.04-1.02 2.06-2.05 3.12-3.12.01.1.02.16.02.22 0 4.04.02 8.07-.01 12.11-.01 1.24-.91 2.5-2.33 2.98-.2.07-.41.11-.61.16-7.17.02-14.33.02-21.5.02z"/><path class="st13" d="M18.88 25.8c.12.56.48.95.87 1.33 1.57 1.56 3.16 3.11 4.69 4.71.7.73 1.94.71 2.62.01 1.62-1.67 3.29-3.31 4.94-4.95.55-.55.79-1.18.51-1.94-.25-.71-.85-1.11-1.6-1.11h-3.47c.02-.42.03-.81.07-1.19.15-1.39.5-2.72 1.11-3.98.8-1.66 1.89-3.12 3.37-4.22 1.1-.82 2.3-1.52 3.45-2.27.17-.11.35-.21.53-.33-2.26-.11-5.78.78-8.45 3.5-2.3 2.34-3.45 5.18-3.52 8.49h-3.36c-.93 0-1.54.5-1.75 1.4-.01.02-.03.04-.04.07.03.16.03.32.03.48z"/></g></switch></svg>