<svg version="1.1" id="Capa_1" xmlns="http://www.w3.org/2000/svg" x="0" y="0" viewBox="0 0 48 48" style="enable-background:new 0 0 48 48" xml:space="preserve"><style>.st4{fill:#fff}.st9{fill:#eaeaea}.st10{fill:#d6d6d6}.st11{fill:#c1c1c1}.st12{fill:#acacac}.st13{fill:#989897}.st14{fill:#838383}.st15{fill:#6f6f6e}.st16{fill:#5a5a59}.st17{fill:#454544}.st18{fill:#313130}.st19{fill:#1c1c1b}</style><g style="opacity:.15"><path class="st4" d="M3.46 39.2c-.06 2.22.38 2.64 10.28 7.11 7.96.41 18.29.18 21.73.2 7.55.05 9.28-3.57 9.37-9.76.08-6.18.04-18.47.01-24.54-2.39-4.57-4.6-6.8-7.23-7.18H6.38c-1.62 0-2.92 1.31-2.92 2.92V39.2z"/><path class="st9" d="M3.46 39.2c-.05 2.16.46 2.67 9.62 6.73 7.24.37 19.47.16 22.59.18 7.01.05 8.71-3.37 8.78-9.14.07-5.62.03-19.63.01-25.15-2.17-4.31-4.3-6.45-6.84-6.79H6.38c-1.62 0-2.92 1.31-2.92 2.92V39.2z"/><path class="st10" d="M3.46 39.2c-.05 2.11.55 2.69 8.95 6.35 6.51.34 20.64.14 23.46.16 6.47.04 8.13-3.16 8.19-8.51.07-5.06.03-20.79.01-25.76-1.96-4.04-4-6.1-6.44-6.41H6.38c-1.62 0-2.92 1.31-2.92 2.92V39.2z"/><path class="st11" d="M3.46 39.2c-.04 2.05.63 2.72 8.28 5.97 5.79.3 21.82.13 24.32.15 5.93.04 7.55-2.96 7.61-7.89.06-4.5.03-21.95.01-26.37-1.74-3.77-3.7-5.75-6.05-6.02H6.38c-1.62 0-2.92 1.31-2.92 2.92V39.2z"/><path class="st12" d="M3.46 39.2c-.04 2 .72 2.74 7.61 5.59 5.07.26 23 .11 25.19.13 5.39.03 6.97-2.75 7.02-7.27.05-3.93.02-23.11.01-26.97-1.52-3.5-3.4-5.39-5.66-5.63H6.38c-1.62 0-2.92 1.31-2.92 2.92V39.2z"/><path class="st13" d="M3.46 39.2c-.03 1.94.8 2.77 6.94 5.21 4.34.22 24.18.1 26.05.11 4.85.03 6.39-2.54 6.44-6.65.04-3.37.02-24.27.01-27.58-1.3-3.23-3.1-5.04-5.27-5.25H6.38c-1.62 0-2.92 1.31-2.92 2.92V39.2z"/><path class="st14" d="M3.46 39.2c-.03 1.89.89 2.8 6.27 4.83 3.62.19 25.35.08 26.91.09 4.31.02 5.81-2.34 5.85-6.03.04-2.81.02-25.43 0-28.19-1.09-2.96-2.81-4.69-4.88-4.86H6.38c-1.62 0-2.92 1.31-2.92 2.92V39.2z"/><path class="st15" d="M3.46 39.2c-.02 1.83.97 2.82 5.6 4.45 2.89.15 26.53.06 27.78.07 3.77.02 5.24-2.13 5.27-5.41.03-2.25.01-26.59 0-28.8-.87-2.69-2.51-4.34-4.49-4.47H6.38c-1.62 0-2.92 1.31-2.92 2.92V39.2z"/><path class="st16" d="M3.46 39.2c-.02 1.78 1.05 2.85 4.93 4.07 2.17.11 27.71.05 28.64.05 3.23.01 4.66-1.93 4.68-4.79.02-1.69.01-27.76 0-29.41-.65-2.42-2.21-3.98-4.1-4.09H6.38c-1.62 0-2.92 1.31-2.92 2.92V39.2z"/><path class="st17" d="M3.46 39.2c-.01 1.73 1.14 2.87 4.26 3.69 1.45.07 28.88.03 29.51.04 2.69.01 4.08-1.72 4.1-4.17.01-1.12.01-28.92 0-30.02-.43-2.15-1.91-3.63-3.71-3.7H6.38c-1.62 0-2.92 1.31-2.92 2.92V39.2z"/><path class="st18" d="M3.46 39.2c-.01 1.67 1.22 2.9 3.59 3.31.72.04 30.06.02 30.37.02 2.16 0 3.5-1.52 3.51-3.55.01-.56 0-30.08 0-30.63-.22-1.88-1.61-3.28-3.32-3.31H6.38c-1.62 0-2.92 1.31-2.92 2.92V39.2z"/><path class="st19" d="M3.46 39.2c0 1.62 1.31 2.93 2.92 2.93h31.24a2.92 2.92 0 0 0 2.92-2.93V7.97c0-1.61-1.31-2.92-2.92-2.92H6.38c-1.62 0-2.92 1.31-2.92 2.92V39.2z"/></g><linearGradient id="SVGID_1_" gradientUnits="userSpaceOnUse" x1="-3507.154" y1="23.286" x2="-3470.068" y2="23.286" gradientTransform="matrix(-1 0 0 1 -3466.909 0)"><stop offset="0" style="stop-color:#fff"/><stop offset=".447" style="stop-color:#fafafa"/><stop offset=".959" style="stop-color:#ececec"/><stop offset="1" style="stop-color:#ebebeb"/></linearGradient><path d="M3.16 38.9c0 1.61 1.31 2.92 2.92 2.92h31.24c1.61 0 2.92-1.31 2.92-2.92V7.67c0-1.61-1.31-2.92-2.92-2.92H6.08c-1.61 0-2.92 1.31-2.92 2.92V38.9z" style="fill:url(#SVGID_1_)"/><path class="st4" d="M6.08 4.71h31.24c.94 0 1.77.44 2.31 1.13-.52-.5-1.23-.8-2.01-.8H6.38c-1.62 0-2.92 1.31-2.92 2.92V39.2c0 .68.23 1.3.62 1.8-.56-.53-.92-1.29-.92-2.13V7.64c0-1.62 1.31-2.93 2.92-2.93z"/><path d="M8.43 34.47c0 1.16.94 2.09 2.09 2.09h22.36c1.16 0 2.09-.94 2.09-2.09V12.1c0-1.16-.94-2.09-2.09-2.09H10.52c-1.16 0-2.09.94-2.09 2.09v22.37z" style="fill:#1b71b6"/><g style="opacity:.2"><path class="st19" d="M8.43 34.47c0 1.16.94 2.09 2.09 2.09h22.36c1.16 0 2.09-.94 2.09-2.09V12.1c0-1.16-.94-2.09-2.09-2.09H10.52c-1.16 0-2.09.94-2.09 2.09v22.37z"/><path class="st18" d="M8.7 34.49c0 1.14.93 2.07 2.07 2.07H32.9c1.14 0 2.07-.93 2.07-2.07V12.36c0-1.14-.93-2.07-2.07-2.07H10.78c-1.14 0-2.07.93-2.07 2.07v22.13z"/><path class="st17" d="M8.98 34.51c0 1.13.92 2.05 2.05 2.05h21.9c1.13 0 2.05-.92 2.05-2.05v-21.9c0-1.13-.92-2.05-2.05-2.05h-21.9c-1.13 0-2.05.92-2.05 2.05v21.9z"/><path class="st16" d="M9.26 34.53c0 1.12.91 2.03 2.03 2.03h21.67c1.12 0 2.03-.91 2.03-2.03V12.87c0-1.12-.91-2.03-2.03-2.03H11.29c-1.12 0-2.03.91-2.03 2.03v21.66z"/><path class="st15" d="M9.53 34.56c0 1.11.9 2.01 2.01 2.01h21.43c1.11 0 2.01-.9 2.01-2.01V13.12c0-1.11-.9-2.01-2.01-2.01H11.54c-1.11 0-2.01.9-2.01 2.01v21.44z"/><path class="st14" d="M9.81 34.58c0 1.1.89 1.99 1.98 1.99h21.2c1.1 0 1.98-.89 1.98-1.99v-21.2c0-1.1-.89-1.98-1.98-1.98h-21.2c-1.1 0-1.98.89-1.98 1.98v21.2z"/><path class="st13" d="M10.09 34.6c0 1.08.88 1.96 1.96 1.96h20.97c1.08 0 1.96-.88 1.96-1.96V13.63c0-1.08-.88-1.96-1.96-1.96H12.05c-1.08 0-1.96.88-1.96 1.96V34.6z"/><path class="st12" d="M10.36 34.62c0 1.07.87 1.94 1.94 1.94h20.73c1.07 0 1.94-.87 1.94-1.94V13.89c0-1.07-.87-1.94-1.94-1.94H12.3c-1.07 0-1.94.87-1.94 1.94v20.73z"/><path class="st11" d="M10.64 34.64c0 1.06.86 1.92 1.92 1.92h20.5c1.06 0 1.92-.86 1.92-1.92v-20.5c0-1.06-.86-1.92-1.92-1.92h-20.5c-1.06 0-1.92.86-1.92 1.92v20.5z"/><path class="st10" d="M10.92 34.66c0 1.05.85 1.9 1.9 1.9h20.27a1.9 1.9 0 0 0 1.9-1.9V14.4a1.9 1.9 0 0 0-1.9-1.9H12.81a1.9 1.9 0 0 0-1.9 1.9v20.26z"/><path class="st9" d="M11.19 34.69c0 1.04.84 1.88 1.88 1.88H33.1c1.04 0 1.88-.84 1.88-1.88V14.65c0-1.04-.84-1.88-1.88-1.88H13.07c-1.04 0-1.88.84-1.88 1.88v20.04z"/><path class="st4" d="M11.47 34.71c0 1.02.83 1.85 1.85 1.85h19.8c1.02 0 1.85-.83 1.85-1.85v-19.8c0-1.02-.83-1.85-1.85-1.85h-19.8c-1.02 0-1.85.83-1.85 1.85v19.8z"/></g><path class="st4" d="M22.38 18.13c.55 0 1.02-.2 1.42-.59.39-.39.59-.87.59-1.41 0-.58-.2-1.07-.59-1.45-.4-.38-.88-.57-1.42-.57-.56 0-1.03.2-1.41.59-.39.39-.59.87-.59 1.42 0 .56.2 1.03.59 1.41.39.4.86.6 1.41.6zM26.67 27.75h-1.33s-.65.01-.67-.59c-.06-.79-.12-1.44-.12-1.62l-.08-1.93c-.01-.12-.01-.27-.01-.46 0-.42 0-.76-.01-1-.01-.09-.01-.19-.01-.3l.03-.82V19.1c-1.9.9-3.58 1.47-5.05 1.71l-.3 1.37c.26.05.53.08.79.08.35 0 .68-.06.99-.19l.04 2.75c0 .67.02 1.53.04 2.38.01.55-.54.55-.54.55H19v2.95h7.67v-2.95z"/></svg>