<svg version="1.1" id="Capa_1" xmlns="http://www.w3.org/2000/svg" x="0" y="0" viewBox="0 0 48 48" style="enable-background:new 0 0 48 48" xml:space="preserve"><style>.st0{fill:#878787}</style><path class="st0" d="M4.59 15.66v19.52l11.74-9.76zM40.95 9.59H7.71c-1.53 0-2.82 1.12-3.07 2.59l15.51 12.9 2.58 2.15c.88.73 2.31.73 3.19 0l2.72-2.26 15.38-12.79a3.117 3.117 0 0 0-3.07-2.59zM44.07 35.18V15.66l-11.73 9.76z"/><path class="st0" d="m28.03 29-2.1 1.75c-.88.73-2.32.73-3.19 0l-2.71-2.25-1.58-1.32L5.77 37.72c.53.43 1.21.69 1.94.69h33.24c.73 0 1.41-.26 1.94-.69L30.22 27.18 28.03 29z"/></svg>