<svg version="1.1" id="Capa_1" xmlns="http://www.w3.org/2000/svg" x="0" y="0" viewBox="0 0 31.19 35.11" style="enable-background:new 0 0 31.19 35.11" xml:space="preserve"><style></style><switch><g><path d="M8.68 14.31c1.66 3.94 4.81 6.08 6.91 6.08 2.07 0 4.96-2.07 6.64-5.96.41-.94.76-2.15 1.01-3.33.27-.94.43-2.14.43-3.66C23.67 3.4 20.06 0 15.6 0c-4.46 0-8.07 3.4-8.07 7.44 0 1.06.07 1.97.19 2.74.16 1.4.47 2.98.96 4.13zM29.87 25.81c-1.61-1.73-6.15-1.29-8.39-2.48-1 1.87-1.01 4.93-2.67 4.93-.07 0-.14-.01-.22-.02-2.49-.37-1.25-6.74-2.99-6.74-1.75 0-.5 6.36-2.99 6.74-.08.01-.15.02-.22.02-1.66 0-1.67-3.07-2.67-4.93-2.24 1.19-6.78.75-8.39 2.48-.88.94-1.33 6.73-1.33 9.3h31.19c0-2.57-.45-8.36-1.32-9.3z"/></g></switch></svg>