<svg version="1.1" id="Capa_1" xmlns="http://www.w3.org/2000/svg" x="0" y="0" viewBox="0 0 48 48" style="enable-background:new 0 0 48 48" xml:space="preserve"><style></style><switch><g><path d="M17.09 20.51c1.66 3.94 4.81 6.08 6.91 6.08 2.07 0 4.96-2.07 6.64-5.96.41-.94.76-2.15 1.01-3.33.27-.94.43-2.14.43-3.66 0-4.04-3.62-7.44-8.07-7.44-4.46 0-8.07 3.4-8.07 7.44 0 1.06.07 1.97.19 2.74.15 1.39.46 2.97.96 4.13zM38.28 32.01c-1.61-1.73-6.15-1.29-8.39-2.48-1 1.87-1.01 4.93-2.67 4.93-.07 0-.14-.01-.22-.02-2.49-.37-1.25-6.74-2.99-6.74-1.75 0-.5 6.36-2.99 6.74-.08.01-.15.02-.22.02-1.66 0-1.67-3.07-2.67-4.93-2.24 1.19-6.78.75-8.39 2.48-.87.93-1.33 6.72-1.33 9.3H39.6c0-2.58-.45-8.37-1.32-9.3z"/></g></switch></svg>