<svg version="1.1" id="Capa_1" xmlns="http://www.w3.org/2000/svg" x="0" y="0" viewBox="0 0 48 48" style="enable-background:new 0 0 48 48" xml:space="preserve"><style>.st13{fill:gray}</style><switch><g><path class="st13" d="M24.54 45.24c-1.13-.5-1.9-1.43-2.67-2.33-2.53-2.96-4.71-6.17-6.71-9.51-1.91-3.19-3.63-6.47-4.88-9.97-.62-1.72-1.12-3.49-1.1-5.34.03-3.63 1.15-6.89 3.42-9.73 2.42-3.02 5.56-4.87 9.34-5.62.74-.15 1.51-.18 2.27-.27h1.25c.84.11 1.68.17 2.51.34 2.77.58 5.21 1.82 7.31 3.73 2.57 2.34 4.16 5.22 4.86 8.6.54 2.65.23 5.23-.66 7.77-1.08 3.07-2.51 5.97-4.1 8.79-1.73 3.06-3.63 6-5.78 8.79-1.03 1.34-2.17 2.6-3.31 3.85-.35.38-.88.6-1.33.89-.14.01-.28.01-.42.01zm.24-14.54c6.81-.03 12.34-5.44 12.35-12.33.02-6.85-5.4-12.36-12.33-12.37-6.88-.01-12.36 5.47-12.36 12.36.01 6.89 5.54 12.3 12.34 12.34z"/><path class="st13" d="M32.55 13.89c.59-.05 1.14-.51 1.7-.13.19.13.32.42.37.66.19.96-.23 1.56-1.03 1.68.17.9.44 1.8.49 2.71.08 1.74.05 3.48.03 5.21-.01.61-.5.99-1.12 1h-1.17c-.7-.01-1.14-.43-1.17-1.13-.02-.36 0-.72 0-1.12H18.93c0 .36.01.74 0 1.11-.03.74-.45 1.13-1.2 1.14H16.6c-.65-.01-1.14-.43-1.14-1.07 0-1.92 0-3.84.09-5.76.03-.7.32-1.39.49-2.08-.87-.14-1.27-.79-1.06-1.76.17-.77.53-.86 2.03-.44.3-.73.62-1.46.91-2.2.39-1.01 1.1-1.57 2.2-1.57 2.45-.01 4.89-.01 7.34-.01.68 0 1.36 0 2.04.01.98.01 1.76.55 2.12 1.46.3.76.62 1.53.93 2.29zm-7.76 2.41h6.22c.83 0 1.01-.29.69-1.06-.47-1.12-.93-2.25-1.4-3.37-.24-.58-.66-.9-1.31-.9h-8.43c-.63 0-1.04.31-1.29.87-.16.37-.31.74-.46 1.11-.33.81-.67 1.61-.99 2.42-.25.63-.06.9.62.93h6.35zm-5.44 2.2c-.46 0-.92.01-1.37 0-.36-.01-.55.15-.54.52 0 .4.01.81 0 1.21-.01.35.19.52.51.53.93.01 1.86.01 2.79 0 .31 0 .49-.16.49-.5 0-.42.01-.83.01-1.25 0-.36-.18-.52-.54-.51-.46.01-.9 0-1.35 0zm10.83 0c-.46 0-.92.01-1.37 0-.35 0-.51.17-.5.51 0 .39.01.78 0 1.17-.01.38.17.57.55.58.9.01 1.8.01 2.71 0 .35 0 .54-.17.54-.53 0-.42 0-.83-.01-1.25 0-.32-.16-.48-.49-.48h-1.43z"/></g></switch></svg>