<svg version="1.1" id="Capa_1" xmlns="http://www.w3.org/2000/svg" x="0" y="0" viewBox="0 0 48 48" style="enable-background:new 0 0 48 48" xml:space="preserve"><style>.st3{fill:#4b4d4f}</style><circle class="st3" cx="24.02" cy="25.82" r="17.82"/><path d="M6.91 25.82c0-9.61 7.5-17.02 17.12-17.02 9.61 0 17.38 8.54 17.01 17.09-.4 9.24-6.69 16.72-16.3 16.72-9.63 0-17.83-7.18-17.83-16.79z" style="fill:#fff"/><path class="st3" d="M18.35 17.53c-.04.02-.07.04-.14.06-.07.02-.08.06-.12.06-.04 0-.08.1-.1.11-.01.01-.02.02-.07.04-.04.01-.06.02-.13.01s-.03-.02-.05-.04c-.02-.02-.05 0-.09 0-.03 0-.18.09-.18.07 0-.02-.06-.01-.08-.03-.02-.02-.09.02-.14.02-.05.01 0 0 0 .07-.01.07-.02.07-.09.07-.07 0-.09.03-.12.05-.03.02-.02.06 0 .05.02 0 .05.02.16.03.11.01.05.06.05.06s-.05.03-.07.03c-.02 0-.08.01-.08.01s-.08.03-.1.02c-.01 0-.07-.02-.07-.02l-.05.05s-.04.05-.06.06c-.02.01-.06 0-.11-.05-.03-.01-.06-.01-.1-.02 0 0-.09.03-.1.04-.02.01-.05.06-.05.06s-.1.03-.15.03c-.04 0-.08.04-.11.08-.03.03-.08.05-.12.05-.04 0-.09.02-.12-.01-.03-.04.02-.04.06-.09.04-.05.08-.02.12-.03.03-.02.03-.04.04-.09.01-.05.06-.11.06-.11s.07-.07.12-.09c.05-.02.05-.06.08-.09.02-.03.01-.07.02-.13s-.01-.08-.01-.1c0-.02.03-.02.08-.05.06-.02.07-.05.12-.1.05-.04-.02-.07-.04-.11-.02-.05-.04-.07-.07-.07-.03-.01-.02-.07 0-.09.01-.02.05.02.08.04.03.01.1.08.12.11.02.03.1.04.15.08.05.03.08.01.15-.01.07-.03.05-.08.06-.1.01-.02-.03-.04-.02-.07.01-.03-.08-.06-.08-.11-.01-.05-.08-.02-.09-.05-.01-.03-.05-.07-.07-.1-.01-.03-.11-.04-.13-.04-.02.01-.11.01-.11-.01s-.05-.04-.07-.05c-.02-.01-.11-.01-.13-.03-.02-.01-.14.01-.18-.02-.03-.02-.32.03-.32.03s-.09-.01-.11-.03c-.02-.02 0-.05.01-.07.01-.03-.07-.07-.1-.08-.04 0-.05-.04-.05-.07 0-.03.06-.04.08-.06.02-.02-.07-.08-.11-.1-.04-.02-.01-.07.01-.11.03-.05-.04-.09-.04-.12s-.12 0-.15 0-.04.06-.07.08c-.03.02-.06.03-.06 0s.04-.06.03-.09c-.02-.03-.13-.13-.12-.16.01-.03-.04-.06-.04-.07 0-.02-.07-.07-.07-.07s-.11-.02-.15-.01c-.04.01-.13.04-.13.02s-.03-.04-.06-.07c-.03-.03-.13-.02-.13.02 0 .03-.06.09-.1.12-.04.03-.13.13-.12.11 0-.02-.03-.06-.06-.07-.03-.01-.09.13-.1.16-.02.03-.2.14-.27.15-.07.01-.17.05-.23.1-.07.05-.21.14-.24.16-.04.02-.19.1-.21.14v.04s.02.01.05 0c.03-.01.1-.01.16-.05.05-.04.01-.03.07-.06.05-.03.09 0 .12 0s-.01.04-.03.06c-.02.02.03.03.07.04.04 0 .08.03.12.01.04-.02 0 0 .08-.03s.05.01.13-.01.07-.04.13-.09c.06-.06.08-.06.16-.11s.11-.08.16-.11l.11.08c-.06.03-.11.06-.19.1-.08.04.02.03.07.02.05-.01.09.01.16.04.06.02.09.12.14.09.05-.03.07.04.1.05.04.01.08.02.12.02.04-.01.07-.03.15-.08.08-.05.09 0 .16-.02s.1.01.14.01c.04 0 .02.02.05.06.04.05.05.03.08.03s.08.02.14.06c.05.04.08.08.05.07-.03-.01 0 0-.05-.01s-.05.01-.11 0-.06.01-.14-.01c-.08-.01-.07 0-.1-.02s-.03.03-.07.05c-.04.03-.03 0-.09 0-.07 0-.08.03-.1.04-.02 0-.05.06-.11.08-.06.02-.03 0-.09-.01s-.1 0-.13-.02c-.02-.01-.05.04-.06.11-.01.07-.01.02-.06.1-.05.08-.04.06-.1.12-.06.06-.05.1-.03.11.01.01.02 0 .1-.08.07-.08.15-.22.17-.24.02-.02 0 .03.01.08s-.02.06-.03.11c0 .04-.03.08-.07.16-.04.07-.06.08-.1.11-.04.03-.04.04-.07.1-.03.06 0 .18 0 .22 0 .04-.02.04-.08.12-.05.07-.01.15 0 .18.01.04.03.19.05.23.02.04.2.07.2.07.02-.01.08-.04.14-.08.06-.04.02-.07.04-.11.02-.04.06-.1.09-.16.03-.07.04-.09.05-.17.01-.08-.05-.08-.07-.12-.03-.03-.03-.05-.04-.07 0-.02.01-.1.05-.13s.04-.06.03-.09c-.01-.02.01-.08.02-.12.01-.04.05-.06.08-.09.04-.03.03-.04.08-.07.05-.03.03-.02.07.05.05.07.03-.01.08-.07.05-.06 0-.03.04-.1s.02-.05.09-.11c.07-.06.06-.05.06-.05s.04.04.08.02c.03-.02.12.02.15.01s.15.06.18.07c.03.01.06.11.03.14-.02.03-.02.22-.03.29-.01.07-.03.06-.02.07 0 .01-.03.03-.11.05-.08.02-.07.03-.11.05-.04.03.05.08.1.08.05-.01.06-.05.12-.09.06-.04.04-.07.09-.09.06-.02.03.04.05.05.02 0 .05.01.08.06.03.05-.02.09 0 .12.01.02.01.1.02.12.01.03-.01.07-.04.09-.03.02-.04.03-.07.05-.03.02-.11.2-.19.26-.07.06-.02.03-.07.07-.05.05 0 0 .01.03s.06.03.1.04c.04 0 .08.02.11.03.03.01.13.05.2.02.07-.03.25-.05.31-.07.06-.03.05-.04.1-.07.06-.03.1 0 .1 0s.08-.03.14-.05c.05-.02.11-.02.13-.04.02-.01.07-.11.07-.11s.09-.03.15-.06.09-.06.11-.11c.02-.04.02-.08.02-.16 0-.04.14-.01.18-.01.04-.01.09.01.15 0 .05-.01.05 0 .17.05.12.05.06-.02.12-.06.02-.01.03-.01.08-.02.05-.02.03-.02.07-.05.04-.03.02-.04.05-.09.03-.06 0-.06.01-.11.01-.06.05-.03.11-.07.06-.04.27-.24.3-.27.02-.03 0 0-.04.01-.12-.04-.18.04-.22.06zM12.14 15c-.03-.01-.06-.13-.07-.14 0-.02-.01-.08-.03-.1-.02-.02-.04-.07-.02-.13s-.01-.09-.03-.08c-.03 0-.07-.04-.06-.06.01-.02.06-.1.04-.13-.02-.02-.07-.04-.1-.07-.03-.03-.13-.05-.05-.09.08-.04.06-.03.14-.08.08-.05.1-.07.05-.07s-.09.05-.09.02c-.01-.04-.03-.14-.03-.14s-.11.26-.15.27c-.04.01-.13.01-.15.01-.02 0-.06.06-.1.11-.03.05-.09.07-.07.12.02.05-.01.09.05.08.05-.01.11-.03.14-.02.03.01-.06.07-.06.11-.01.04.01.07.06.12.05.04.13.14.12.17 0 .04.09-.03.11-.02.06.01.08.06.08.08 0 .02.02.05-.01.11s.01.06.03.04c.02-.02.1-.07.1-.07s.01.05 0 .11-.04.1-.06.15c-.02.05-.03.07-.04.13 0 .06-.03.06.02.1.05.04.1-.03.16-.1a.57.57 0 0 0 .08-.16c0-.03 0-.12-.01-.14 0-.04-.02-.12-.05-.13z"/><path class="st3" d="M39.85 19.41s.01-.03.03-.06c-.13-.31-.26-.62-.4-.92-.03 0-.09.05-.14-.02-.04-.07-.05-.14-.07-.15-.02-.01-.16-.09-.22-.08-.06.01-.22-.07-.22-.07s-.01-.1-.04-.1c-.03-.01-.13-.09-.17-.12a.911.911 0 0 0-.12-.11c-.01-.01 0 .01-.07-.05-.07-.05-.11-.11-.13-.13a.567.567 0 0 1-.08-.13c-.01-.03-.05-.1-.05-.15 0-.05-.01-.11-.04-.12-.03-.01-.13-.05-.16-.05-.02 0-.09.03-.12.01-.03-.02-.05-.07-.08-.05-.03.01-.05-.02-.1.01s-.07-.01-.11.01c-.03.02-.06.06-.09.09-.02.03-.02.02-.05.03-.02.02-.01-.07-.08-.01-.08.07-.11.09-.12.12-.02.03 0-.04-.08.04s-.2.17-.23.18c-.03 0-.18-.04-.2-.04-.03 0-.1.01-.12-.01-.02-.02-.03-.07-.09-.08-.06 0-.14-.01-.18-.01-.04 0-.06-.04-.11-.02s-.16.05-.17.08c-.01.03-.11.1-.13.15-.02.05-.04.03-.02.1.01.03.02.06.02.09.01.04.03.08.03.1.01.03.03.03-.01.08-.03.05-.05.07-.08.09-.03.02-.04-.06-.11.02-.08.09-.15.13-.15.13s-.08.02-.11.04-.1.01-.12.03c-.02.02-.11.08-.11.08s-.09.03-.1.04c-.02.01-.12.06-.12.08 0 .02-.06.06-.05.08 0 .01-.09.19-.11.23-.02.04-.05.04-.05.09 0 .04-.03.05-.02.12.01.07.02.08.05.11.03.03.07.03.09.07.01.05-.01.07-.02.08-.01.02-.1.05-.12.06-.02.01-.04.01-.07.05-.03.05-.04.06-.06.1-.03.04-.06.05-.08.08-.01.03-.03.01-.04.05-.02.04-.15.08-.15.08s-.06.03-.08.06c-.02.03-.12.13-.12.13-.03.01-.05.03-.08.04l-.06.03s-.12-.03-.14-.01c-.02.02-.08.04-.08.04s-.04-.04-.07-.04a.7.7 0 0 0-.14.03c-.03 0-.06.01-.1 0-.03-.01-.06-.01-.08 0-.05.04-.17.07-.19.07-.02 0-.05.04-.08.07-.03.03-.09.07-.1.07-.02 0-.13-.04-.13-.06-.01-.02-.11-.13-.12-.15-.01-.02 0-.11-.03-.12-.03-.01-.12-.04-.14-.05-.02-.01-.03-.04-.07-.02-.02.01-.04 0-.06 0-.02 0-.04 0-.05.02-.03.03-.01.03-.07.04-.06.01-.09 0-.09 0l-.11-.04c-.03-.01-.06-.02-.1 0-.03.02-.08.03-.08.03s-.05 0-.03-.04c.02-.04.01-.12.04-.15s.05-.11.05-.15c0-.03-.01-.08-.02-.1l-.04-.08c-.06-.01-.11 0-.11-.03s.01-.1-.01-.12c-.02-.02-.02-.02-.02-.06 0-.04-.02-.04.03-.1.05-.07.07-.06.08-.12.01-.07.16-.4.15-.43 0-.02-.01-.1-.01-.13s0-.12-.01-.13c-.01-.02-.03-.04-.04-.09-.01-.05-.02-.07-.01-.12 0-.01 0-.01.01-.02.01-.05.01-.09.01-.11-.01-.03 0-.01-.03-.07-.03-.06-.03-.08-.05-.09-.02-.01-.05-.03-.04-.06.01-.03.03-.08.08-.1.05-.01.12-.05.14-.04.02.01.08.01.11-.02.03-.02.05-.08.07-.1.02-.02.05-.06.1-.05.04 0 .08.02.11.05.03.03.04.02.07.04.03.03.02.01.08.01.07-.01.08-.02.1-.02.01 0 .2-.04.21-.03.01.01.1.02.1.04s.06-.01.11.01c.04.01.15.03.15.03s.04 0 .09-.02c.05-.01.13-.04.13-.04s-.01-.02.06 0c.08.02.09.04.15.04s.13-.04.15-.02c.03.02.05.01.09.01.04.01.07 0 .11.02.04.01.03-.02.09-.01s.05.02.09-.02c0 0 .01 0 .01-.01.06-.06.07-.04.09-.1.02-.06.07-.32.08-.36.01-.05-.02-.21-.02-.21l.03-.11s.02-.07.01-.09a.425.425 0 0 1-.02-.11c0-.03.02-.06-.04-.07-.06-.01-.07-.06-.1-.08-.03-.02-.04-.04-.08-.08-.03-.05-.08-.09-.08-.11 0-.02.02-.04.02-.07 0-.02-.03-.06-.05-.07-.02 0-.01-.06-.06-.06-.04 0-.05-.02-.08-.02s-.03-.05-.09-.03c-.07.02-.1-.03-.12-.06a.32.32 0 0 0-.07-.06c-.02.01 0-.02-.06-.01s-.14.01-.16-.02c-.02-.02-.06-.05-.05-.1.01-.05-.07-.11-.03-.15.04-.04.13-.12.15-.12.02-.01.02.03.08 0s.09.01.11 0c.02-.01.05-.03.08-.04.03-.01.04 0 .06.01.02.01.06-.03.09.01s.03.04.09.05c.06.01.11-.03.16-.01.05.03.07 0 .11.02.04.01.09.06.08 0-.01-.06.01-.13-.03-.14-.04-.01-.05-.09-.06-.12-.01-.03-.01-.06-.04-.08-.02-.02-.06-.06-.01-.06.05-.01.15.01.19.02.04.02.12.03.14.07.02.04.08.03.11.04.03.01.18-.03.19-.01.01.02.11.02.11-.02.01-.05.02-.06.02-.1 0-.04.04-.06.04-.06l.1-.03c.04-.01.09-.03.12-.05.04-.02.15-.09.15-.09s-.03-.12-.02-.14c.01-.02-.01-.08.03-.1.04-.03.13-.12.15-.11.01.02.02-.02.06-.01.01 0 .03 0 .05-.01.04-.01.08-.04.08-.04.01-.02.12-.09.12-.09a.55.55 0 0 0 .09-.07c.06-.02.13-.06.14-.07.01-.01.07-.08.11-.11a17.328 17.328 0 0 0-6.86-4.44c-.02.02-.02.01-.02.03 0 .03.04.03.08.06s.04.01.05.03c.01.02.05.04.05.06 0 .02 0 .06-.02.09-.02.02-.01.01-.02.03 0 .03-.01.1-.01.1s.02.03 0 .04c-.01.02-.04.02-.05.03-.01.01-.05 0-.03.03.01.03.04.03.05.06.01.04-.02.04-.04.06-.02.02-.05 0-.06.02-.01.02-.01.03-.02.1s.02.06.01.1c-.02.04 0-.01-.06.03-.05.04-.06.02-.07.06-.01.04.03 0-.01.04s-.08 0-.12.02c-.04.02-.1-.02-.07.03s.05.04.08.06c.03.02.06 0 .04.04-.01.04-.05.06-.06.07-.01.02-.03-.02-.06-.01-.03.02-.04.01-.04.04.01.04-.06.05-.06.05s0-.07-.01-.07-.07 0-.08-.01c-.01 0 .01-.05-.03-.03-.04.02-.09.04-.11.06-.02.02-.06-.02-.05-.04 0-.02.02-.07.03-.07.01 0 .04-.05.01-.04-.03.01-.06.03-.07 0-.02-.03.01-.08.01-.08s-.08.02-.1.02c-.03.01-.1-.01-.09-.03.01-.02.02-.05.03-.07.01-.01.04-.03.05-.04.01-.01.05-.08.05-.08 0-.03-.01-.06-.01-.09 0 0-.09.08-.1.08-.01 0-.05-.03-.05-.03v-.04c0-.01 0-.07-.04-.01-.04.06-.03.04-.04.08-.01.04-.08.04-.1.04-.01 0-.04.01-.05.02-.01.01-.07.06-.09.05-.02 0-.09.02-.09 0-.01-.02.01-.05-.01-.05-.01 0-.05.01-.07.02-.02.01-.04.05-.05.07-.02.02-.01 0-.05.02-.03.02 0 .03-.05.01-.05-.01-.06-.02-.06-.02 0-.05 0-.1-.01-.15.01-.01.03-.01.04-.02.01-.01.02-.01.03-.02 0 0 0-.02-.01-.02h-.03v-.05l-.01-.03c-.01 0-.02.03-.02.03-.01.01-.03.02-.04.04 0 0-.03.02-.04.02 0 0-.02-.01-.03-.02-.01 0-.02-.02-.02-.03 0-.01 0-.02.01-.02l.03-.03c0-.01.01-.02 0-.03-.01 0-.02-.03-.03-.03-.01 0-.03-.02-.04-.02-.01 0-.01-.01-.03-.01-.01.01-.02 0-.02-.01s-.01-.02 0-.03c.01-.01.01-.02.01-.02 0-.01.01-.03 0-.03s-.03 0-.03-.01-.02-.01 0-.02c.02-.02.01-.02.02-.02s.04-.02.04-.02.01-.02 0-.02-.02-.03-.04-.02c-.02.01-.02 0-.02-.02s.07-.05.01-.03c-.06.02-.09.05-.09.05s-.01-.01-.01 0c-.01 0-.04-.02-.04-.02s-.01-.02-.02-.03c0 0-.01-.02 0-.03.01-.01.02-.04.02-.04l-.01-.02s0-.01-.01-.01h-.02c-.01 0 0-.02-.02-.02-.02-.01-.02-.01-.03-.01-.02 0-.02.01-.03 0-.01-.01-.01-.02-.02-.03-.01-.01-.01-.02-.01-.04s.01-.04.01-.04l.03-.03.04-.03.02-.04-.02-.04s-.01-.01 0-.02c0-.01.02-.02.03-.03.01-.01.02-.04.01-.04 0 0-.04 0-.05.01-.01.01-.05.02-.07 0a.678.678 0 0 0-.09-.06c.02-.01.05-.02.07-.03 0 0-.02-.01-.03 0-.01.01-.06-.01-.07-.01-.02 0-.04-.01-.04-.01 0-.01.06-.06.05-.06l-.04-.03c.01-.01.01-.02.02-.03l.02-.03c0-.01.01-.03-.02-.03s-.03-.02-.06 0-.06.03-.06.02c0 0-.01-.02-.02-.02-.01-.01.05-.1.05-.09l.01-.02s.01-.01.01-.02c0 0 .03-.01.04 0 .01 0 .02-.02.03-.01 0 .01.01-.01.02-.01l.03-.07c.01 0 .02-.01.03-.01l-.31-.06c-.01.01-.02.01-.02.01s-.01-.01-.01-.02c-.99-.17-2-.27-3.04-.27-.13 0-.25.01-.38.01-.01.02-.03.05-.03.06-.01.02-.06.07-.08.07-.02 0-.03-.03-.03-.05-.01-.02-.04 0-.06 0-.02 0-.06 0-.05-.04 0-.01 0-.01-.01-.02h-.08c-.01 0-.02.01-.02.01h-.03c-.22.01-.43.02-.65.04.01-.01 0 .05 0 .06 0 .01-.01.1 0 .08.02-.01.05.01.07-.01.03-.01.02.01.06.03.01.01 0 .03.02.04.02.01.02.01.05 0 .02-.02.03-.03.06-.05.03-.02.01.03.02.04.01.01.01.04.03.03.02-.01.04.05.08.06.04 0-.02.06-.02.08 0 .01-.01.06-.03.06-.01 0-.01.04 0 .05.01.01.01.04.03.04.02 0 .02.03.06.02.04-.01.02.04.02.07v.03c0 .01-.01.05.01.05s.01.06.02.05c.01-.01 0 .07 0 .07s-.02.07-.02.08c0-.01-.03-.01-.03-.01l-.06.03s0 .04.01.03c.02 0 .01.06.01.06s-.01.06-.04.1c-.01.01-.05-.04-.05-.05 0-.01-.03.03-.04.04-.01.01 0 .03.02.05.02.01.03.03.03.03s0 .03.02.03.01.04.01.04-.04.06-.04.07c-.01.01.01-.02-.01-.06-.01-.01-.03.01-.03 0s-.03-.04-.03-.04c0-.02-.01-.03-.01-.05 0 0-.03 0-.04-.02-.01-.02-.05 0-.05 0s.01-.05.01-.06c-.01-.08-.02-.01-.08-.01s-.05.01-.07 0c-.02-.01-.07-.05-.06-.08 0-.03-.07-.02-.07-.02l-.11-.05c-.02-.01-.15-.07-.17-.1-.01-.03-.04-.02-.04-.03 0-.02-.06-.01-.07-.03 0-.02-.05-.01-.06-.02-.01-.01-.04-.01-.05-.02-.01 0-.06.03-.06.03s0 .03.01.05c.01.02.01.03.02.03s.01.03.05.06.01.02.04.04 0 .05.01.06c.01.01.02.03.18.08s.03.04.06.06c.03.02.04.05.04.07 0 .02.13.12.19.16.07.04.02.02.03.04.01.02-.01.06 0 .07.01.01 0 .02-.01.05-.01.03-.01.04-.02.05-.02.01-.03.02-.04.02-.01.01-.04-.01-.04-.02-.01-.01-.07-.02-.07-.02s-.06-.03-.08-.06c-.02-.03-.04.01-.08.01-.04-.01-.04-.02-.05-.03-.01-.01-.06.01-.09.01-.02 0-.02 0-.04-.01s-.04 0-.06-.01c-.02-.02-.06 0-.06-.01a.296.296 0 0 0-.1-.02c-.03 0-.05-.02-.06-.06-.02-.04-.02 0-.04-.03-.02-.02-.05-.01-.05-.02-.01-.01-.03-.02-.03-.04.01-.01-.04-.01-.09-.07-.05-.06-.05.01-.06.01-.02 0-.06.02-.06.02s-.02.04-.03.05c-.01.01-.02.02-.03.04-.01.02-.09.02-.1-.01-.08-.03-.09-.01-.07-.04.02-.03-.05-.03-.05-.04 0-.01.01-.01.05-.05.05-.03-.03-.04-.04-.06-.01-.02-.01-.04-.03-.05-.02-.01-.05.01-.06 0-.01-.01-.05.01-.08-.04 0-.01-.05-.04-.07-.07-.02-.02-.01-.02.03-.06.04-.03.05 0 .09-.02.05-.02.05-.01.08-.04s-.02-.02-.04-.06c-.02-.04-.04-.01-.06-.02-.02-.01-.09 0-.09-.01s-.07 0-.08.01c-.02.01-.07.04-.08.03-.01-.01-.03-.02-.02-.04.01-.02.04-.02.04-.08 0-.01-.06-.01-.08-.02-.03-.01-.03 0-.03-.04s.09-.01.08-.03c-.01-.02-.04 0-.06.01-.02 0-.05-.02-.09-.07-.04-.05-.01-.02 0-.07.01-.06-.01-.03-.01-.04 0-.01-.07 0-.09-.02-.02-.02-.03 0-.04-.02-.01-.01-.01.02-.02.04s-.05.07-.05.07c-.01 0-.03-.04-.02-.08 0-.03-.02-.02-.01-.05.01-.03-.01-.03-.02-.04-.04.01-.08.02-.11.02.01 0 .01.01.02.01.03.01.01.04.02.05 0 .01-.03.05-.03.05s-.07.02-.08.01c-.01-.01-.04.02-.06.02-.02 0-.05.02-.05.01-.01-.01-.05-.03-.06-.04-.01-.01-.03-.01-.05-.02-.02 0-.04.02-.05.04-.01.02-.03.04-.03.04s-.04.04-.06.04c-.02.01-.01.01-.14.03-.13.02-.03.01-.06-.02-.02 0-.04 0-.06-.01 0 0-.06.03-.1.03-.04 0-.06.02-.06.02s-.01-.01-.01-.03c-.32.09-.63.19-.93.29.02.08.01.06-.06.12-.08.06-.09.07-.21.06 0 0-.11-.01-.15-.03-1.57.59-3.02 1.39-4.33 2.38.03-.01.06-.03.09-.04.02-.01.03.01.09.02.06.02.05 0 .13.06.08.05.02.02.02.06.01.03-.02.07.01.12.03.04.01.08.02.12.01.03 0 .05.04.12.03.06.03.06.03.08 0 .02-.02.04-.08.08-.06.05-.04.04-.06.07-.02.03.04.02.08.02.03 0 .08-.01.13-.03.04-.01.11-.04.17-.07.05-.03.07 0 .25-.04s.04 0 .08 0 .04.02.07.04c.03.02.01.06.04.08.03.02.05 0 .1-.02s.06.03.1.02c.04 0 .03.04.11.07.02 0 .05.01.07.01 0 0 .07.02.09.03.02.01.07.02.08.05.01.03 0 .03.1.07.1.04 0 .05.07.14.02.03.05.01.08 0 .04-.01.05-.01.19.03s.04.06.11.09c.02.01.02.02.12.01.1-.01.04.03.12.17.07-.03 0 0 .08-.04s.06-.01.13-.02.08-.01.14-.01c.06 0 .02.05.05.07.03.02.12.01.18 0s.1-.02.14-.03c.04-.01.1 0 .14.03.04.03 0 .01 0 .04 0 .01.01.02.02.03.08.12.02.07.01.1s-.05.07-.07.08c-.02.02-.03.08-.04.11-.01.03.04.07.04.07-.01.02-.01.05-.02.07 0 0-.02.09.03.13.04.04-.01.05-.01.08-.01.03 0 .03-.03.1-.02.07-.03.04-.04.06-.01.02 0 .03.03.05.02.03 0 .06.04.07.04 0 .02.03.06.03.04 0 .01.03.1.09.01 0 .01 0 .01.01.04.03.01.02 0 0-.01.01-.04.03-.08.08-.08.09 0 0 .09 0 .03 0 .03.05.12.08.08.03.01.03.04.05.03.02.05.05.08.05.03.01 0 .03-.01.09s0 0-.04.06c0 0-.02.03-.07.07-.07.07-.08.09-.08.09.03-.03.06-.03.17-.08.03-.01.09-.03.15 0s.13.18.11.11c-.02-.07-.06-.04-.05-.1.01-.07 0-.03.06-.09s.04-.03.11 0c.02.01.07.04.08.07.01.03.08-.07.1-.1.02-.04-.01-.05-.07-.11-.02-.02.01-.04.04-.07.03-.03.05-.07.07-.09.02-.02.06-.01.07-.04.01-.03-.03-.06-.02-.12 0-.06-.07-.02-.08-.04a.461.461 0 0 1-.01-.18c.02-.07-.01-.09.01-.15s0-.05.04-.1-.05-.06-.06-.09c-.01-.03-.01-.04-.01-.12.01-.08.01-.07.02-.09.01-.02-.1-.08-.09-.14.01-.05.01-.05.08-.1s.04.04.1.01c.06-.02.13-.01.16-.02s.1-.05.14-.07c.03-.02 0 0 .06-.05s.09-.08.14-.12c.04-.04.1-.06.2-.11.11-.05.09-.11.12-.13.02-.01.04-.08.04-.08s0-.06-.01-.11c-.01-.04.04-.15.04-.15.09-.16.04-.12.05-.18.01-.07 0-.04.01-.07.01-.03-.01-.04-.02-.08-.01-.05-.05-.08-.07-.15-.02-.07-.06-.06-.05-.08 0-.03-.11-.01-.18-.08-.06-.06-.18-.07-.23-.08-.05 0 .07-.1.1-.13s.05-.07.05-.07.06-.02.12-.08c.07-.06.05-.06.09-.16.01-.04.1-.03.13-.05.03-.02.02-.1.02-.13s-.04-.06-.03-.09c.02-.04 0-.05.02-.1.01-.05-.04-.09-.06-.14-.02-.05-.02-.05 0-.09.02-.04.03-.05.06-.1.03-.04 0-.12.07-.19.06-.08 0 0-.01-.05s-.03-.07-.02-.15c0-.08-.06-.04-.04-.13.02-.09.02-.05.06-.1.05-.05.1-.04.16-.08s.07-.03.13-.05c.06-.02.06.04.09.06.02.02.05.03.18-.03.13-.05.04.03.08.03s.01.03.02.08c.02.05.02.04.08-.01s.02.01.06-.01c.04-.02.05 0 .08 0 .03.01.02.03.07.07.04.04 0 0 .07-.03s.05-.03.1-.05c.05-.02.11-.03.21 0 0 0-.01-.03.12-.04.13-.01.05.06.1.08.05.02.03.07.04.09.01.02-.02.08 0 .07.02-.01.08.02.13.01.05 0 .04.06.07.07.03.01 0 .03 0 .12 0 .02.04.08.04.08.03.01.08 0 .13.05.02 0 .04.01.06.01 0 0 .12-.03.14-.03.02-.01-.05.07.04.06.09-.01.07-.04.12-.04.05 0 .02.01.11.03 0 0-.01.05-.13.19-.12.13-.02.08-.03.12-.01.04.02.03.01.11s-.05.09-.06.11c0 .02.01.04 0 .09 0 .05.06.03.06.18s.02-.06.03.05c0 .04 0 .05.01.06 0 0 0-.01-.01.01-.01.04-.04.02-.07.03-.04.02-.05-.01-.1-.02s-.04.09.04.15 0 0 .1-.06c.02-.01.18-.09.25-.09.08 0 0 0 .04.04s0 .13.02.14c.02.01-.02.04-.08.11-.05.07-.01.1.06.07.07-.04 0 0 .09-.08s.03-.03.08-.02c.05.01-.03.13.05.07.04-.06 0 0 .12-.05.04-.02.09 0 .09-.05v-.02s.02-.01.04-.03c.06-.07 0 0 .08-.06.09-.07 0 0 .06-.03s.03.11.1.12c.05.01 0-.1.14-.2.13-.1-.02-.03-.03-.05-.01-.03.06-.05.07-.13.01-.08.05 0 .09-.03.03-.03 0-.04-.01-.08s-.03-.05-.02-.09c.02-.05.1.01.13-.08.03-.08 0 0 .04-.05s.01-.04.16-.18c.04-.03.02.03.02.09 0 .05-.02.08.03.09.05.01.02.09.05.13.03.04.07.05.09.06.02.01.01.04.01.07 0 .03-.09-.12.02.06.03.05.04.07.05.09.01.01.02.02.03.02.02 0-.04.15-.01.2.03.05.04.02.08.02.03 0 .02.03.05.08.03.05-.02.08.02.08.04.01.04.03.09.05.05.03.09.06.14.1.05.04-.04.06-.07.07-.02.01-.03.06.01.09.03.03.04.08.08.09.04.01.02.13.05.13.03 0-.03.1-.03.1s-.05.02-.14.03c-.09.01 0 .06 0 .06s.02.07.07.05c.05-.02.03.06.06.06s.02.1.06.11c.04.01.04.09.07.09.03 0-.05-.05.03-.04.09.01 0 0 .04.01s0 0 .03.04.04.07.04.07 0 .15.02.14c.02-.02.05.02.07.02.03 0 .09.02.09.04s-.05.1-.05.1.06 0 .1-.04c.04-.05.05-.04.09-.08.04-.04.06.04.08.06.02.02-.01.06.02.1s.03.01.1-.01c.07-.03.11-.03.18-.04.07-.01 0 .07.04.14.01.02.13.06.13.06-.04.02-.07.03-.1.05-.04.01-.08.03-.12.04 0 0-.11.02-.13.04-.02.02-.14.03-.16.01-.02-.01-.06.01-.08.05-.02.03-.06.03-.07.05-.01.02-.1.05-.11.08-.01.04-.18.02-.21.03-.04.01-.05.05-.02.08.03.03.08.04.1.04.02 0 .12-.06.2-.1.08-.04.09-.06.09-.06a.37.37 0 0 1 .11-.05s.1-.06.14-.08c.04-.02.14-.04.2-.04s.08-.01.08.11-.05.17 0 .16c.05-.01.03-.07.04-.09.01-.02.05-.08.09-.07.04.01.14.01.18.03.05.02.13.07.18.1.05.03-.01.06-.03.12-.01.05.03.07.03.13s-.08.08-.12.16c.01.03.02.06.03.08.03.04.05.07.08.1-.02.03-.04.07-.06.1l-.13.1s-.18.07-.19.06c-.02-.01-.11.02-.17.05-.05.03-.16.03-.2.03-.04.01-.11.01-.13.03-.02.02-.12.08-.13.13-.01.05-.21.12-.26.17-.05.06-.11.04-.13.04-.02.01-.22.11-.25.11-.04-.01-.15.03-.15.03-.09 0-.17 0-.26.01-.02-.02-.04-.03-.07-.05 0 0-.18.03-.2.02-.03-.01-.1.02-.12 0-.01 0-.02-.02-.04-.03-.02-.01-.04-.03-.05-.04-.02-.01-.13.03-.19.04-.06.01-.09.02-.11.02-.03 0-.38.02-.38.02l-.09.03s-.16.07-.18.08c-.02.01-.14.14-.14.14-.03.03-.06.06-.09.1l-.15.08c-.02.01-.08.01-.1.01-.02 0-.06.01-.06.01s-.08.04-.1.06c-.02.02-.08.09-.1.13-.02.03-.1.06-.16.08-.05.01-.04.03-.07.07-.02.04-.06.07-.08.1-.03.03-.1.1-.13.12l-.17.11s-.11.21-.08.15c0 0 .08-.07.25-.2.17-.13.05-.03.11-.08.06-.04.15-.13.26-.2.11-.07.07-.06.14-.08.07-.03.16-.08.2-.12.04-.03.06-.01.16-.04s.11-.03.14-.04c.04-.01.05-.03.12-.06.07-.03.05-.02.07-.04.02-.02.19-.05.22-.06.03-.02.1.01.1.01s.15.01.19.04c.04.03.07.07.09.11.02.03.12.05.11.09-.01.04-.09.08-.13.13-.04.04-.1.05-.14.09-.05.03-.3.03-.3.03s.04.05.06.06c.02.01.04.03.03.06-.01.03.17-.07.2-.05.03.02.04.05.05.09.01.04-.16.16-.16.16l.06.1c.01.02.06.09.08.09.02 0 .02.06.02.06s-.01.05 0 .07c.01.02.06.05.06.05s.04 0 .1.04c0 0 .03.08.1.09.04 0 .09-.01.13-.01 0 0 .02.11.08.1.05-.01.17-.06.22-.06.05 0 .05.08.07.05.02-.03.05-.04.13-.08s.11.01.15 0c.04-.01-.02.07 0 .1.02.04.09.08.09.08-.04 0-.08.01-.12.01 0 0-.08.05-.1.08-.02.03-.18.08-.24.1-.06.02-.17.04-.22.06-.05.01-.18.05-.25.06-.07.01-.13.05-.16.06a.14.14 0 0 0-.08.1c-.02.06-.17.13-.2.17-.03.03-.14.05-.2.07-.06.01-.09-.03-.15-.02-.06 0-.05-.04-.02-.1.02-.05-.04-.07.01-.1s.06-.08.13-.14c.07-.06.1-.09.2-.15s.05-.01.09-.02c.04-.01 0 .03.18-.05.17-.08.06 0 .14 0 .08 0 .06-.03.07-.06.01-.03-.04-.05-.07-.06-.03-.01-.11.02-.16.04s-.06-.01-.03-.06c0 0 .02-.07-.02-.07-.04.01 0 0-.03 0s-.03.07-.06.08l-.13.04c-.03 0-.14.04-.16.06-.02.01-.09-.06-.09-.06l-.08.08c-.04.04-.12.02-.19.01-.01 0-.01.01-.01.02.03-.01.04-.01 0 .12-.01.07-.08.03-.1.01-.02-.02-.05.04-.06.06-.01.02-.05.03-.05.03-.06.02-.12.04-.19.06 0 0-.11.02-.13.02-.02 0-.09-.01-.13.05 0 0-.05.08-.06.1 0 .03-.09.01-.14.04-.05.02.04-.04-.11-.01-.15.04-.02.03-.1.08-.07.06-.06.09-.14.13-.07.04-.08.08-.08.15 0 .08-.01.04-.06.13-.05.09 0 0 .03.07s-.01.05.01.1.04.07.05.09c.01.03-.09.06-.12.08-.03.03-.08.02-.08.02s-.05.08-.09.1c-.04.03 0 0-.07.02-.03.01-.09-.05-.23.04s-.04.02-.08.01c-.04 0-.09.01-.14 0-.05-.01-.06.05-.1.06-.04.02-.06.04-.06.04l-.11.08.03-.13s-.07.02-.09.04a.19.19 0 0 0-.04.12c0 .05.08.03.1.07.02.04-.03.08-.03.13-.01.05-.06.07-.03.12.02.05-.15.16-.2.19-.05.03-.04.01-.06.01-.02 0-.04 0-.08.01-.03 0-.06-.04-.08-.07 0 .02 0 .05.01.08 0 .08.03.03.02.07 0 .04.05.06.06.12.01.05-.03.08-.03.1 0 .02-.02.03-.07.07-.05.04-.03.06-.04.12-.01.05-.07.09-.13.03-.07-.05.04-.08.04-.13-.01-.06-.06-.04-.09-.11s0 0 0-.11.08-.26.03-.24c-.05.02-.01.09-.13.29-.12.2-.03.01-.1.03-.07.02.01.05.01.18 0 .05.05.1.05.1s.05.03.05.08-.07 0-.12.02c-.05.01.02.03.07.07.06.04.04.05.11.05.06-.01.06.03.06.06s-.02.07-.01.13c.01.07-.04.06-.04.06s-.02.04-.02.09c.01.05.03.01.13.06 0 0-.01.05-.02.08s-.08.06-.16.11c-.03.02-.03-.01-.12 0-.08.01-.02.03-.05.05-.03.03 0 .05.14.11.01.01-.05.05-.1.08s-.05.01-.06-.01c-.02-.02-.12.05-.14.08-.02.03-.06.03-.17.16-.11.13-.05.06-.08.07-.03 0-.08.02-.16-.01s-.05.01-.11.06c-.06.04-.06.07-.09.12-.04.04-.05.05-.09.08-.03.03-.03.03-.15.11-.04.03-.16.12-.25.2-.09.08-.05.05-.08.11-.02.06-.07.1-.12.17-.04.07-.01.03-.01.14 0 .11.05.04-.01.12-.06.08 0 .06.01.12s0 .06.03.14c.02.08.09.09.11.11.02.03.07.07.08.11.01.04-.01.04-.04.11-.03.06 0 .05.04.2.04.15 0 0 .02.07s0 .08.05.11.02.06.06.1c.05.04.03.03.05.07.02.04 0 .03-.01.06s-.02.04 0 .14c.02.09 0 .1.03.11.03.01-.01.09-.01.09s-.04.06-.06.1c-.02.04-.03.08-.03.08-.02.03-.06.05-.08.08 0-.03-.06-.03-.08-.04-.02-.01-.06-.02-.07-.04a.754.754 0 0 1-.04-.15c-.01-.05-.05-.03-.08-.03-.03.01-.06 0-.06 0a.996.996 0 0 1-.1-.11c-.03.03.01-.05.01-.09 0-.04-.03-.08-.04-.1-.01-.02-.04-.07-.04-.07s-.03-.07-.09-.1c-.06-.02-.02-.05-.12-.13-.02-.01.01-.07.01-.11 0-.04-.01-.09.04-.18 0-.02 0-.04-.01-.07 0 0-.05-.07-.06-.1-.01-.02-.05-.07-.07-.11-.02-.04-.07-.03-.08-.07-.02-.04-.07-.05-.11-.08-.04-.02-.04-.02-.06-.05-.03-.03 0-.03-.11.01l-.1.05c-.02.01-.1.03-.18.04 0 0-.1-.03-.09-.06 0-.03-.08-.08-.08-.08a.488.488 0 0 1-.03-.07l-.14-.03s-.15-.01-.17-.01c-.02-.01-.08-.01-.12-.01a.12.12 0 0 0-.09.05c-.02.03-.09.03-.16-.06-.02-.03-.06.03-.06.05-.01.03-.03.05-.03.05s-.13-.03-.18-.07c-.06-.04-.04 0-.11.02s-.05.02-.08.01c-.04-.01-.1.02-.13 0-.04-.02-.02-.04-.12.03-.05.03.1.02.16.03.06.01.04.05.04.05.02.01.05.02.07.03v.07c0 .04.04.09.07.11.04.02-.01.05-.06.08-.05.03-.06-.01-.08-.06-.02-.05-.08-.03-.08-.03.03.02-.03.09-.13.09s-.01-.05-.01-.05l-.04.01c-.04.01 0 0-.06.03s-.06.01-.11-.02-.01-.03-.04-.07c-.03-.04-.04-.01-.11-.04-.04-.02-.07-.04-.19-.03-.03 0-.07.02-.09.02-.02 0-.03 0-.15-.02-.12-.03-.07-.01-.11-.03-.04-.03-.05-.03-.09-.05-.04-.01-.16.03-.25.11 0 0-.07.01-.14-.01s-.09-.02-.09.03c.01.05 0 0-.01.07s-.06.04-.11.08-.05.04-.05.06c0 .02-.14.05-.21.07-.07.02-.04-.01-.11 0-.04 0-.05.07-.07.07-.02.01-.04.01-.08.02s-.02.08-.08.15c0 0-.06.03-.08.06-.03.03-.04.08-.06.13-.02.05.03.05.09.12.06.07.04.09.05.17.01.08.01.07.01.15 0 .03 0 .06-.01.08-.01.04-.02.06-.02.08 0 .03-.11.12-.13.14-.02.02.07.2.08.22.01.03-.1.09-.1.09-.02.02.01.07.02.09.02.02.03.08.02.13-.01.05-.02.05-.04.09-.02.04-.01.14.01.22.01.09.05.11.07.14.02.03.03-.05.15.18.12.23 0 0 .05.12.05.11.08.08.13.13s.07.1.1.09c.03-.01.04.13.07.14.04.01.08.14.08.16 0 .02.01.03.09.07.02.01.05.02.14.03.09.02 0 0 .07 0s.04.06.11.08c.07.02.04.07.08.07.04.01.06 0 .12-.04s0 0 .1-.04.07.02.11.01c.03-.01.09.01.17-.02.07-.02.06-.02.06-.02s.09-.05.17-.08c.08-.03.03.03.07.02.04-.01.04.05.13.02.06-.02 0-.05.05-.07.03-.01.05-.04.1-.08s0-.05.02-.11c.02-.05.01-.03.05-.06.03-.03.02-.03.02-.26s0-.06.08-.16 0 0 .04-.06.06-.02.13-.01c.02 0 .16.01.25-.09.03-.03.07-.01.11 0 .04.01.2.06.22.04.03-.01.04-.01.12-.06.08-.05.07-.01.14 0 .06.01.04.04.12.11.07.07 0 .04-.03.11s-.03.03-.13.13c-.11.1-.05.06-.08.11s-.01.09.01.17c.02.07.01.05.01.1s-.02.03-.03.08c-.01.05 0 .09 0 .11.01.02-.04.1-.04.1-.01-.03-.05-.13-.05-.17 0-.05-.03-.01-.07.02-.04.03.02.08.03.12 0 .02.03.05.04.08.01.02 0 .05-.06.05-.12.02.01.06.02.12s.02.16.02.19v.09c0 .03-.06.06-.07.08-.01.02-.08.06-.09.17v.02c.01.12.11.03.16-.02.04-.04.06-.02.09-.02.01 0 .03-.01.04-.01.08-.03.04.01.13-.01.08-.02.06.03.14.02.08-.01.11.06.19.04.08-.01.07-.03.14-.04.07-.01.18-.02.22-.04.05-.01.09.03.16.04.07.01.04.05.06.07.02.02.18.07.26.15.02.02.04.05.08.11.04.05.06.04.08.07.02.03.04.05.04.09 0 .04-.04.13-.03.15 0 .02-.03.11-.03.19 0 .09-.02.05-.04.08s-.01.09 0 .16-.01.07 0 .14 0 .1.02.14c.02.04-.02.11 0 .12.02.01.02.04.13.15l.03.03c.02.02.02.04.05.09.03.05.04.07.08.13s.07.07.09.09c.03.02.05.05.07.08.03.03.1.05.14.08.05.03.06.06.18.07.12 0 .13-.02.13-.02.03 0 .06 0 .1-.01 0 0 .06.02.15-.01s.11-.02.14-.04c.03-.02 0 0 .02-.09s.04.03.09-.05c.05-.08.06.02.09.01.03 0 .06.02.15.06 0 0 .01.01.02.01.01-.02 0-.02.02-.05.02-.03.01-.02.04-.04.02-.02.03-.06.06-.1.02-.04.03-.02.06-.01.02 0 .02 0 .04-.02s0-.08 0-.14c0-.06-.01-.02.01-.05.02-.02.03-.05.05-.07.02-.01.04-.01.11-.01s.01.03.08-.05 0 0 .04-.02.03.01.09.02c.05.01 0 0 .04 0s0 0 .04-.03.02-.02.07-.04c.04-.02.04-.03.05-.05.01-.02.03-.04.07-.06.03-.02.04-.02.09-.02.05-.01.05-.01.08 0 .04 0 .03.03.04.05.01.02.02.03 0 .03-.01 0-.03-.01-.03-.01l-.02-.02c.02.02-.02.04-.04.06-.01.01-.05.01-.09.01-.04 0-.02.01-.03.04 0 .03.03.02.03.03.01.01.06.13.01.21-.05.08-.01.06 0 .08.01.03.06.1.09.11.03.01.04.03.08 0s0-.02 0-.09c0-.07-.02-.04-.02-.09 0-.05-.08-.05-.08-.09-.01-.03-.01-.03 0-.06.01-.02.01-.03.06-.05.04-.02.07-.01.12-.04.05-.03 0-.02 0-.04s.03-.06.05-.1c.03-.04.03 0 .08.01.04.01.01.05.03.07.02.02.01.04.03.05.02 0 .04.02.07.02.03 0 .09.02.12.02.04 0 .03.05.03.05s.04.04.05.07c0 0 .01-.01.02 0 .03 0 0 0 .06.03s.03 0 .13-.03.03 0 .07 0c.05 0 .04 0 .07-.01.04-.02.02.02.06.03.04.01.01.03.06.04.05.01.06.03.09.02.02-.01.1.01.1.01l.06-.06c.06-.06.05-.01.1-.02s.04 0 .06.01c.02 0 .08 0 .09-.01.01-.01.06 0 .11 0-.01.01-.04.02-.07.04-.08.04 0 0-.01.02-.01.01-.01.03 0 .06s.07-.01.07-.01 0 .04.01.05c.01.01.03.02.06 0 .02-.02.05-.04.06-.04.01 0 0 .02.01.05.01.02.02.03.05.02.03-.01.04 0 .06.01.02 0 .02.02.07.06 0 0-.02.04-.04.07.04-.02.04-.02.03.01-.01.02.01.02.08-.02.02-.01.05 0 .08 0 .04 0 .05.03.08.04.03.01.02.04.03.04.01 0 .01 0 .02.01.01 0 .03.02.05.02.03.01.05.02.06.04.01.02.02.03.06.03.03.01.03.03.04.05.01.02.03.03.04.06.01.03 0 .02.02.07.01.03.04.01.08 0 .03 0 .03.02.04.01 0 0 .1.06.12.08.03.03.03.05.08.08.01 0 .02.01.02.02.01.01.01.01.02 0 .02-.01.02.01.07-.02.05-.02.04.02.06.02.02 0 .01-.02.03-.04.03-.01.04 0 .09 0 .06 0 .02.02.05.01.02-.02.05.03.08.02.03-.01.03 0 .05-.01.02-.01.05 0 .07 0h.01c.03 0 .02.03.04.03s.01.02.04.02.01.04.05.03c.04-.01.04.03.08.04.03.01.05.02.08.03.03.01.1.07.12.08l.06.06c.01.01.02.03.02.03s.04-.01.08.05c.04.05 0 .04.02.07.02.03.01.05.04.08s.02.05.02.07v.06c.01.02.01.05.02.05.02 0 .04.03.06.03.01 0 .05.04.07.04.01 0 .03.03.02.04 0 .01.01.06.01.06.03.1.01.02-.01.04-.02.03 0 .04-.01.06-.01.02-.02.02-.05.04-.03.02-.03.02-.08.04-.06.02-.02.01-.03.04-.02.03-.02.02-.03.05-.01.02.01.02.04.09.01.02.04.03.04.04-.01.01.02.03.04.04.02 0 .01-.04 0-.09-.01-.05-.02-.03-.03-.04 0-.02.02-.02.07-.06.04-.04.02 0 .08.01s.06.03.09.02c.03-.01.04 0 .06.01h.11c.04 0 .02.03.02.05v.07c-.01.03 0 .03-.01.05 0 .03-.01.04-.01.04s-.06.04-.09.04H22.8c-.02 0-.13-.05-.09-.01.03.02.03.03.05.03.02 0 .06.04.06.04l.08-.02c.04-.01.04.07.04.07v-.03c0-.03 0 0 .02-.02s.02 0 .03-.04c.01-.03 0 0 .04-.04.04-.03.04-.01.07-.06.02-.03.02-.04.04-.08s.02-.01.04-.03c.02-.02.05.01.07 0 .02-.01.02.02.04 0s.02-.01.05-.01c.02 0 .02.04.05.03.02-.01.03.04.05.03.02-.01.04.04.06.03.02 0 .05.03.07.02.02-.01.05 0 .07.02.01.02.03.01.04.03.02.02.05.02.07.03.02.01.03 0 .07.03.03.03.04.02.06.09 0 .02 0 .02-.02.06-.02.04-.01.06.03.05.04 0 0-.02.02-.04.03-.03 0 0 .04.01 0 0 .04 0 .09-.03.04-.03 0 0 .03-.03s.03 0 .07.01c.05.01.04.04.06.05.02.01.02.02.06.01.04-.01.06.04.1.04.04 0 .03.03.07.01.04-.01.04.01.07-.01.03-.02.04-.01.08-.02s.06 0 .09.01c.02.01.04.01.05.03.01.01.07 0 .09.01.01.01.06.03.08.05.02.01.05.04.06.04.01 0 .05.05.08.06.03.01.05.04.06.04a.2.2 0 0 1 .08.03c.03.02.04.07.06.1.01.03.03.04.07.07.04.03.04.01.04.01h.09c.03 0 .02.02.05.02h.09c.03 0 .02.02.11.17.01.02.02.03.03.04 0 .01.01.01.01.02.01.02.01.01 0 .01.01.02.01.04.02.06.01.03.01.06-.01.08-.01.02.01.06.02.09s.01.04.01.05c0 .01 0 .06.01.08.01.02-.01.05-.02.07-.01.02-.01.05-.02.06-.01.02-.02.02-.04.05-.02.04-.02.04-.04.07-.02.04-.03.02-.06.05-.03.03-.14.13-.16.17-.03.04-.04.03-.05.04-.01 0 0 .05-.01.06v.04s-.01.03-.02.04c0 .01-.03.04-.03.08 0 .03-.03.04-.06.06-.04.02 0 0-.04-.01-.03-.01-.01 0-.06 0-.05 0-.03.02-.03.02s.02.01.07.03c.05.02.02.01-.03.02s0 0-.04.01.01.02.02.07c.02.05.01.04.01.06.01.02 0 .04.02.09.01.04-.01.06.01.08.01.03-.01.08 0 .12 0 .04.04.08.05.12.01.03 0 .03-.01.09 0 .01-.01.04.01.07.02.03.01.09.01.11 0 .02-.01.06-.02.07 0 .01-.01.03-.05.04-.03.01-.01.03-.02.05 0 .02 0 .02.01.05.01.03 0 .02.01.16s0 .03-.02.05c-.02.02 0 .03-.03.09-.04.07-.04.06-.05.1 0 .03-.03.05-.06.08-.02.03.01.08.01.1.01.02 0 .03-.06.09-.06.07-.02.01-.07.05-.01.01-.02.04-.02.07 0 .03-.03.04-.04.03-.01-.01-.03 0-.05-.01-.02-.02-.03.01-.05.03-.03.01-.05.01-.06-.01-.02-.02-.03.01-.04-.01-.01-.01-.03.01-.05.01-.02-.01-.06.01-.08.01-.03 0-.03.01-.05-.02-.02-.03 0 0 0 .04-.01.04-.02.02-.06.05-.04.03-.04 0-.08.03s.05.05.05.05-.05 0-.07.01c-.03 0-.02.02-.04 0a.146.146 0 0 0-.05-.03c-.02.01-.04.02-.06.02-.02 0-.03.01-.05.01-.02 0 0 .02-.03.06 0 0-.06.03-.12.1-.03.03-.03.04-.03.05-.02.01-.02.01-.03.01-.02 0-.06-.01-.09 0s.01.03.04.08c.02.05-.01.02-.03.04-.02.02.01.03.03.06.02.03 0 .03.02.05.02.02.04.06.04.06s-.01.06.01.07c.01.02 0 .09.01.11 0 .02 0 .06-.01.08l-.02.04c-.01.03-.06.14-.06.14-.07.05-.05.08-.08.12-.03.04-.01.04-.01.1 0 .06-.01.04-.02.05-.01.01-.01.03 0 .07.01.04-.02.06-.03.08-.01.02-.02.03-.03.04-.01 0-.03.03-.06.05-.03.02-.04.05-.04.05s-.05.04-.08.05c.02.05-.02 0-.03.01-.01.01-.01.03-.02.04 0 .02-.01.05 0 .08s-.01.07-.01.07-.04.03-.05.05a.15.15 0 0 0-.04.08c-.01.04-.02.04-.03.05-.01.01-.02.06-.04.1-.02.04-.03.04-.04.04-.01 0-.04.05-.04.05s-.07.03-.13 0c-.02-.01-.04 0-.07-.01-.03-.01-.02.01-.04.02s-.04 0-.06 0c-.02 0-.01 0-.06-.02-.02-.01-.06-.01-.08-.02-.03-.01-.06-.03-.07-.06-.01-.03-.04 0-.09-.03-.03-.02-.02 0-.04.01-.03.01-.07-.05-.08-.06-.02-.01 0-.03.01-.08 0-.01-.02-.09-.02-.12-.01-.03 0-.03-.01-.07 0-.04-.04-.11-.04-.11 0 .01 0 .03.02.07.02.04.01.04-.01.06-.02.02 0 .01 0 .04-.01.03.01.04.02.05.01.01-.02.03.01.1.02.07-.01.02-.01.05 0 .03.01.04.03.06.01.02.03.03.05.04.02.01.12.06.15.06.03-.01.03.05.05.06.02 0 .01.05.03.08.01.02-.01.03.01.09.02.05 0 0 .01.02s.02.04.06.06c.04.01.02.01.04.06.02.05.01.02.01.07.01.06.01.03.01.05 0 .02 0 .03-.02.04-.02.01-.02.04-.02.04s-.01.05-.03.09l-.03.03c-.02.01-.01.02-.02.03-.01.01-.03.04-.05.03-.01-.01-.03.04-.04.03-.01-.01-.03.01-.03.01s-.04.01-.06 0c-.02 0-.21.05-.27.05-.06.01-.08 0-.08 0h-.08c-.05 0 0 0-.04-.01s-.04-.02-.11 0c-.02.01.02.03.06.09.04.05.01.04.01.07 0 .02-.01.03-.01.11 0 0-.03.03-.03.05 0 .02.01.03.08.06s-.02.03-.03.05c-.01.01-.04.03-.05.03h-.07c-.02-.01-.04.01-.08 0-.04 0-.06-.04-.06-.07 0-.03-.05-.01-.12-.03-.07-.02-.05-.02-.06.01-.01.03.05.05.05.08s.01.04.01.06v.07c0 .03.02.03.04.07.01.02.04.03.09.05 0 0 .01-.04.03-.07.02-.03.05.02.09.02.04 0 .02.03.02.15 0 .11-.03.01-.06.01s-.01-.03-.07-.08c-.02-.02-.02 0-.04 0-.02-.01-.03.01-.02.02 0 .02.08.09.08.09s-.01.03-.06.04c-.02 0-.01.1-.01.1-.01.02-.01.03-.02.05.01.01.02.03.04.04 0 0 .01.06.01.15 0 .08-.05.02-.06 0-.01-.01-.05.05-.1.07-.05.03-.04.01-.04.01s-.04.03-.05.04c-.01.01-.01.02 0 .04 0 .02 0 .07-.01.09-.01.02-.02.06 0 .1.02.05.05.05.07.08.02.03.06.04.08.04.02 0 .06.01.08 0 .02 0 .04.01.06.01.02 0 .02.03.05.07.02.05.01.03-.01.05-.02.01-.03.05.01.06.04.01.04.02.05.03.01.02 0 .04 0 .06 0 .02-.04.04-.07.08-.03.04-.07.04-.09.06-.02.02-.05.01-.06.04-.01.03-.02.15-.02.16 0 .01.03.09.03.1 0 .01-.03.01-.07 0-.03-.01-.04.02-.06.06-.02.04 0 .08-.02.07-.02-.01.01.04.02.07.01.02.02.08.02.09.01.01.04.06.07.09.03.03.08.1.1.11.03.02.02.04 0 .04a.14.14 0 0 1-.09-.04c-.04-.02-.07-.03-.08-.02-.01 0-.01.01-.01.02v.02c.01.02.03.03.07.04.04.01.06.05.07.06.02 0 .02 0 .05-.02.03-.02.05.04.07.04.02 0 .01.03.02.07 0 .03.02.04.03.05.02.01.07.09.1.1.02.01.05.03.07.02.02-.01.03.04.05.07.02.03.02.02.05.04.03.02.07.06.07.06s.05.03.09.02c.04 0 .09.03.12.03.04 0 .02.04.02.04.01.01.02.01.02.02 0 0-.05.03-.07.04-.01.01-.08 0-.07-.01.01-.02-.04 0-.04 0s-.04.01-.06 0c-.02-.01-.03.01-.05 0-.02-.01-.03 0-.09-.03-.02-.01-.06.02-.09 0-.02-.01-.02.01-.08-.01 0 0-.01 0-.02-.01-.08-.02-.02-.01-.03 0-.01.01-.05 0-.08-.02s-.04-.04-.04-.04h-.07c-.02 0-.06-.01-.07 0-.01.01-.09-.04-.11-.03-.02.01-.03-.04-.01-.06.02-.02.04-.01.05-.03.01-.02.12.01.12.01s.03.02.07.01c.03-.01-.01-.01-.02-.04-.01-.02-.08-.03-.09-.06-.01-.04-.02-.04-.03-.08-.01-.05.05 0 .05 0s.01-.03.01-.05c0-.02-.04-.01-.05-.02-.01 0-.07-.01-.1-.02-.02-.01.02-.07.07-.09.06-.02.01-.05.01-.05s-.04-.02-.08-.01-.01.03-.01.03l-.03.03c-.01.01-.02.02-.03.02 0 0-.03.05-.01.07.02.03.03.05.03.08.01.02-.02.06-.04.06-.02-.01-.07-.01-.12-.03-.05-.01-.02-.02-.04-.06-.02-.04-.02-.01-.03-.05 0-.04.01-.01.03-.04.02-.03.06.02.08.01.03-.01-.03-.04-.03-.06-.01-.01-.02-.02-.04-.06-.02-.04-.04-.02-.06-.04-.02-.02-.05-.01-.09-.05-.04-.04-.06.06-.07.01 0-.06-.02 0-.03-.03-.01-.03-.03-.02-.03-.04s.05 0 .04-.03c-.01-.03-.01-.06-.02-.08 0-.02-.02.01-.03.02-.01.01-.03-.02-.05-.03-.01-.01-.04 0-.05-.01-.01-.01 0 .02 0 .06 0 .04-.03.01-.04.02-.01 0-.03-.01-.05-.04-.01-.03 0-.02-.02-.06-.01-.04-.04-.05-.08-.09-.04-.04-.01.01-.05 0-.03 0-.06-.01-.1-.05-.04-.03-.03-.01-.01-.04.01-.02.03.01.07-.03.02-.02.02-.03.02-.04 0-.01-.07-.05-.08-.06-.01-.01-.02-.04-.02-.07.01-.03.03-.01.03-.03 0-.02-.02-.03-.02-.03s-.01-.06.01-.09c.01-.03-.06-.07-.08-.1-.01-.03-.07-.04-.07-.04.01-.03.03-.05.04-.08-.01-.01-.01-.02-.01-.06 0-.03.05 0 .05 0s.05.01.09-.01c.01-.01-.05-.04-.08-.06-.03-.02-.01 0-.04.01-.03.02 0-.02-.01-.04s-.04.02-.08-.01c-.03-.03-.04-.03-.04-.06s.06 0 .05-.04l-.01-.04c-.01-.04-.01-.02-.02-.04-.01-.03-.05.05-.07.03-.02-.01-.01-.02-.01-.04s-.04-.02-.04-.02-.03.05-.04.06c-.01.01-.07-.03-.1-.06s.05-.02.07-.04c.02-.02.03-.01.03-.03 0-.02-.02-.02-.03-.04-.01-.02 0-.03.04-.07.01-.01.07.05.07.05-.02.01.01.04.07.05.03.01.02.04.02.06 0 .02.03-.01.03-.01l.02-.06s.02-.03.02-.06-.03-.05-.04-.06c0-.02 0-.02.02-.06.02-.03.04.02.06.02.02 0-.05-.07-.06-.07-.02 0 0 0-.02-.09-.01-.04.05-.02.05-.02.01-.02.02-.04-.03-.08-.02-.01-.04-.02-.05-.05-.01-.03 0-.02-.01-.03 0-.02-.01-.04-.01-.06 0-.02 0 0-.02-.09s0 0 0-.02c.01-.02 0 0 0-.03s-.01-.04-.01-.06c0-.02.03-.02.02-.04-.01-.02-.02-.02-.01-.05.01-.03 0 0 0-.04-.01-.04-.02-.02-.04-.06-.02-.04.02-.01.03-.03.01-.03-.01-.03-.05-.04-.04-.02-.03 0-.05.01-.02.01-.02.01-.07-.01-.02-.01-.03-.01-.05-.03-.02-.02-.03-.03-.05-.04-.02-.02-.03-.05-.04-.08-.01-.03 0 0 .01-.04.01-.03.01-.03.02-.07.01-.04-.02-.08-.02-.08v-.03c0-.03 0 0 .01-.04.01-.03.01-.03.01-.04 0-.01-.02-.04-.02-.04s-.02-.07-.03-.08c-.01-.02-.01-.04-.06-.09-.04-.04 0 0-.03-.06-.03-.07-.02-.02-.03-.08-.01-.06-.03-.06.01-.14.02-.02.02-.03.02-.06 0-.04.02-.01.03-.04.01-.03 0-.03 0-.08s-.02-.06-.01-.09c.01-.02.02-.06.03-.1.01-.04.02-.03.02-.08s-.02-.04-.04-.08c-.01-.04 0-.02.01-.06.03-.05.05-.05.05-.09 0-.04-.01-.02-.01-.04.01-.02.01-.04.01-.07 0-.04.01-.03.01-.07 0-.03-.01-.04-.02-.08s-.03-.04-.04-.08c-.01-.04-.01-.08-.03-.11-.02-.04 0-.08-.03-.19l.01-.06c0-.02.01-.03.01-.08s-.02-.03-.04-.07c-.02-.04-.03-.04-.03-.13 0 0 .01 0 .01-.01.02-.05 0 0 0-.07-.01-.07 0-.02 0-.09.01-.07 0 0 0-.04s-.01-.04-.01-.1v-.05c0-.05-.01-.04 0-.08s-.02-.05-.03-.08c-.01-.04.01-.04.02-.08s-.02-.25-.04-.33c0-.02 0-.02-.03-.11-.01-.03 0 0 .01-.11s0-.02-.01-.07 0-.02 0-.1c0-.02.01-.04.02-.06 0-.03 0-.04-.02-.1-.02-.06-.02-.02-.03-.05-.02-.03-.01-.02-.02-.05-.01-.03 0-.03-.01-.07 0-.03 0-.03-.01-.05-.01-.02-.02-.04-.02-.06-.01-.02-.02-.07-.03-.09-.02-.03-.01-.06-.01-.07 0-.01 0 0-.04-.04l-.03-.03c-.07-.07 0 0-.06-.04-.01-.01-.05-.03-.09-.09-.01-.01-.03-.04-.07-.08-.04-.04-.07-.05-.08-.06-.01-.01-.03 0-.05-.01-.02-.01-.03-.01-.05-.02-.01-.01-.05-.03-.07-.05-.02-.02-.04 0-.06-.01-.02-.01-.04-.03-.07-.03-.03-.01-.13-.08-.16-.1-.02-.02-.04-.01-.1-.04-.01-.01-.04-.02-.04-.04 0-.01-.04-.03-.04-.04-.01-.01-.06-.01-.07-.03-.01-.03-.01 0-.04-.03s-.02-.06-.02-.06a.555.555 0 0 1-.08-.06c-.02-.02-.03-.02-.03-.04-.01-.02-.01-.01-.01-.04 0-.02.01-.03.01-.05 0-.03-.01-.02-.02-.04l-.03-.06c-.01-.02-.03-.02-.06-.06-.03-.03-.02-.03-.04-.07-.02-.04-.03-.03-.04-.04l-.05-.05a.488.488 0 0 1-.03-.07c-.01-.02-.03-.02-.05-.04a.55.55 0 0 1-.07-.09c-.01-.02-.01-.01-.02-.03-.01-.02-.04-.06-.06-.11-.02-.05-.03-.05-.04-.08-.01-.03-.02-.05-.03-.07-.01-.02-.02-.02-.03-.04-.01-.01-.02-.01-.03-.02-.01-.01-.02-.01-.03-.02-.01-.01-.02-.02-.02-.03-.01-.01-.02-.03-.03-.04-.01-.02-.01-.02-.02-.03a.702.702 0 0 1-.06-.09c0-.02-.03-.03-.04-.04 0-.01-.02-.03-.04-.05-.01-.01-.01-.02-.01-.04s-.03-.03-.05-.04c-.01-.01-.04-.03-.04-.04 0-.01-.03-.01-.04-.02h-.02c-.01 0-.05-.01-.08-.04s-.05-.03-.05-.04v-.03c0-.02 0 0 .02-.02s0-.01 0-.03c0-.02-.01-.01-.02-.04s-.02-.01-.04-.03c-.02-.02-.01-.02-.03-.04-.02-.03-.02-.02-.02-.06-.01-.04-.01-.01-.01-.03 0-.02.01-.04.01-.05 0-.01 0-.06.01-.07 0-.01.02-.02.05-.05.03-.03.01 0 .03-.02.01-.02.03-.02.04-.02.01-.01.02-.02.03-.02 0 0 .05-.03.06-.06.01-.03-.01-.03-.01-.03s.01-.07 0-.1c-.01-.01-.02.04-.02.06-.01.02-.01.03-.02.04-.01.01-.04 0-.04 0s-.02-.01-.03-.04c0-.02-.03-.02-.05-.03-.02-.02-.02-.02-.02-.03 0-.01 0-.01.02-.02.01-.01-.03-.02-.05-.04-.02-.02 0 0 .01-.02s-.01-.02-.01-.04c0-.03 0-.01.01-.03.01-.02.02-.04.03-.05.01-.01 0-.06 0-.08 0-.02 0-.02-.01-.04 0-.02-.01-.02-.01-.03 0-.01.02-.02.04-.04.02-.03.02 0 .02-.02s-.01-.01-.01-.02c-.01-.01 0-.02-.02-.04s-.01-.02-.01-.04 0-.01.02-.02c.01-.01.01 0 .02-.01h.05c.01 0 .01-.01.02-.01.01-.01.04-.02.05-.03.01-.01.03 0 .04 0 .01 0 .03 0 .03-.01s-.02-.03-.02-.04v-.01c0-.01.01-.02.01-.03 0-.01-.01-.03.01-.03.01 0 .01 0 .01-.01v-.06c0-.02.03-.03.04-.04.01-.01.01 0 .03-.01.01-.01.03.01.06-.01s0 0 .01-.02 0 0 .02-.01.01-.01.02-.03c.01-.02.01-.01.02-.04l.02-.04c.01-.01.02-.02.04-.05.01-.03 0-.01-.01-.02a.19.19 0 0 1-.03-.08v-.12c0-.02-.02-.03-.03-.06-.01-.03-.02-.01-.02-.04s.02-.04.01-.06c0-.02-.02-.06-.02-.07 0-.01-.01-.03 0-.05.01-.02-.02-.02-.02-.04 0-.01-.02-.02-.04-.04-.01-.02-.01-.01-.02-.03v-.02s-.01 0-.01-.01c-.01 0-.01.01-.02.01-.02.02-.04.04-.06.02-.02-.02-.03-.06-.04-.08-.01-.02-.05.02-.05.02s-.01.01-.03.02c-.02.01-.01.03-.01.05 0 .02-.01.02-.01.06-.01.04-.03.04-.04.04-.01 0-.1.04-.09.05 0 .01.02.06.03.08.01.01.05.06.06.07.01.01 0 .03-.03.09-.02.01-.03.01-.04.02-.02 0-.03.01-.05.02 0 0-.09-.01-.1-.02 0-.01-.01-.02 0-.04 0-.01-.06-.07-.07-.09-.01-.02-.03-.01-.04-.01-.01 0-.04.01-.04.01-.01-.01-.05 0-.05-.02s-.02-.06-.02-.06-.04 0-.04-.01-.05-.04-.06-.05c-.01-.02-.06-.02-.09-.03-.03-.01-.09-.01-.19-.02 0 0-.03-.03-.09-.05-.05-.02-.02-.01-.04-.02s-.01.02-.02.03c0 .01-.05 0-.07.01-.02.01 0-.03-.03-.05-.01-.01-.04 0-.05-.03-.01-.02-.02-.02-.03-.03-.01-.02-.03-.01-.02-.04 0-.02.02-.02.01-.05 0-.03-.02-.02-.02-.03 0-.01-.05-.03-.05-.06 0-.02-.04-.01-.06-.03-.06 0-.1 0-.11-.01-.02-.01-.03 0-.05.01-.01.01-.04-.03-.04-.04-.01-.01-.03 0-.04-.01l-.03-.03c-.01-.01-.02-.03-.03-.07 0-.01-.09-.07-.07-.04.02.03.05.05.05.06v.06l-.01.02c0 .02-.06-.03-.07-.04 0-.01-.09-.05-.09-.05l-.04-.01s-.03-.01-.05-.01c-.01 0-.04-.04-.06-.06-.02-.02-.02-.05-.03-.07 0-.03-.01-.06-.01-.07 0-.01-.01-.11 0-.12v-.01c0-.01-.02-.03-.02-.04 0-.02-.04-.04-.04-.05-.01-.01-.03-.04-.04-.04 0-.01-.07-.02-.1-.05l-.04-.04c-.01-.01-.06-.04-.07-.08-.02-.04-.04-.04-.04-.05.01-.01-.06-.06-.07-.08-.01-.02-.1-.06-.13-.08a.138.138 0 0 0-.04-.03c-.01-.01-.02-.02-.02-.03 0-.02.01-.05 0-.08 0-.03-.04-.02-.06-.02-.02-.01-.14-.01-.18-.01-.04 0-.13-.01-.14-.02l-.11-.01s-.09-.02-.12-.04c-.02-.02-.06 0-.08-.01-.02-.01-.09-.02-.14-.06-.05-.04-.04-.02-.07-.04-.03-.02-.08-.03-.1-.04-.03-.01-.09 0-.1.01-.01.01-.05-.02-.05-.02s-.29-.12-.33-.11c-.02 0-.04-.01-.06-.03-.01-.01-.02-.02-.02-.03 0-.02-.04-.07-.05-.08 0-.01-.05-.05-.08-.11-.04-.06-.02 0-.07-.02-.04-.02-.04-.02-.05-.03-.01-.01-.05-.04-.06-.05a.201.201 0 0 0-.08-.04c-.02 0-.13-.1-.15-.11-.02-.01-.07-.02-.13-.05 0 0-.09-.03-.13-.04-.04-.01-.03-.01-.07-.01-.04 0-.02 0-.03.02-.01.02-.04.02-.05.02-.01 0-.04.01-.12.05-.04.03-.05.02-.08.03-.03.01-.02.01-.03.02-.01.01-.08.01-.09.01-.01 0-.07-.02-.09-.02-.02-.01-.09-.04-.11-.02-.02.01-.11-.02-.11-.02s-.27-.09-.31-.11c-.05-.03-.06-.01-.08-.03-.02-.01-.05-.01-.07-.03-.03-.01-.05-.02-.05-.04-.01-.02-.05-.02-.05-.02s-.07-.02-.08-.03c-.02-.01-.07.01-.1-.01l-.03-.01c-.02-.01-.05-.02-.07-.03h-.08s-.06-.04-.07-.04c-.02 0-.03-.04-.12-.05-.08-.02-.06-.03-.08-.03-.01-.01-.04-.02-.04-.02s-.09-.04-.09-.06c0-.01-.06-.04-.07-.05-.01-.01-.08-.05-.09-.07-.01-.02-.08-.01-.08-.01s-.08-.03-.09-.04c-.01-.01-.12.02-.18-.01-.05-.03-.05-.03-.09-.04-.03-.01-.03 0-.05-.01-.02-.01-.07-.02-.08-.04-.02-.02-.03-.02-.04-.05-.01-.02-.04-.02-.04-.03 0-.01-.06-.06-.09-.07a.276.276 0 0 1-.08-.06.239.239 0 0 0-.09-.02c-.02-.01-.05.01-.06.01-.01 0-.05-.05-.07-.06a.27.27 0 0 0-.08-.07c-.02-.01-.02-.07-.03-.1-.01-.03-.07-.08-.08-.1-.01-.02-.04-.05-.05-.08-.02-.03 0-.02.02-.03.02-.02.03-.02.05-.07.01-.03 0-.02-.01-.04-.01-.01-.01-.05-.01-.08s0-.01.01-.03c.02-.02-.01-.04-.01-.05 0-.01-.02-.03-.03-.05 0-.02-.04-.04-.06-.07-.02-.03-.02-.01 0-.03.02-.03 0-.02 0-.05 0-.02-.03-.05-.03-.1-.01-.05-.04-.05-.05-.06a.212.212 0 0 1-.03-.07c0-.01-.15-.1-.15-.11 0-.01-.07-.08-.06-.09.01-.01-.05-.06-.13-.1-.08-.04-.03-.03-.04-.06-.01-.03-.04-.02-.05-.06-.01-.03-.05-.02-.07-.04-.02-.02-.04-.01-.05-.02-.01-.01-.04-.01-.05-.03-.01-.02-.07-.04-.08-.06-.01-.02-.05-.04-.05-.06 0-.02-.01-.02 0-.04.01-.03 0-.03 0-.05 0-.02-.02-.02-.04-.04-.01-.02-.05 0-.05 0-.01 0-.03 0-.04-.01L7.69 24c-.01-.02-.04-.02-.04-.02s-.06-.03-.07-.04c-.01 0-.04-.01-.05-.02-.01-.01-.06-.03-.06-.03s-.04-.05-.04-.07c0-.02 0-.02.02-.04s.01-.03.03-.07c.02-.04-.01-.03-.02-.05-.01-.02-.03-.02-.03-.02s-.05-.02-.09-.07c0 0-.04-.01-.06-.06-.02-.04-.04-.04-.05-.05 0-.01-.04 0-.06-.02-.01-.02-.03 0-.04 0-.01-.01-.04-.01-.04-.02s-.02-.11-.02-.12c0-.01-.03-.04-.03-.04-.01 0-.03-.01-.04-.01 0 0-.07-.02-.09-.03-.02-.01.02 0-.02-.03-.05-.03-.06-.02-.07-.03-.02.13-.03.26-.05.39.04.01.03.04.07.08.04.03.03.04.05.07.02.03-.03 0-.03 0s.11.09.11.11c0 .02-.02.01-.08.04s-.02.02.03.04c.04.02.03.03.06.04.03.03.01.07.01.07s.04.05.05.05c.01 0 .05.03.05.05 0 .02.02.04-.02.08-.02.01-.01.02-.01.04-.01.02.01.04.03.07.02.03.04.03.05.03.01 0 .06.04.07.05.01.01.07.01.09.01.02 0 .06-.01.07.03.02.04.01.02.03.05.02.04 0 .02.01.05 0 .02.01.03.03.05.02.02.03.04.05.06.01.01.03.04.03.04 0 .02 0 .03.01.05 0 0-.08.06-.09.06-.02 0-.05.01-.1-.01-.01-.01-.02-.02-.03-.08-.01-.06-.02-.02-.04-.05-.02-.03-.03-.01-.05-.03-.02-.02-.04-.04-.06-.05-.01-.01-.06-.02-.08-.03-.02-.01-.03-.05-.04-.06-.01-.01-.11-.07-.14-.1-.03-.03-.05-.05-.11-.07-.05-.02-.05-.02-.09-.04-.04.51-.07 1.04-.07 1.56 0 9.53 7.73 17.26 17.26 17.26 6.53 0 12.21-3.63 15.14-8.98v-.01c-.03-.01-.03-.06-.03-.1v-.06c0-.02 0-.16-.08-.23l-.01-.01c-.09-.07-.16-.22-.2-.23-.02 0-.04-.01-.07-.06-.03-.03-.06-.08-.11-.16-.13-.18-.31-.41-.34-.4-.02.01-.06-.13-.1-.13-.04 0-.11-.17-.13-.2-.01-.03 0-.13-.01-.2-.01-.06-.01-.18.02-.22.04-.04.12-.05.11-.15-.02-.1 0-.12 0-.2-.01-.08 0-.12-.02-.16-.02-.05 0-.09.02-.12 0 0 .01-.01.01-.02.03-.04.08-.13.07-.13-.02 0 0-.2-.03-.22-.02-.01-.08-.18-.09-.19-.02-.01-.04-.11-.08-.09-.04.01-.09.05-.11.05-.02-.01-.06-.06-.08-.08a.18.18 0 0 1-.05-.07v-.04c.01-.05.06-.09.01-.08-.05.02-.15.05-.18.07-.04.02-.11.04-.14.06-.03.01-.08.02-.14 0-.06-.02-.28-.03-.3-.01-.02.02-.05-.04-.1-.06-.05-.02-.09-.09-.1-.14-.01-.05.02-.14-.01-.15-.04-.01-.03-.13-.1-.12-.07.02-.09-.07-.14-.08-.05-.01-.04-.07-.12-.1-.08-.03-.14 0-.23 0-.04 0-.08.01-.11.01-.02 0-.04.01-.04.01s-.02-.08-.08-.03-.27.06-.27.06-.02.01-.07.02h-.01c-.04.01-.05.01-.1.03-.05.02-.12.06-.16.06-.04 0-.06.02-.09.05-.01 0-.01.01-.02.01-.03.02-.06.04-.09.05-.04.01-.04 0-.12.02-.08.02-.09 0-.12.01-.02.01-.03.02-.08.06a.54.54 0 0 1-.17.09c-.07.03-.16.1-.16.1s-.03.04-.05 0c-.02-.03-.02-.12-.12-.13-.06-.01-.11-.02-.15-.03-.03-.01-.05-.01-.06-.02-.04-.01-.07-.02-.14-.01s-.27-.01-.32.01c-.04.02-.09-.03-.18.01-.09.03-.12 0-.18.04s-.13.04-.17.06c-.03.02-.04-.03-.09.03-.05.06-.1.08-.21.13 0 0-.01 0-.01.01 0 0-.09-.01-.12-.02s-.14-.06-.17-.07c-.02-.02-.12-.04-.14-.05-.01-.01-.09-.07-.11-.08-.01-.01-.07-.04-.08-.06 0-.02-.09-.07-.09-.07s-.08-.02-.09-.05a.474.474 0 0 0-.1-.1.599.599 0 0 1-.14-.14c-.05-.06-.19-.11-.19-.11s-.07-.02-.12-.05c-.01-.01-.01-.01-.02-.01-.05-.03-.08-.12-.1-.13-.01 0-.1-.05-.12-.06-.01 0-.01-.05-.04-.05s-.09-.01-.09-.01l-.03-.06s.01-.07 0-.09c0-.02-.06-.14-.08-.16-.02-.02-.05-.07-.08-.09v-.01a.448.448 0 0 0-.07-.1c-.13-.17-.26-.29-.26-.29s-.05-.03-.08-.04c-.03-.02-.07-.07-.09-.09a.678.678 0 0 1-.06-.09c-.01-.01-.02-.02-.03-.02-.04-.04-.07-.08-.08-.07-.01 0-.04-.03-.04-.04V28.34s-.05-.06-.08-.05c-.02.01-.08-.03-.11-.01-.02.03-.04.01-.06.02-.02.01-.06-.01-.07-.03-.02-.02-.01-.06-.02-.06-.02 0-.07-.02-.07-.02s-.01-.03-.03-.05c-.01-.01-.01-.02-.02-.02-.01-.01 0-.05 0-.05-.01-.03-.01-.07-.02-.11 0 0-.03-.04-.02-.07.01-.03.01-.05.04-.08.02-.03.05-.05.04-.05-.01 0-.01-.11-.01-.11s-.08-.11-.11-.1c-.03 0-.03-.06-.05-.07-.02-.02-.04-.1-.06-.1-.02 0-.01-.07.02-.09.03-.02.11-.11.12-.12.01-.01-.01-.07.02-.09.04-.02.05-.17.05-.17s.01-.03.01-.05c0-.02.01-.03.02-.04.02-.01.01-.05.01-.15 0-.1.07-.18.07-.18s.05-.08.04-.09c0-.02-.04-.17-.04-.17-.01-.04-.03-.09-.04-.13 0 0-.02-.06-.04-.07-.02-.02-.05-.07-.05-.07s-.01-.05.02-.08.07-.08.06-.09c0-.01-.09-.22-.11-.22-.02 0-.09-.16-.14-.13-.05.04-.05.03-.07.02-.02 0-.04-.05-.01-.13.01-.02.01-.03.02-.05.02-.07.04-.14.04-.16 0-.02.02-.06.04-.09a.44.44 0 0 1 .1-.11c.05-.04.12-.21.13-.24.01-.03.02-.09.03-.13.01-.05 0-.06.02-.09s.03-.08.06-.1c.02-.02.06-.05.07-.07.02-.02.06-.08.07-.09.01-.02.09-.11.09-.11s.05-.12.06-.13c.01-.01.04-.12.04-.12s.01-.11.02-.11c.02 0 .1-.09.1-.09s.09-.06.1-.06c.02 0 .11-.09.11-.09.02-.03.03-.06.05-.08 0 0 .02-.13.04-.16s.08-.11.1-.11c.02-.01.33-.12.35-.12.02 0 .08-.02.12-.05.04-.02.07-.06.1-.07l.06-.06c.01-.02.03-.04.04-.06 0 0 .01-.03.05-.05.04-.02.06-.01.1-.05.04-.04.05-.06.07-.08.02-.01.05-.07.07-.09.02-.01.05-.08.07-.1.02-.02.03-.04.03-.06-.01-.02.01-.12-.01-.12s-.03-.05-.02-.08c.01-.03.09-.41.09-.41s0-.06.01-.08c.02-.02.07-.1.08-.12.01-.01.04-.08.08-.11.03-.02.04-.05.1-.1.06-.05.09-.11.11-.11.01 0 .07-.05.09-.04.02.01.13-.04.13-.04.05-.02.1-.04.15-.05 0 0 .06-.08.08-.07.02.01.07-.07.08-.07.01-.01.04-.06.04-.08.01-.01.03-.06.04-.08l.03-.06s.08-.15.09-.18c.01-.04-.01-.04.02-.08.03-.05.04-.08.06-.09.01-.01.04-.05.04-.04 0 .01.06.01.06.04.01.03.05.03.04.06 0 .03.15.05.16.09.01.04.13.01.13.03 0 .02.08.04.1.04.03 0 .14-.02.14-.02l.06-.03s.05-.02.07-.02c.02.01.05-.04.08 0 .03.03.02.02.04.05.02.03.1-.02.11 0 .01.02.04 0 .05.04.01.04.02.01.06.02.04.02.07-.01.09 0 .02.01.07-.01.07-.01.03-.02.05-.04.08-.06 0 0 .05-.06.06-.08.02-.02.05-.05.07-.06.02-.01.05-.06.07-.05.01.01.25-.08.25-.08s-.01.04.02.04c.02.01.11-.06.13-.08.02-.01.06-.04.08-.05.02-.02.05-.06.07-.06.02.01.06-.06.12-.05.07.01.3-.02.32-.02.02 0 .12-.05.16-.06.03 0 .08-.06.1-.05.02.01 0 0 .05-.01a.42.42 0 0 1 .15-.01c.02.01.13-.02.13-.02.09.01.18.02.27.02.01.02.02.03.04.05 0 0 .05.04.06.04.07.01.2-.08.2-.08s.05-.05.07-.05c.02-.01.06-.03.08-.03.02 0 .09 0 .1.02.01.02.04 0 .06.02.02.01.09-.03.11-.02.01.02.04-.03.06-.01.01.02.03-.05.07.01.03.06.07.04.09.05.02.02.09-.02.11-.01h.02c.07-.02.27-.09.27-.09s.04-.04.06-.04c.02-.01.08-.06.1-.05.01.01.03-.03.07.01.04.04.1.03.1.06 0 .04.01.08.02.12 0 .03-.06.05 0 .03.06-.01.14-.09.15-.1.02-.01.06.03.06.03-.02.08-.06.09-.08.14-.02.04-.04.05-.06.08-.02.04-.03.03-.03.06 0 .04.03.05.05.08.02.03.12.17.12.19v.07c0 .03 0 .04-.01.07-.01.03-.03.07-.06.11-.03.03-.08.05-.09.07-.01.02-.08.03-.09.06-.01.02-.03.04-.05.07-.02.02-.05 0-.03.04.02.04.04.03.07.08.03.04.05.04.08.05.03.01.06-.04.06-.04s.06-.01.08.01c.02.02.04.07.05.09.02.02.05.05.08.07.01.01.02.02.04.02.03.02.06.03.08.04.03.01.06.01.08.04.02.03.07.05.07.05s.02.01.06.01c.04 0 .09-.03.11-.01.02.02.2-.02.2-.02.07.01.13.03.2.04 0 0 .18.12.2.13.03.01.1-.02.12-.01.03.01.04.03.06.06.01.02.01.02.03.08.02.06.07.09.08.14.01.05-.02.09.02.1.03.01.09-.01.1.02.01.04.01.03.05.03.05 0 .13-.04.14-.02.01.02.22.06.22.06s.08 0 .09.02c.01.02.09.01.13.05.03.04.08.03.1.05.02.01.05.03.07.05-.2-.94-.49-1.84-.83-2.72-.04 0-.06 0-.06-.01zm-22.33-9.3c-.07.07-.11.12-.22.16-.11.05-.09.06-.19.01-.1-.05-.09-.04-.08-.1.01-.06.1-.09.15-.15.05-.06.11-.02.14-.06.01-.02.15-.04.24-.06.09-.03.05 0 .1.07.07.08-.07.06-.14.13zm.81.2c-.04.08-.07.14-.13.21-.06.08-.04.02-.08-.04s-.03-.07-.02-.16c.01-.09.03-.1.09-.13.1-.05.16-.06.2-.03.04.03-.02.08-.06.15zm.67-.56c-.03.07-.02.02-.07.01-.04 0-.05-.02-.13-.03-.08-.01-.04-.06 0-.09.04-.02.1-.04.14-.05.03-.01.05.02.08.04.04.02.01.06-.02.12zm.26-.11c-.05.03-.17-.04-.13-.1.01-.01.06-.04.1-.06.04-.01.06.01.1.08.04.07-.01.06-.07.08zm2.77 7.07c-.05-.02-.04-.07-.06-.1-.02-.03.05-.09.1-.09.01 0 .04.04.02.06-.01.03.01.04.02.07.01.03.04.08.03.11-.01.04-.05-.03-.11-.05zm-2.98 8.34c.03-.02.06-.02.09.01.03.04-.02.03-.02.03s-.06.01-.09 0c-.02 0 0-.03.02-.04zm-.2.37c.05-.02.24.02.21.05-.04.03 0 0-.03.03-.02.04-.08.03-.12.02-.04 0-.06-.01-.08-.03-.02-.01-.01-.05.02-.07zm-.2-.48c.17-.03.1.1.1.1s.01.07-.05.09c-.06.03-.03 0-.02-.06 0-.05.05-.04.04-.08-.02-.02-.12-.04-.07-.05zm-.26-.24c.04.01.02.04.04.07.01.04.01.07-.02.08-.02.02-.02-.02-.06-.06-.04-.04-.01-.04-.06-.05-.04-.01-.01-.05 0-.07.02-.03.05.02.1.03zm-.21-.37c.03-.02.05.03.08.05.03.02.01.02.01.06 0 .04-.01.08-.04.09-.03.01 0-.02 0-.07-.01-.05-.01-.06-.04-.07-.02-.03-.03-.05-.01-.06zm-.07.35c-.01.02-.03.01-.07-.01-.04-.02 0 0 0-.03.01 0 .08 0 .07.04zm-.16-.61c.04 0 .04.04.07.07.02.03.03.04.03.09 0 .05-.02.03-.05.02-.03-.01-.03-.07-.05-.1-.01-.03-.12-.03-.11-.06.02-.05.07-.02.11-.02zm-.38-.42c.08-.03.12-.02.13.01.01.03-.01.02 0 .06.01.04.01.07 0 .1-.02.04-.06.06-.06.09 0 .04-.04-.05-.02-.09.02-.04 0-.06 0-.09.03-.03-.09-.06-.05-.08zm.02.84c.04-.01.02.03-.05.11-.03.03-.04-.03-.05-.08 0 .01.06-.01.1-.03zm-.07-.19c.02.04.02.05 0 .14-.03.08-.03.02-.07-.01-.04-.03-.01-.03-.07-.05-.06-.02 0-.05-.01-.1s.01-.11.03-.16l.05.05c-.01-.01.05.09.07.13zm-.32-.65c.03-.07.11-.02.16-.03.05-.01.1.04.07.05-.03.01-.06-.01-.11.02s-.12.08-.14.04c-.01-.02 0 0 .02-.08zm-1.25 1.67c-.07.01-.05-.01-.08-.05s-.03-.09.04-.11c.07-.02.13.07.14.14 0 .06-.03.02-.1.02zm2.16 1.13c-.06.02-.15.02-.2.03-.05.01-.04-.03-.11 0s-.05.07-.11.04c-.06-.03-.08-.03-.13-.07-.05-.04-.1-.06-.11-.13 0-.02.13-.06.19-.06s.14-.01.23.03.06-.03.15.06c.09.1.15.07.09.1zm.44-.58c-.02-.02-.1-.04-.1-.04s-.09.1-.11.06c-.02-.04-.08-.06-.12-.06-.04 0-.2.03-.23.03-.04 0-.09-.01-.19.01-.11.03-.19 0-.16-.02.03-.03.09-.07.12-.12.02-.05-.02-.07-.05-.09-.03-.01-.12-.01-.15-.02a.802.802 0 0 1-.19-.13c-.02-.03-.04-.13-.1-.15-.06-.02-.06-.05-.14-.03-.08.02-.03.11-.15-.01s-.11-.13-.18-.12c-.07.01-.18-.01-.3-.02s-.12-.04-.17-.06c-.05-.02-.09.02-.09-.03 0-.06.02-.08-.01-.1-.04-.02-.08-.05-.15-.03-.07.02-.1 0-.13.06-.02.06-.08.07-.13.08-.16.03-.17-.05-.23.02-.05.07-.12.11-.12.11-.02-.04-.08-.17-.05-.18.03-.01.03-.05.12-.07.08-.02.08-.06.13-.08.05-.02.04-.04.11-.03.06.01.09-.02.12-.01.04.01.09-.01.15-.01s.04-.01.09-.01c.06 0 .04-.03.13-.02.09.01.14.01.19.01.04.01.14.02.21.04.06.02.12-.02.21 0 .09.03.07.02.1.07.02.05.04.08.07.09.03.01.08 0 .11.02.03.01.12.01.12.01.07.08.1.05.14.1.04.05.09-.02.13.01.04.03.07.05.15.1.08.05.08.01.15.06.07.05.09.03.12.08.02.05-.02.03.07.04.09.02.12.04.15.04.03.01.09-.02.1.02.01.04-.01.11.04.12.04.01.05-.03.13 0 .07.04.09.02.14.06.04.04.01.02.07.08.05.05.06-.03.05.05-.03.06-.15.09-.17.07zm1.84.41c-.06 0-.15 0-.2.01-.05.01-.13 0-.17.02-.03.01-.11-.01-.13.01 0 0-.13-.01-.15.01-.02.02-.08.05-.08.11 0 .05.06.12 0 .09-.06-.04-.13-.06-.16-.09-.04-.03-.02-.03-.07-.04-.06-.01-.09-.01-.15-.01-.06.01-.09-.01-.14-.01-.04 0-.11.02-.16.01-.05-.02-.06-.04-.09 0s-.08.03-.08.03a.435.435 0 0 0-.07-.06c-.03-.04-.09-.08-.05-.11.04-.03.18-.07.23-.05.05.03.15.04.19.06.04.02.06.03.12.03.06-.01.14-.01.12-.05-.02-.04-.09-.03-.12-.08-.03-.06-.07-.06-.06-.1.02-.05-.01-.1-.03-.11-.02-.01-.08.01-.09-.04-.02-.04-.08-.06-.04-.1.05-.03.07-.09.17-.06.09.03.1.09.17.1.07.02.09.01.13.02.04.01.04 0 .14-.01s.09-.03.15-.01c.06.02.15-.05.18.02s.03.07.08.1l.01.01c-.01 0-.03-.02.13.04.22.09.31.11.31.15.02.13-.02.12-.09.11zm1.02.18c-.06.02-.08-.01-.11.01s-.04 0-.12.03c-.08.03-.12.02-.14.02-.02 0-.07-.06-.07-.06-.02-.05-.09-.1-.02-.12.07-.02.18-.03.25-.02.07.01.08 0 .15.01.06.01.06 0 .08.05.03.05.04.06-.02.08zm.41.29c0 .02-.06.01-.1 0-.04 0 0-.04.03-.06 0 0 .06 0 .08.01.01.03-.01.03-.01.05zm.51-.14c0 .03-.02.04-.05.04-.03 0-.03-.06-.01-.09.02-.03.06 0 .06 0v.05zm.07.27c-.03-.01-.06-.05-.02-.07.05-.02.1.03.09.05 0 .04-.04.03-.07.02zm.24-10.16c.02.02-.02.03-.06.08-.03.05-.04.05-.07.07-.04.02-.07.01-.09-.02-.02-.03-.07-.03-.09-.02-.02.01-.1 0-.13-.04-.04-.05-.01-.08.01-.1.02-.02.25.02.36 0 .12-.02.05.01.07.03zm.18-1.02c-.04.01-.1-.02-.15-.02-.05 0-.13-.03-.16-.04-.03-.01-.1-.06-.13-.08-.03-.02-.1-.07-.19-.08-.09-.01-.12-.09-.12-.09.04-.04.19-.04.27-.03.07.01.11.02.14.02.03 0 .13.03.16.05.03.02.2.14.24.15.04.01 0 .08 0 .08s-.01.03-.06.04zm.24 1.17c-.07.02-.06.03-.11.02-.05-.01-.08-.03-.08-.06 0 0 0-.01.01-.03.02-.02.16-.19.21-.22.05-.03.06-.11.11-.04.05.08.11.02.05.13-.05.1-.12.18-.19.2zM23.04 28c-.05 0-.04-.11-.01-.12.12-.04.06.12.01.12zm0 .16c-.01.02-.08-.02-.05-.05.03-.02.06.03.05.05zm0-.52c.02.01.06.07.05.12-.01.05-.05.02-.08 0-.04-.01-.05-.05-.05-.12 0 0 .06-.02.08 0zm-.25-.39c.01-.03.01-.08.02-.11v.03c.02-.01.03-.02.06-.01 0 .03-.01.07-.02.09h-.06zm.08 1.28c-.04 0-.04-.12-.01-.1.07.06.05.1.01.1zm0-1.02c-.02-.01-.02-.1-.01-.11.02 0 .03-.01.05 0 .02.02.04.04.04.06 0 .02 0 .04-.03.05-.01.01-.04.02-.05 0zm.18 1.6c-.07 0-.06.01-.11 0-.05 0-.01-.04.01-.08s.04-.11.09-.14c.07-.04.1.04.1.15 0 .11-.02.07-.09.07zm.3-12.2c-.07.04-.08.04-.12.07-.04.03-.11.04-.11.01-.01-.03-.02-.03.01-.07.02-.03.01-.11.09-.13.08-.02.13-.08.15 0 .01.08.04.09-.02.12zm2.34-.63c-.02.04-.03.01-.05.06-.02.05-.03.06-.04.09-.01.04.03.01-.03.07-.06.06-.13.06-.13.06-.02-.05-.05-.09-.07-.14-.05.02-.09.04-.14.06-.01-.12 0-.12 0-.17v-.04c-.1-.03-.15-.05-.14-.02.01.03-.05.06-.1.08-.05.02-.09.05-.11.09-.02.03-.05.06-.1.06-.04.01-.06.01-.09 0-.04-.01-.08 0-.06-.03.02-.03.02-.04.07-.06.05-.02.06-.03.08-.05 0 0-.02-.06-.05-.08-.03-.02-.04-.01-.03-.05 0-.04.04-.09-.01-.09s-.05.02-.13.05c-.08.03-.12.04-.14.04-.02 0-.03.01-.11.01s-.03-.02-.13-.01-.22.01-.26.01c-.03 0-.12-.03-.19-.02-.07.02-.13 0-.13 0s0-.07.04-.11c.04-.04.05-.06.08-.08.03-.02.08-.06.08-.06s.07-.07.01-.07c-.06 0-.1-.01-.1-.01s.03-.05.07-.07c.04-.02.08-.03.09-.07.02-.04.03-.04.04-.08 0-.04.01-.07.04-.08.03-.03.05-.06.08-.08.03-.03.06-.05.08-.08 0 0 .03-.06.02-.09-.01-.04 0-.05.03-.08.06-.07.07-.12.11-.17.04-.05.07-.07.09-.11.02-.03.12-.06.15-.11.02-.05.04-.14.1-.17.06-.03.05-.05.11-.06.06-.01.02 0 .11-.01s.04-.03.08-.01c-.01-.05 0-.04.01-.03-.01-.01-.02-.02-.01.03.02.09.03.07-.04.1s-.12 0-.1.05c.02.06.08.03.03.11-.04.08-.12.13-.18.18-.06.05-.09.07-.1.11 0 .05-.02.07-.02.1s0 .01-.04.08-.04.1-.04.1.05-.06.14-.13c.08-.07.05-.07.08-.07.04 0 .04.02.08.02.04.01.09-.01.11 0 0 0 .03.03-.04.08s-.04.02-.07.05c-.03.03-.04.05-.04.08-.01.03.03.03.07.03.05 0 .11-.02.12 0 .04.06.03.14.03.14s.04-.01.06-.02c.02-.01.03-.06.06-.08.04-.02.08-.07.08-.07s.07-.07.07-.05c.01.08.08.1.11.08.02-.01.03.01.06.02s.12.03.12.07c0 .04-.04.04-.06.08-.02.04-.05-.01-.08.04-.06.09-.01.07-.01.12 0 .05.07-.01 0 .05-.07.06-.01.03-.01.03s.06.04.1.03c.04-.02.07-.06.1-.07.03-.01.1-.06.09-.02-.01.04 0 .02-.07.08-.08.06-.1.05-.14.09-.11.12-.12.11-.11.15 0 0 .05.08.09.05.04-.03.05-.1.1-.13.04-.03.1-.04.1-.04.02.09 0 .13-.02.15-.02.03-.03.06-.03.06.04-.02.09-.03.14-.05.03-.02.05.05.04.08zm-3.25 24.81c0 .01 0 .04.01.04-.01-.01-.01-.03-.01-.04zm-8.07-8.9c-.02.03-.08.03-.11.03-.04 0-.09-.03-.11-.09-.02-.06.04-.02.05-.05.01-.02 0-.06-.03-.08-.03 0-.06 0-.08-.02-.02-.01.04-.08.06-.09 0 0 .03 0 .04-.02.01-.01.07.05.09.07.02.02.01.04.02.07.01.03.06.08.08.11.03.02 0 .04-.01.07zm.01-.23s.04-.01.03.04c.01-.05-.03-.04-.03-.04zm.17.19c-.02.03-.02.01-.06 0-.04-.01-.04-.07-.04-.1 0-.04.02-.01.04-.02.02 0 .04-.01.08.03.05.05 0 .07-.02.09zm.23.05c-.03-.01-.04-.04-.01-.06.02-.01.07.03.07.05.01.03-.03.02-.06.01z"/><path class="st3" d="M37.11 23.16c-.01-.01-.07.03-.07.03-.04.01-.04.05-.07.03-.03-.02-.04.02-.04.04s-.02.08 0 .1c.03.02.02.03.05.03.03 0 .1-.07.09-.07-.01 0-.02-.05 0-.06.03-.01.04-.01.06-.04.02-.04-.01-.06-.02-.06zM36.78 23.25c-.02.02-.04.04-.02.07.02.03.04.05.06.04.01-.01.01-.06.01-.08 0-.02-.05-.03-.05-.03zM36.64 23.02c-.02-.01-.07 0-.07.03s-.01.05-.02.06c-.02.02.05.04.06.05.02.01.07-.04.07-.07.01-.02-.01-.06-.04-.07zM37.37 23.28h-.1c-.02.03-.06.01-.06.05 0 .03-.01.06.02.06.04.01.03.01.05.04.02.03.06.02.08 0 .02-.02.03-.04.03-.06.01-.02.01-.03 0-.04 0-.02.03-.05-.02-.05zM37.83 23.1c-.03.03-.05.04-.05.06 0 .02.01.03-.03.04l-.05.02s-.02.04 0 .06c.02.03-.05.05-.03.06.02.02.02.02.04.02s.04-.03.06-.04c.05-.04.07-.03.1-.05.02-.02.07-.04.06-.08 0-.04-.01-.04-.02-.06-.01-.01-.04-.07-.08-.03zM38.01 22.89c-.04.03-.04.04-.07.04-.03 0-.06 0-.06.03s-.03 0-.03.03c-.01.03-.01.05.02.06.04.01.05.02.07 0 .02-.02.01-.04.03-.05.02-.01.05 0 .06-.03.01-.03.02-.06.02-.07-.01 0 0-.04-.04-.01zM36.54 23.39c-.02.02-.03.01-.03.03.01.02.03-.01.03.03s.01.04.03.04c.02 0 .06-.05.06-.06 0-.02.01-.06-.02-.06-.02 0-.05.01-.07.02zM36.87 21.62c-.02.02-.06.02-.04.06.02.03-.02.06 0 .07.03.01.04.02.06 0 .02-.01.02-.02.04-.03.02-.01.04 0 .04 0s.02-.01.02-.04 0-.06-.02-.06c-.02-.01-.1 0-.1 0z"/></svg>