<svg version="1.1" id="Capa_1" xmlns="http://www.w3.org/2000/svg" x="0" y="0" viewBox="0 0 48 48" style="enable-background:new 0 0 48 48" xml:space="preserve"><style>.st6{fill:#b2b2b2}</style><g id="XMLID_1_"><path id="XMLID_28_" class="st6" d="M32.67 19.62H14.04c-.75 0-.75 1.16 0 1.16h18.63c.75 0 .75-1.16 0-1.16z"/><path id="XMLID_27_" class="st6" d="M32.67 24.9H14.04c-.75 0-.75 1.16 0 1.16h18.63c.75 0 .75-1.16 0-1.16z"/><path id="XMLID_26_" class="st6" d="M32.67 30.18H14.04c-.75 0-.75 1.16 0 1.16h18.63c.75 0 .75-1.16 0-1.16z"/><path id="XMLID_25_" class="st6" d="M32.67 35.46H14.04c-.75 0-.75 1.16 0 1.16h18.63c.75 0 .75-1.16 0-1.16z"/><path id="XMLID_22_" class="st6" d="M16.01 14.92c0-.82-.67-1.49-1.49-1.49s-1.49.67-1.49 1.49.67 1.49 1.49 1.49c.83-.01 1.49-.67 1.49-1.49zm-2.35 0a.87.87 0 1 1 .87.87.884.884 0 0 1-.87-.87z"/><path id="XMLID_19_" class="st6" d="M18.94 16.4c.82 0 1.49-.67 1.49-1.49s-.67-1.49-1.49-1.49-1.49.67-1.49 1.49c.01.83.67 1.49 1.49 1.49zm0-2.35a.87.87 0 1 1-.001 1.741.87.87 0 0 1 .001-1.741z"/><path id="XMLID_16_" class="st6" d="M23.36 16.4c.82 0 1.49-.67 1.49-1.49s-.67-1.49-1.49-1.49-1.49.67-1.49 1.49c0 .83.67 1.49 1.49 1.49zm0-2.35a.87.87 0 1 1-.001 1.741.87.87 0 0 1 .001-1.741z"/><path id="XMLID_13_" class="st6" d="M27.78 16.4c.82 0 1.49-.67 1.49-1.49s-.67-1.49-1.49-1.49-1.49.67-1.49 1.49c0 .83.67 1.49 1.49 1.49zm0-2.35a.87.87 0 1 1-.001 1.741.87.87 0 0 1 .001-1.741z"/><path id="XMLID_10_" class="st6" d="M30.71 14.92c0 .82.67 1.49 1.49 1.49s1.49-.67 1.49-1.49-.67-1.49-1.49-1.49c-.83 0-1.49.67-1.49 1.49zm1.48-.87a.87.87 0 1 1-.87.87c0-.48.4-.87.87-.87z"/><path id="XMLID_5_" class="st6" d="M38.89 12.92c-.27.01-.62 0-1-.02V9.39h-3.88c.71-.64 1.12-1.58 1.13-2.42.01-1.17-.69-2.04-1.88-2.34-.87-.22-1.64-.09-2.23.36-.59.45-.98 1.22-1.13 2.17-.01-.01-.01-.02-.02-.02-.47-.79-.32-1.61-.07-2.59.14-.55-.23-.97-.66-1.07-.42-.11-.92.07-1.06.62-.34 1.33-.57 3.05.65 4.5.25.3.55.57.88.79H9.55v32.5h28.34v-27.2c.25.01.5.02.75.02h.27c.57-.01.87-.48.86-.92-.01-.44-.31-.87-.88-.87zm-1.92-2.61v2.48c-1.54-.23-3.41-.87-4.57-2.48h4.57zm0 30.64H10.48V10.31h19.84c1.15 2.35 3.57 3.87 6.66 4.28v26.36zm1.92-26.87c-3.75.08-6.76-1.44-8.03-4.05-.09-.19-.18-.42-.24-.66l-.04-.13-.12-.06a3.85 3.85 0 0 1-1.24-.98c-1.03-1.23-.84-2.69-.52-3.95.04-.15.14-.18.22-.18.03 0 .07.01.09.01.05.01.27.08.21.32-.27 1.08-.45 2.06.14 3.06.15.25.34.48.58.7l.5.46.01-.68c.02-1.11.37-2 .96-2.45.44-.34 1.01-.42 1.7-.25 1.24.31 1.42 1.22 1.41 1.73-.01 1.02-.75 2.24-1.96 2.51-.25.06-.53.08-.81.06l-.55-.04.26.49c1.75 3.3 5.79 3.58 7.45 3.55h.01c.21 0 .24.18.24.25-.01.05-.02.29-.27.29z"/><path id="XMLID_2_" class="st6" d="M33.13 8.67c1.03-.67.95-1.42.87-1.71-.17-.6-.78-1.05-1.45-1.08-.7-.03-1.28.4-1.56 1.15-.18.47-.19 1.02-.05 1.63l.04.17.16.05c.27.09.55.13.81.13.43 0 .83-.11 1.18-.34zm-1.62-.33c-.08-.42-.05-.78.06-1.1.18-.5.52-.77.95-.75.4.02.79.29.88.63.09.34-.12.71-.61 1.03-.44.3-.92.28-1.28.19z"/></g></svg>