<svg version="1.1" id="Capa_1" xmlns="http://www.w3.org/2000/svg" x="0" y="0" viewBox="0 0 48 48" style="enable-background:new 0 0 48 48" xml:space="preserve"><style>.st5{fill:#394146}</style><path class="st5" d="M9.34 6.27H6.48v34.71l2.86-4.56zM7.13 41.64h34.71v-2.86H11.7zM41.68 6.31c-1.01-1.01-2.3-1.64-3.62-1.76-1.2-.11-2.31.21-3.15.91L32.67 7.6 17.12 23.01l-5.99 13.8 13.6-5.78 16.29-16.42 1.49-1.52c1.51-1.81 1.17-4.77-.83-6.78zm-8.1 1.51 1.52.37-15.44 15.45-1.52-.37L33.58 7.82zM17.36 33.3c-.29-.57-.66-1.1-1.13-1.57-.46-.46-.98-.83-1.53-1.11l2.89-6.67 1.99.49 3.82 3.82.43 2.29-6.47 2.75zm6.7-5.52-3.71-3.71L35.89 8.54l3.63 3.63.03.12-15.49 15.49zm18.17-15.71-.13-.47c-.21-.75-.8-1.77-1.35-2.31L38.57 7.1c-.55-.55-1.57-1.12-2.31-1.31l-.28-.07c.58-.3 1.26-.44 2-.37 1.14.1 2.24.64 3.13 1.53 1.53 1.53 1.94 3.68 1.12 5.19z"/></svg>