<svg version="1.1" id="Capa_1" xmlns="http://www.w3.org/2000/svg" x="0" y="0" viewBox="0 0 48 48" style="enable-background:new 0 0 48 48" xml:space="preserve"><style>.st6{fill:#b2b2b2}</style><path class="st6" d="M33.66 13.89V9H12.68v30h25.87V13.89h-4.89zm2.55 17.74c-7.06-4.21-14.14 4.21-21.2 0v-3.4c7.07 4.21 14.14-4.21 21.2 0v3.4zm0-5.93c-7.06-4.21-14.14 4.21-21.2 0v-3.4c7.07 4.21 14.14-4.21 21.2 0v3.4zm0-5.93c-7.06-4.22-14.14 4.21-21.2 0v-3.4c7.07 4.22 14.14-4.21 21.2 0v3.4z"/><path class="st6" d="M34.6 9.22v3.72h3.72z"/></svg>