<svg version="1.1" id="Capa_1" xmlns="http://www.w3.org/2000/svg" x="0" y="0" viewBox="0 0 48 48" style="enable-background:new 0 0 48 48" xml:space="preserve"><style>.st6{fill:#b2b2b2}</style><path class="st6" d="M25.5 18.53c-.51-.28-1.12-.41-1.51-.53-.39-.13-.85-1.22-3.62-.51.25.82 1.77-.38 3.17 1.39 1.39.38 2.47-.13 2.98.51.38.38.97.13 1.09-.51.11-.63-1.6-.07-2.11-.35z"/><path class="st6" d="M24.02 7.19C14.74 7.19 7.21 14.72 7.21 24c0 9.28 7.52 16.81 16.81 16.81 9.28 0 16.81-7.52 16.81-16.81 0-9.28-7.53-16.81-16.81-16.81zM13.35 33.05c.44.7-1.16 1.07-.86 1.58.25.43.67.83.92 1.48-.26-.23-.53-.46-.78-.71a16.08 16.08 0 0 1-4.64-9.88c1.21.71 3.1 3.79 5.37 4.42.56.38-.46 2.41-.01 3.11zm1.8-19.19s-.01 0 0 0c-.06.47-.41.98-1.35 1.55-.17.23-.96.56-1.04.77-.09.21-.31.28-.6.37-.29.09-.98.55-1.09.74-.11.18-.25.09-.92.25-.35.16-.68.26-1.03.32.8-1.94 1.97-3.69 3.42-5.17.49-.45 1.01-.82 1.58-1.1l1.2-.74c-.22.55-.22.92-.49 1.23-.04.4.5 1.26.32 1.78zm24.24 15.01c-.79 2.49-2.16 4.72-3.97 6.53-.46.46-.96.88-1.47 1.28-.11.06-.21.11-.31.14.28-2.01.65-2.68 1.77-3.16 1.12-.49 1.36-1.16 1.31-2.09-.01-1.5 1.96-2.29 2.69-2.81-.01.04-.02.08-.02.11zm-.22-10.32c.16.46.31.92.43 1.39-.03 1.54-1.98 2.31-2.14 2.94 0 .05.01.1.01.16.27-.01.53.21.72.86.57 2.03.32 2.79-.38 2.79-.57 0-.84-.96-1.23-1.95-.16-.12-.31-.3-.45-.53-.57-.95-1.33-3.42-2.28-3.61-.45-.09-.51.53-.64 1.24-.14.64.2 1.2.2 1.2s-.41.26-.53.59c-.12.33-.62.02-.95.01-.74.36-1.37-.18-1.55-1.06-.49-.81-.81-1.74-1.47-1.41.57.76.76 3.23 1.33 3.8 1.71 0 1.9-1.33 1.53.95-.09.58-.23 1.03-.39 1.42-.07.81-.23 1.19-.48 1.43-.25.24-1 .83-1.08.95.13.44-.29.63-.44.79-.02.07-.03.13-.03.18.12.15.49.23.74.26.95-.08 2.36-.54 1.29.66-.42.4-.77.7-1.05.94.03.06.05.12.03.18-.1.21-.28.62-.36.78.06.3-.04.27-.31.16-.33.16-.28-.07-.43-.35-.04-.09-.08-.16-.11-.23a.656.656 0 0 1-.08-.21c-.02-.09-.04-.19-.06-.3l.01-.01c-.05-.23-.13-.46-.38-.56-.95-.38-.49 1.33-1.82 2.85-2.28 1.71-2.66.19-3.8-1.33-1.14-1.52.7-1.83.26-4.6-.95-.57-1.78-2.43-1.78-2.43h-.6c-.16 0-.12.16-.41.13s-.89-.13-1.25-.13-.43.14-.72 0c0 0-.56 0-.76.16-.21.16-.54.16-.82-.16 0 0-1.71-2.47-1.33-4.18.38-1.71 1.14-2.09 2.66-3.42-.25-.95-1.14-.32-1.01-1.52.32-2.15 1.96-.57 2.28-1.9.08-.34-.08-.5-.35-.57-.41-.04-.9.42-1.33.33-.43-.09-.8-.2-.39-.68.04-.06.09-.13.17-.22.25-.28.48-.53.7-.74.12-.12.23-.23.32-.3.16-.49.4-.95.99-.77.59.18.14.55.2.94.33 2.14.91 1.73 1.21 1.37-.13-.63 1.77-.32.95-.7a.595.595 0 0 1-.21-.18c-.16-.13-.26-.26-.24-.43.09-.12-.05-.31.05-.46-.05-.15.02-.29.08-.42.02-.07.05-.14.07-.21v-.01c.02-.18.15-.6.28-.66.03-.01.07-.02.1-.02.25-.32.59-.6 1.02-.78.01-.04.01-.08.01-.11-.01-.1.48-.09.48-.09l.06.04c.27-.06.53-.1.79-.12.21-.02.57-.24.57-.24s.49-.01.51.23c.08.01.16.02.24.02.14-.02.24-.1.41-.13.25-.04.34.23.63.5.25.19.37.45.29.76.76 0 2.72-1.39 2.72-1.39s2.66.76 2.34 1.52c-.32-.19-1.65-.57-3.17 0-.38.14.82.57 2.22.57 3.5.09 6.64 3.7 7.91 6.02z"/></svg>