<svg version="1.1" id="Capa_1" xmlns="http://www.w3.org/2000/svg" x="0" y="0" viewBox="0 0 48 48" style="enable-background:new 0 0 48 48" xml:space="preserve"><style>.st6{fill:#b2b2b2}</style><path class="st6" d="M23.62 6.97c-4.83 0-9.17 2.08-12.19 5.4a16.41 16.41 0 0 0-4.3 11.09c0 9.09 7.4 16.49 16.49 16.49 4.27 0 8.16-1.63 11.09-4.3 3.31-3.02 5.4-7.37 5.4-12.19 0-9.09-7.4-16.49-16.49-16.49zm9.52 27.11a14.23 14.23 0 0 1-8.42 3.61v-2.15c0-.61-.5-1.1-1.1-1.1-.61 0-1.1.5-1.1 1.1v2.15c-.37-.03-.74-.07-1.1-.13-6.11-.95-10.95-5.78-11.9-11.9-.06-.36-.1-.73-.13-1.1h2.15c.61 0 1.1-.5 1.1-1.1 0-.61-.5-1.1-1.1-1.1H9.39c.25-3.23 1.57-6.15 3.61-8.42 2.38-2.66 5.75-4.42 9.52-4.71v2.15c0 .61.5 1.1 1.1 1.1.61 0 1.1-.5 1.1-1.1V9.23c7 .54 12.59 6.13 13.13 13.13h-2.14c-.61 0-1.1.5-1.1 1.1 0 .61.5 1.1 1.1 1.1h2.15c-.3 3.77-2.06 7.14-4.72 9.52z"/><path class="st6" d="M35.2 18.18a.543.543 0 0 0-.73-.26l-9.52 4.56c-.3-.41-.78-.68-1.33-.68-.64 0-1.19.37-1.47.9l-5.19-1.49c-.29-.08-.6.09-.68.38-.08.29.09.6.38.68l4.54 1.3.81.23c.16.74.82 1.29 1.61 1.29.16 0 .32-.03.47-.08.43-.13.78-.42.98-.81.1-.2.17-.42.19-.66l8.85-4.24.83-.4a.53.53 0 0 0 .26-.72z"/></svg>