<svg version="1.1" id="Capa_1" xmlns="http://www.w3.org/2000/svg" x="0" y="0" viewBox="0 0 48 48" style="enable-background:new 0 0 48 48" xml:space="preserve"><style></style><path d="m32.49 10.17-4.4-4.4v4.4h4.4zm9.15 10.27.96-.86-4.51-4.52-.85.94 4.4 4.44zm-.82.94-4.52-4.51-14.31 14.4 4.43 4.4 14.4-14.29zm-4.46-6.25 1.74-1.73 6.3 6.19-1.82 1.77.02.02-.46.47-7.51 7.45v14.49H4V3.51h23.36l.08.06c.15 0 .3.06.39.18l1.29 1.29 5.51 5.13V16.77c.56-.54 1.1-1.13 1.67-1.69l.06.05zM23.07 36.98l-2.37-2.37-.24 2.61 2.61-.24zM20.7 32.7l5.1 5.25-6.78.7.71-6.8.97.85zm12.61-2.09-6.89 6.84-6.22-6.19c4.38-4.37 8.75-8.75 13.11-13.17v-6.61h-5.83c-.35 0-.7-.24-.7-.58V4.83H5.21v37.76h28.1V30.61z" style="fill-rule:evenodd;clip-rule:evenodd;fill:#394146"/></svg>