<svg version="1.1" id="Capa_1" xmlns="http://www.w3.org/2000/svg" x="0" y="0" viewBox="0 0 48 48" style="enable-background:new 0 0 48 48" xml:space="preserve"><style>.st0{fill:#878787}</style><path class="st0" d="m16.61 21.37 1.22-1.35a5.587 5.587 0 0 0 1.45-4.05c-.07-1.5-.73-2.88-1.84-3.89l-2.06-1.87a5.666 5.666 0 0 0-3.78-1.45c-1.59 0-3.11.67-4.17 1.85l-1.22 1.35c-.16.17-.31.36-.45.57l-.06.06c-1.15.99-2.14 3.39-1.57 6.33C6.76 32.6 18.29 43.03 32.17 44.28c1.82.17 3.53-.21 4.83-1.01.52-.3.98-.67 1.37-1.11l1.22-1.35c2.08-2.3 1.9-5.86-.4-7.94L37.13 31a5.592 5.592 0 0 0-3.77-1.45c-1.59 0-3.11.68-4.17 1.85l-1.22 1.35c-.52.58-.91 1.24-1.16 1.98l-.11.33-.32-.13c-5.46-2.15-9.9-6.23-12.52-11.49l-.16-.34.37-.11c.98-.3 1.86-.86 2.54-1.62zM23.48 5.15c0 .72.59 1.31 1.31 1.31 9.19 0 16.66 7.47 16.66 16.66 0 .72.59 1.31 1.31 1.31.72 0 1.31-.59 1.31-1.31 0-10.63-8.65-19.28-19.28-19.28-.72 0-1.31.59-1.31 1.31z"/><path class="st0" d="M23.27 11.57c0 .72.59 1.31 1.31 1.31 5.77 0 10.46 4.69 10.46 10.46 0 .72.59 1.31 1.31 1.31.72 0 1.31-.59 1.31-1.31 0-7.21-5.87-13.08-13.08-13.08-.73 0-1.31.58-1.31 1.31z"/></svg>