<svg version="1.1" id="Capa_1" xmlns="http://www.w3.org/2000/svg" x="0" y="0" viewBox="131.908 1418.972 42.014 21.028" style="enable-background:new 0 0 48 48" xml:space="preserve">
	<style/>
	<path d="M165.195 1426.703h-.75c-.609-1.321-2.437-4.946-4.669-6.119-.755-.397-3.489-1.687-6.975-1.609-2.736.06-6.352.841-7.969 2.22-1.272 1.086-2.921 4.059-3.458 5.508h-.739c-.062.099-5.644 1.158-7.284 2.828-1.741 1.77-1.978 6.515-.321 6.515h5.256a3.63 3.63 0 107.23 0H160.543a3.63 3.63 0 107.228 0h5.028c1.657 0 1.42-4.745-.321-6.515-1.64-1.67-7.222-2.729-7.283-2.828zm-13.907 0h-6.569c.594-1.156 1.533-2.7 2.097-3.182.616-.525 2.44-1.121 4.472-1.372v4.554zm4.885 0h-1.828v-4.608c2.022.222 3.527.941 4.007 1.195.799.42 1.857 1.941 2.667 3.413h-4.846z"></path>
</svg>